/* XPM */
static char * e:\EmacsPortable_App\Data\src\mode_icons\icons\autohotkey_xpm[] = {
"16 16 154 2",
"  	c None",
". 	c #78B178",
"+ 	c #63B063",
"@ 	c #47A447",
"# 	c #3CA03C",
"$ 	c #389F38",
"% 	c #339D33",
"& 	c #2E9C2E",
"* 	c #2A9A2A",
"= 	c #259925",
"- 	c #209720",
"; 	c #1B951B",
"> 	c #158315",
", 	c #99DA99",
"' 	c #A8E2A8",
") 	c #7DD37D",
"! 	c #52C552",
"~ 	c #45C045",
"{ 	c #3FBF3F",
"] 	c #39BD39",
"^ 	c #34BB34",
"/ 	c #2EB92E",
"( 	c #28B728",
"_ 	c #22B522",
": 	c #1CB31C",
"< 	c #17B217",
"[ 	c #10A410",
"} 	c #6FB16F",
"| 	c #9FDE9F",
"1 	c #9CDE9C",
"2 	c #6CCD6C",
"3 	c #42BF42",
"4 	c #3DBF3D",
"5 	c #18B218",
"6 	c #1DB31D",
"7 	c #17B117",
"8 	c #11AF11",
"9 	c #0BAD0B",
"0 	c #047804",
"a 	c #58AD58",
"b 	c #70CF70",
"c 	c #65CA65",
"d 	c #46C046",
"e 	c #E0F5E0",
"f 	c #70BC70",
"g 	c #34BC34",
"h 	c #3BBD3B",
"i 	c #F0F7F0",
"j 	c #129F12",
"k 	c #0BAC0B",
"l 	c #04A404",
"m 	c #008100",
"n 	c #44A544",
"o 	c #4EC34E",
"p 	c #47C147",
"q 	c #FFFFFF",
"r 	c #8AB98A",
"s 	c #2EBB2E",
"t 	c #87D687",
"u 	c #058505",
"v 	c #009C00",
"w 	c #007B00",
"x 	c #3DA33D",
"y 	c #44C044",
"z 	c #2DB92D",
"A 	c #81B381",
"B 	c #28B928",
"C 	c #92D992",
"D 	c #F8F2F8",
"E 	c #008E00",
"F 	c #009B00",
"G 	c #009400",
"H 	c #007500",
"I 	c #39A239",
"J 	c #28B628",
"K 	c #7AAD7A",
"L 	c #20B720",
"M 	c #16B116",
"N 	c #0AAD0A",
"O 	c #8FD98F",
"P 	c #F0E9F0",
"Q 	c #008A00",
"R 	c #008D00",
"S 	c #007000",
"T 	c #34A034",
"U 	c #21B421",
"V 	c #A6C9A6",
"W 	c #9DDF9D",
"X 	c #CCEDCC",
"Y 	c #F4FAF4",
"Z 	c #DED8DE",
"` 	c #008600",
" .	c #006900",
"..	c #2F9F2F",
"+.	c #1AB21A",
"@.	c #E1DBE1",
"#.	c #B4BAB4",
"$.	c #CCD2CC",
"%.	c #CBC6CB",
"&.	c #007F00",
"*.	c #006400",
"=.	c #2B9D2B",
"-.	c #7CA27C",
";.	c #0B7E0B",
">.	c #019201",
",.	c #00A300",
"'.	c #86C986",
").	c #BFBBBF",
"!.	c #008000",
"~.	c #007800",
"{.	c #005D00",
"].	c #269B26",
"^.	c #23B523",
"/.	c #539C53",
"(.	c #0BAE0B",
"_.	c #80BE80",
":.	c #BCB8BC",
"<.	c #007900",
"[.	c #005800",
"}.	c #219A21",
"|.	c #29B729",
"1.	c #439443",
"2.	c #04A504",
"3.	c #7AB57A",
"4.	c #BAB6BA",
"5.	c #007100",
"6.	c #005200",
"7.	c #1C981C",
"8.	c #0DAE0D",
"9.	c #96B796",
"0.	c #278C27",
"a.	c #526852",
"b.	c #006200",
"c.	c #004C00",
"d.	c #179317",
"e.	c #03A703",
"f.	c #009D00",
"g.	c #005B00",
"h.	c #004100",
"i.	c #0D5B0D",
"j.	c #11B411",
"k.	c #005400",
"l.	c #075F07",
"m.	c #048B04",
"n.	c #008300",
"o.	c #007D00",
"p.	c #007700",
"q.	c #006B00",
"r.	c #006500",
"s.	c #005F00",
"t.	c #005900",
"u.	c #005300",
"v.	c #004D00",
"w.	c #004600",
"    . + @ # $ % & * = - ; >     ",
"  , ' ) ! ~ { ] ^ / ( _ : < [   ",
"} | 1 2 3 4 ] ^ / ( 5 6 7 8 9 0 ",
"a b c d e f g / ( h i j 8 k l m ",
"n o p ^ q r s ( _ t q u k l v w ",
"x y { z q A B _ : C D E l F G H ",
"I { ] J q K L M N O P Q v G R S ",
"T ] ^ U q V W X Y q Z Q G R `  .",
"..^ / +.q q q @.#.$.%.` R ` &.*.",
"=./ ( +.q -.;.>.,.'.).!.` &.~.{.",
"].( _ ^.q /.(.l F _.:.<.&.~.S [.",
"}._ : |.q 1.2.v G 3.4.5.~.S  .6.",
"7.: 7 8.9.;.v G R 0.a.H S  .b.c.",
"d.7 8 k e.f.G R ` &.w S  .b.g.h.",
"i.j.k l F G R ` &.~.5. .b.g.k.  ",
"  l.m.n.o.p.5.q.r.s.t.u.v.w.    "};
