/* XPM */
static char *bash[] = {
/* columns rows colors chars-per-pixel */
"16 16 37 1 ",
"  c black",
". c #010101",
"X c gray1",
"o c #040404",
"O c gray2",
"+ c #060606",
"@ c #070707",
"# c gray3",
"$ c #090909",
"% c #0B0B0B",
"& c #131313",
"* c #151515",
"= c gray9",
"- c gray16",
"; c gray18",
": c #313131",
"> c #ACACAC",
", c #C0C0C0",
"< c gray76",
"1 c #C3C3C3",
"2 c gray77",
"3 c gray79",
"4 c #CCCCCC",
"5 c gray81",
"6 c #D8D8D8",
"7 c gray85",
"8 c gainsboro",
"9 c #E2E2E2",
"0 c gray90",
"q c #E6E6E6",
"w c #E7E7E7",
"e c #F1F1F1",
"r c #F5F5F5",
"t c gray97",
"y c #FDFDFD",
"u c #FFFFFF",
"i c None",
/* pixels */
"iiiiiiiiiiiiiiii",
"iiiiiiiiiiiiiiii",
"                ",
"   6e*+eq   ;e, ",
"   qu=@ur   :u4 ",
" 3yuuyyuuy9 :u4 ",
" 4uuuuuuuu0 :u4 ",
" XOquuuurOo :u4 ",
" #%wuuuur%$ ;r1 ",
" 4uuuuuuuu0     ",
" 2tuuttuut8 .$@ ",
"   qu=@ur   :u4 ",
"   <7&O75   -7> ",
"                ",
"iiiiiiiiiiiiiiii",
"iiiiiiiiiiiiiiii"
};
