/* XPM */
static char * e:\EmacsPortable_App\Data\src\mode_icons\icons\bibtex_xpm[] = {
"16 16 7 1",
" 	c #FFFFFF",
".	c #EDEBEE",
"+	c #ECEBEF",
"@	c #EDEBEF",
"#	c #808080",
"$	c #000080",
"%	c #000000",
"#############   ",
"#           ##  ",
"#           # # ",
"# $$$    $  #%%%",
"# $  $ $ $    @%",
"# $  $   $    @%",
"# $$$  $ $$$  @%",
"# $  $ $ $  $ @%",
"# $  $ $ $  $ @%",
"# $$$  $ $$$  @%",
"#             @%",
"#             @%",
"#.      ++++  @%",
"#%%@@@@#%%%%# @%",
"   #%%%%    %#@%",
"             %%%"};
