/* XPM */
static char * c_xpm[] = {
"16 16 23 1",
" 	c None",
".	c #03599C",
"+	c #B1BBCF",
"@	c #F1F3F6",
"#	c #FFFFFF",
"$	c #F1F2F6",
"%	c #AFB9CE",
"&	c #D4D9E3",
"*	c #F2F3F6",
"=	c #D3D8E3",
"-	c #8698BA",
";	c #F9F9FB",
">	c #7B90B5",
",	c #8597BA",
"'	c #6F87B1",
")	c #5073A7",
"!	c #1B5D9D",
"~	c #F0F1F5",
"{	c #3364A0",
"]	c #8597B9",
"^	c #8598BA",
"/	c #F6F7F9",
"(	c #D4D9E4",
"       ..       ",
"     ......     ",
"   ..........   ",
"  ...+@##$%...  ",
" ...&##*$##=... ",
" ..+#$-..-$;>.. ",
" ..*#,....')... ",
" .!#~.......... ",
" .{#~.......... ",
" ..*#]....')... ",
" ..+#$-..^$/>.. ",
" ...(##$$##&... ",
"  ...+@##$+...  ",
"   ..........   ",
"     ......     ",
"       ..       "};
