/* XPM */
static char * c_xpm[] = {
"16 16 25 1",
" 	c None",
".	c #0165B3",
"+	c #03599C",
"@	c #5191E2",
"#	c #FEFEFE",
"$	c #FFFFFF",
"%	c #5191E3",
"&	c #28619E",
"*	c #FCFCFD",
"=	c #0768B6",
"-	c #5191E1",
";	c #5995E2",
">	c #5995E1",
",	c #6DA9FD",
"'	c #1A5D9D",
")	c #1B5D9D",
"!	c #FDFDFE",
"~	c #29629F",
"{	c #FDFDFD",
"]	c #5593E3",
"^	c #065A9D",
"/	c #5995E3",
"(	c #5191E0",
"_	c #FCFCFC",
":	c #FCFCFE",
" .++++++++++++. ",
".++++++..++++++.",
"+++++@@##@@+++++",
"++++@###$##@++++",
"+++@##%&&%$*=+++",
"++-##@++++;;>+++",
"++,#%++++++++')+",
"++!#%+++++++++++",
"++*,~+++++++++++",
"++*{]^++++++++++",
"++,!/^^+++++++++",
"++(!{%^++^%%>+++",
"+++(*{%&&%{_=+++",
"++++@*:{{:*@++++",
".++++@-**-@++++.",
" .+++++..+++++. "};
