/* XPM */
static char *c_icon_2[] = {
/* columns rows colors chars-per-pixel */
"20 20 50 1 ",
"  c #283593",
". c #293694",
"X c #2A3896",
"o c #2C3A97",
"O c #2E3B96",
"+ c #2C3A99",
"@ c #2E3C9B",
"# c #323F9B",
"$ c #33409C",
"% c #3342A2",
"& c #3646A7",
"* c #3848AA",
"= c #3949AA",
"- c #3B4BAC",
"; c #3E4EAD",
": c #3F4FAE",
"> c #4651A2",
", c #4453AF",
"< c #4755AD",
"1 c #4B5BB5",
"2 c #4F5DB4",
"3 c #4E5DB6",
"4 c #5362BA",
"5 c #5A69BE",
"6 c #5B6ABE",
"7 c #5C6BBF",
"8 c #6069AF",
"9 c #6C77BC",
"0 c #616FC1",
"q c #727EC4",
"w c #7A84C6",
"e c #7380C8",
"r c #848FCE",
"t c #8691CF",
"y c #8D96CE",
"u c #989ECB",
"i c #9FA6D1",
"p c #AFB4D6",
"a c #B3B8D9",
"s c #B1B8E0",
"d c #C2C8E7",
"f c #C6CBE8",
"g c #D4D7E9",
"h c #DEE1F2",
"j c #E5E7F3",
"k c #EEF0F7",
"l c #FCFCFD",
"z c #FDFDFE",
"x c #FEFEFE",
"c c None",
/* pixels */
"cccccccccccccccccccc",
"ccccccccc77ccccccccc",
"ccccccc77777cccccccc",
"cccccc77777777cccccc",
"cccc777tdhhdt777cccc",
"cc7770fxxxxxxf0771cc",
"cc777fxxxxxxxxf4:*cc",
"cc77txxzseeszjw***cc",
"cc77dxxs7775q;****cc",
"cc77hxxe773-******cc",
"cc77hxxe2#@&******cc",
"cc77dxxi   .9,****cc",
"cc77rxxlu>>ulky=**cc",
"cc6<oaxxxxxxxxaX%*cc",
"cc$  OaxxxxxxaO  +cc",
"cccc   8pggp8   cccc",
"cccccc        cccccc",
"cccccccc    cccccccc",
"ccccccccc  ccccccccc",
"cccccccccccccccccccc"
};
