/* XPM */
static char * cl_xpm[] = {
"23 16 257 2",
"  	c None",
". 	c #122C44",
"+ 	c #112B43",
"@ 	c #112B44",
"# 	c #132D45",
"$ 	c #132F48",
"% 	c #14304A",
"& 	c #133049",
"* 	c #132F49",
"= 	c #122C45",
"- 	c #122C46",
"; 	c #122D45",
"> 	c #132E46",
", 	c #14314C",
"' 	c #14324D",
") 	c #15334E",
"! 	c #15344F",
"~ 	c #14324E",
"{ 	c #15324D",
"] 	c #13304B",
"^ 	c #14304B",
"/ 	c #14314B",
"( 	c #112E49",
"_ 	c #244054",
": 	c #233F54",
"< 	c #12304D",
"[ 	c #103050",
"} 	c #0D2E4F",
"| 	c #123352",
"1 	c #183854",
"2 	c #214059",
"3 	c #163653",
"4 	c #163553",
"5 	c #163552",
"6 	c #153452",
"7 	c #1A3954",
"8 	c #4D686E",
"9 	c #6D857F",
"0 	c #203E56",
"a 	c #143350",
"b 	c #112F4B",
"c 	c #305065",
"d 	c #678280",
"e 	c #8AA291",
"f 	c #3F5E6D",
"g 	c #2E4E65",
"h 	c #678380",
"i 	c #41606D",
"j 	c #193C5A",
"k 	c #183A59",
"l 	c #183959",
"m 	c #173959",
"n 	c #163857",
"o 	c #143656",
"p 	c #163757",
"q 	c #123454",
"r 	c #91A894",
"s 	c #768F87",
"t 	c #1E3E5A",
"u 	c #163756",
"v 	c #173754",
"w 	c #6D8580",
"x 	c #B8CCAA",
"y 	c #CDE0B4",
"z 	c #99B19C",
"A 	c #D0E2B5",
"B 	c #38596D",
"C 	c #7F998F",
"D 	c #627F81",
"E 	c #173B5D",
"F 	c #193D5E",
"G 	c #1A3E5E",
"H 	c #1C405F",
"I 	c #33546A",
"J 	c #537179",
"K 	c #2E4F67",
"L 	c #A2B89F",
"M 	c #406070",
"N 	c #14395B",
"O 	c #183C5D",
"P 	c #193C5D",
"Q 	c #193C5C",
"R 	c #183958",
"S 	c #8CA595",
"T 	c #385B71",
"U 	c #A5BCA2",
"V 	c #C8DAB1",
"W 	c #D4E5B6",
"X 	c #4F6F7B",
"Y 	c #668384",
"Z 	c #5B797F",
"` 	c #1E4264",
" .	c #2C506A",
"..	c #55737C",
"+.	c #A5BBA1",
"@.	c #B4C9A8",
"#.	c #8CA697",
"$.	c #9AB29D",
"%.	c #B7CCA9",
"&.	c #506F7A",
"*.	c #153B5F",
"=.	c #1A3F61",
"-.	c #1A3F60",
";.	c #1A3E60",
">.	c #A7BDA2",
",.	c #466777",
"'.	c #32556E",
").	c #6A8787",
"!.	c #AAC0A4",
"~.	c #C9DCB2",
"{.	c #C3D7AF",
"].	c #77948D",
"^.	c #89A396",
"/.	c #B6CBAA",
"(.	c #B9CDAB",
"_.	c #75918C",
":.	c #53737E",
"<.	c #76928E",
"[.	c #3C5E73",
"}.	c #678486",
"|.	c #839D93",
"1.	c #31556D",
"2.	c #163C62",
"3.	c #1A4064",
"4.	c #1B4164",
"5.	c #A8BDA1",
"6.	c #839E94",
"7.	c #274C6A",
"8.	c #32566F",
"9.	c #30546D",
"0.	c #54747D",
"a.	c #7F9990",
"b.	c #95AD9A",
"c.	c #87A194",
"d.	c #5B7A80",
"e.	c #406275",
"f.	c #809B92",
"g.	c #CCDFB6",
"h.	c #CDE0B6",
"i.	c #4F6F7C",
"j.	c #7C9790",
"k.	c #A5BDA4",
"l.	c #77928E",
"m.	c #34566E",
"n.	c #173D62",
"o.	c #194063",
"p.	c #92A995",
"q.	c #D3E6B9",
"r.	c #BCD0AE",
"s.	c #C1D5B0",
"t.	c #A9BFA4",
"u.	c #4A6B79",
"v.	c #153C61",
"w.	c #1D4365",
"x.	c #31546D",
"y.	c #6B8988",
"z.	c #B5CAAA",
"A.	c #D3E5B8",
"B.	c #D6E8BA",
"C.	c #C8DCB4",
"D.	c #8FA899",
"E.	c #7E9A91",
"F.	c #A7BEA4",
"G.	c #C6DAB2",
"H.	c #9BB39E",
"I.	c #5F7E82",
"J.	c #3A5C71",
"K.	c #1C4264",
"L.	c #BCCFAB",
"M.	c #D2E4B7",
"N.	c #D1E3B6",
"O.	c #CCDEB4",
"P.	c #6E8A8A",
"Q.	c #718E8B",
"R.	c #A7BEA3",
"S.	c #D3E5B7",
"T.	c #C4D7B1",
"U.	c #CBDDB4",
"V.	c #D0E2B6",
"W.	c #D3E6B8",
"X.	c #D0E3B6",
"Y.	c #BED3AE",
"Z.	c #BFD2AE",
"`.	c #8DA492",
" +	c #C9DCB1",
".+	c #D0E1B4",
"++	c #CFE1B4",
"@+	c #93AB9A",
"#+	c #CDDFB3",
"$+	c #93AC99",
"%+	c #3D5F73",
"&+	c #9BB39D",
"*+	c #A1B8A0",
"=+	c #C2D6AE",
"-+	c #CFE1B5",
";+	c #CCDFB4",
">+	c #6F8C89",
",+	c #79958E",
"'+	c #698687",
")+	c #BED1AD",
"!+	c #D4E6B7",
"~+	c #ABC1A3",
"{+	c #94AA95",
"]+	c #C2D4AC",
"^+	c #CBDDB1",
"/+	c #6E8B89",
"(+	c #8CA695",
"_+	c #D9E8B7",
":+	c #617E82",
"<+	c #92AA98",
"[+	c #D1E3B4",
"}+	c #B5CAA7",
"|+	c #87A193",
"1+	c #B5CAA8",
"2+	c #96AE9A",
"3+	c #98B09C",
"4+	c #486878",
"5+	c #52717C",
"6+	c #738F8B",
"7+	c #59777C",
"8+	c #869E8E",
"9+	c #A7BC9F",
"0+	c #ADC2A3",
"a+	c #D5E5B4",
"b+	c #B8CBA8",
"c+	c #51717B",
"d+	c #BFD1AB",
"e+	c #CADCB0",
"f+	c #A4BA9F",
"g+	c #56757E",
"h+	c #9BB29B",
"i+	c #496A78",
"j+	c #3E6074",
"k+	c #A0B79E",
"l+	c #88A293",
"m+	c #99B09A",
"n+	c #708B87",
"o+	c #7A938A",
"p+	c #A6BB9E",
"q+	c #92AA97",
"r+	c #486877",
"s+	c #648183",
"t+	c #A0B69D",
"u+	c #5F7D81",
"v+	c #3D6072",
"w+	c #C6D8AD",
"x+	c #476776",
"y+	c #4B6C78",
"z+	c #4F6D76",
"A+	c #769089",
"B+	c #80998D",
"C+	c #819A8E",
"D+	c #95AC97",
"E+	c #8BA393",
"F+	c #A0B59B",
"G+	c #93AB96",
"H+	c #668282",
"              . . . . + @ + . #               ",
"          $ % & * * % = - . . ; > $           ",
"      , ' ) ! ~ { { ' , , ] ^ / ^ ( _ :       ",
"    < [ } | 1 2 3 4 4 3 5 5 5 6 7 8 9 0 a     ",
"  b c d e f g h i j k l m n o p q r s t u v   ",
"  w x y z A B C D E F G H I J K L M N O P Q R ",
"  S T U V W X Y Z `  ...+.@.#.$.%.&.*.=.=.-.;.",
"  >.,.'.).!.~.{.].^./.(._.:.<.[.}.|.1.2.3.4.4.",
"  5.6.7.8.9.0.a.b.c.d.e.f.g.h.i.j.k.l.m.n.n.o.",
"  p.q.r.s.t.u.v.w.x.y.z.A.B.C.D.E.F.G.H.I.J.K.",
"    L.A.M.N.O.P.Q.R./.M.M.M.S.T.U.M.V.W.X.Y.Z.",
"    `. +.+++@+_.#+$+%+&+#+*+=+-+;+>+,+'+)+!+~+",
"      {+]+^+/+(+_+:+<+[+}+|+1+2+3+4+5+6+z L.7+",
"        8+9+0+a+b+c+d+e+f+g+h+i+j+k+J.l+m+n+  ",
"            o+p+q+r+s+Y t+J.t+u+v+w+x+y+      ",
"                z+A+B+C+D+E+F+G+C+H+          "};
