/* XPM */
static char * coffee_xpm[] = {
"16 16 61 1",
" 	c None",
".	c #272737",
"+	c #1F1F2E",
"@	c #535363",
"#	c #393948",
"$	c #30303F",
"%	c #171726",
"&	c #616170",
"*	c #5B5B6A",
"=	c #242534",
"-	c #1D1D2D",
";	c #0F0F1F",
">	c #505060",
",	c #494959",
"'	c #414251",
")	c #383848",
"!	c #302F3F",
"~	c #282837",
"{	c #202130",
"]	c #1A1A29",
"^	c #141423",
"/	c #101020",
"(	c #0F0F1E",
"_	c #4E4E5D",
":	c #4B4B5A",
"<	c #454555",
"[	c #434352",
"}	c #40404F",
"|	c #3B3B49",
"1	c #353544",
"2	c #2E2E3D",
"3	c #272736",
"4	c #20202F",
"5	c #10101F",
"6	c #3A3A49",
"7	c #353644",
"8	c #323141",
"9	c #2D2D3C",
"0	c #262736",
"a	c #212130",
"b	c #1B1A2A",
"c	c #151625",
"d	c #111120",
"e	c #2D2D3D",
"f	c #2C2C3B",
"g	c #292938",
"h	c #252433",
"i	c #201F2F",
"j	c #161625",
"k	c #121120",
"l	c #262635",
"m	c #242433",
"n	c #1D1D2C",
"o	c #151524",
"p	c #121221",
"q	c #1E1D2D",
"r	c #191928",
"s	c #171625",
"t	c #141422",
"u	c #171727",
"v	c #131322",
"                ",
"                ",
"         .+     ",
"    @  #$  %    ",
" &*      =-   ;;",
"   >,')!~{]^/(  ",
" _:<         ;( ",
"  [}|1234]^5((( ",
" 6#7890abcd(((; ",
"$ efghi]jk((((  ",
"0l m4n]op((((;  ",
" q  rst/(((((   ",
"  u vd((((((    ",
"     ;(((((;    ",
"                ",
"                "};
