/* XPM */
static char * compile_xpm[] = {
"15 16 96 2",
"  	c None",
". 	c #795157",
"+ 	c #684758",
"@ 	c #66485A",
"# 	c #765057",
"$ 	c #9F664E",
"% 	c #D88443",
"& 	c #E58B40",
"* 	c #945F51",
"= 	c #9B6350",
"- 	c #B77349",
"; 	c #CA7D44",
"> 	c #D07F44",
", 	c #533C5E",
"' 	c #5F435C",
") 	c #CA7D46",
"! 	c #6F4D58",
"~ 	c #69475A",
"{ 	c #B4704A",
"] 	c #6B4B59",
"^ 	c #EB8E3E",
"/ 	c #FD983B",
"( 	c #6E4C59",
"_ 	c #AE6F4B",
": 	c #543D5F",
"< 	c #845755",
"[ 	c #C97B45",
"} 	c #583E5D",
"| 	c #E38A3F",
"1 	c #AD6E4C",
"2 	c #9C6350",
"3 	c #FF993A",
"4 	c #F4933C",
"5 	c #F2933D",
"6 	c #AF6E4B",
"7 	c #A1674E",
"8 	c #D98542",
"9 	c #E48A40",
"0 	c #8C5C51",
"a 	c #5C425C",
"b 	c #B1704A",
"c 	c #9B634F",
"d 	c #734E57",
"e 	c #895A52",
"f 	c #5F445C",
"g 	c #775058",
"h 	c #6D4B59",
"i 	c #8A5A52",
"j 	c #F3923C",
"k 	c #E88D3E",
"l 	c #A86A4C",
"m 	c #8B5A52",
"n 	c #F5933C",
"o 	c #FC973A",
"p 	c #E68C3F",
"q 	c #FB973B",
"r 	c #B67249",
"s 	c #5E425C",
"t 	c #AA6C4C",
"u 	c #966050",
"v 	c #724D57",
"w 	c #7C5355",
"x 	c #6B495A",
"y 	c #684959",
"z 	c #7A5156",
"A 	c #915E52",
"B 	c #EF903E",
"C 	c #E78C3F",
"D 	c #9E654E",
"E 	c #DA8442",
"F 	c #925F50",
"G 	c #66465A",
"H 	c #BE7547",
"I 	c #704E59",
"J 	c #ED8F3D",
"K 	c #724D59",
"L 	c #B5724A",
"M 	c #61455B",
"N 	c #C07848",
"O 	c #D18144",
"P 	c #4C3A60",
"Q 	c #5C415E",
"R 	c #CC7D45",
"S 	c #704C58",
"T 	c #BC7648",
"U 	c #835854",
"V 	c #C87B44",
"W 	c #4A3860",
"X 	c #5B415D",
"Y 	c #E18941",
"Z 	c #AD6C4C",
"` 	c #A2684F",
" .	c #8D5C51",
"..	c #885953",
"+.	c #755056",
"@.	c #6D4B58",
"                              ",
"                    . + @ #   ",
"                    $ % & *   ",
"        = -       ; > , ' ) ! ",
"  ~ { ] ^ / ( _ : < [   } | 1 ",
"  2 3 3 4 5 3 3 6   7 8 9 0   ",
"  a 3 b     c 3 d   e f g h   ",
"i j /         k j l           ",
"m n o         p q r           ",
"  s 3 t     u 3 v   w x y z   ",
"  A 3 3 B C 3 3 r   D E p F   ",
"  G H I J / K L M N O P Q R S ",
"        D T       U V W X Y Z ",
"                    ` E &  .  ",
"                    ..M +.@.  ",
"                              "};
