/* XPM */
static char * cpp_xpm[] = {
"16 16 30 1",
" 	c None",
".	c #3976BC",
"+	c #03599C",
"@	c #0165B3",
"#	c #5191E2",
"$	c #95B2E9",
"%	c #FEFEFE",
"&	c #FFFFFF",
"*	c #5191E3",
"=	c #28619E",
"-	c #FCFCFD",
";	c #0768B6",
">	c #5191E1",
",	c #5995E2",
"'	c #FBFBFD",
")	c #96B2E9",
"!	c #1B5D9D",
"~	c #FCFCFC",
"{	c #FDFDFE",
"]	c #085A9D",
"^	c #0A69B7",
"/	c #A9C5FD",
"(	c #29629F",
"_	c #FDFDFD",
":	c #AAC6FD",
"<	c #5593E3",
"[	c #065A9D",
"}	c #5995E3",
"|	c #5191E0",
"1	c #FCFCFE",
" .++++++++++++. ",
".++++++@@++++++.",
"+++++#$%%$#+++++",
"++++$%%%&%%$++++",
"+++$%%*==*&-;+++",
"++>%%#++*+,')*++",
"++)%*++!%!++!~!+",
"++{%*+!;%;]!^~;!",
"++-/(#__%_/:%__~",
"++-_<[!;_;+!^~;!",
"++){}[[!_![[!~!+",
"++|{_*[!*[*')*++",
"+++$-_*==*_~;+++",
"++++$-1__1-$++++",
".++++#$--$#++++.",
" .+++++@@+++++. "};
