/* XPM */
static char *cpp[] = {
/* columns rows colors chars-per-pixel */
"18 20 80 1 ",
"  c #004482",
". c #004483",
"X c #024684",
"o c #044784",
"O c #004A89",
"+ c #004A8A",
"@ c #074C8A",
"# c #15538C",
"$ c #18568E",
"% c #19568E",
"& c #005395",
"* c #005598",
"= c #005698",
"- c #00599C",
"; c #045C9D",
": c #055C9E",
"> c #175793",
", c #1D5D99",
"< c #1E5E9A",
"1 c #1164A3",
"2 c #1164A5",
"3 c #1365A6",
"4 c #1466A4",
"5 c #1F6DAC",
"6 c #2974AC",
"7 c #2B75AD",
"8 c #3F7BAC",
"9 c #4982BC",
"0 c #638DB3",
"q c #648DB3",
"w c #7197BA",
"e c #7297BA",
"r c #4988C3",
"t c #4A89C4",
"y c #548CC5",
"u c #568DC6",
"i c #5A93CB",
"p c #649AC7",
"a c #6C9FC6",
"s c #6499D1",
"d c #659AD2",
"f c #679BD3",
"g c #689CD3",
"h c #71A3C8",
"j c #6EA0D5",
"k c #72A3D6",
"l c #73A3D6",
"z c #75A4D7",
"x c #87AACC",
"c c #89B2D1",
"v c #8EB6D3",
"b c #8FB6D3",
"n c #9EBFE3",
"m c #BDCFDF",
"M c #BECFDF",
"N c #A7C5E5",
"B c #A8C6E6",
"V c #A9C7E6",
"C c #ADC9E7",
"Z c #C1D7E7",
"A c #CAD8E5",
"S c #CEDBE7",
"D c #CFDBE7",
"F c #C7DAE9",
"G c #D4E3F3",
"H c #D5E3F3",
"J c #DDE9F5",
"K c #DFEAF6",
"L c #E0EAF6",
"P c #E0EBF6",
"I c #E9EFF4",
"U c #ECF3F8",
"Y c #EFF4F9",
"T c #EEF4FA",
"R c #F9FAFC",
"E c #FAFCFE",
"W c #FBFCFE",
"Q c #FCFDFE",
"! c white",
"~ c None",
/* pixels */
"~~~~~~~~dd~~~~~~~~",
"~~~~~~dddddd~~~~~~",
"~~~~dddddddddd~~~~",
"~~dddddddddddddd~~",
"~ddddfnHTTGnfdddd~",
"ddddkJ!!!!!!Jlddt3",
"dddgL!!!!!!!!Pi5--",
"dddN!!QCzzCQYh:---",
"dddK!!Vdddsp4-----",
"dddE!!jddr2--cc6Z6",
"dddW!!ju<+=--vb7F7",
"dddP!!xX  .81-----",
"dddB!!Rw##eRUa;---",
"dd9>S!!!!!!!!D@&--",
"y,  $A!!!!!!A%  O*",
"~    oqMIIm0o    ~",
"~~              ~~",
"~~~~          ~~~~",
"~~~~~~      ~~~~~~",
"~~~~~~~~  ~~~~~~~~"
};
