/* XPM */
static char * csharp_xpm[] = {
"16 16 22 1",
" 	c None",
".	c #A464BA",
"+	c #68227A",
"@	c #C482DB",
"#	c #FEB8FF",
"$	c #FCFCFC",
"%	c #FDFDFD",
"&	c #FEFEFE",
"*	c #FAFAFB",
"=	c #7D4193",
"-	c #69237B",
";	c #A666BD",
">	c #A565BC",
",	c #7F4795",
"'	c #69247B",
")	c #FBFBFC",
"!	c #FAFAFA",
"~	c #FCFCFD",
"{	c #FBFBFB",
"]	c #C382DA",
"^	c #F9F9F9",
"/	c #FCFCFE",
" .++++++++++++. ",
".+++@#$%&&#@+++.",
"+++#*$#@@#&$#+++",
"++@*$#=+-+;;>+++",
"++#$#,++++=-'=++",
"-@)$@++++,!,,$,+",
"-#~#=+++={{%{${=",
"-#~]+++++,!,,&,+",
"-#~]+++++,!,,%,+",
"-#~#=+++=^!^^!^=",
"-@))@++++,{,,{,+",
"++#)#,++++=++=++",
"++@*)#=+++;;>+++",
"+++#*)#@@#/%#+++",
".+++@#$)~~#@+++.",
" .+++----+++++. "};
