/* XPM */
static char * csharp_xpm[] = {
"16 16 24 1",
" 	c None",
".	c #7B3B91",
"+	c #68227A",
"@	c #7B3990",
"#	c #A464BA",
"$	c #A464BB",
"%	c #FCFCFC",
"&	c #FDFDFD",
"*	c #FEFEFE",
"=	c #FAFAFB",
"-	c #A361BA",
";	c #FFFFFF",
">	c #69237B",
",	c #7F4795",
"'	c #7D4193",
")	c #FBFBFC",
"!	c #FAFAFA",
"~	c #FCFCFD",
"{	c #A567BC",
"]	c #FBFBFB",
"^	c #6B2C7C",
"/	c #F9F9F9",
"(	c #7F4695",
"_	c #FCFCFE",
" .++++++++++++@ ",
".++#$%&**$$++++@",
"++#=%*$-;*%>++++",
"+#=%,'+>.'$>++++",
"+$%,,+++++>+++++",
">)%'++++++$!$$%$",
">~{'++++++]]&]%]",
">~{++++++++!++*+",
">~$+++++++^!++&+",
">~{'++++++/!//!/",
">))'++++++$]$$]$",
"+$),,+++++++++++",
"+#=)('++.'$>++++",
"++#=)~$$&_&>++++",
"@++#$%)~~$$++++@",
" @+++>>>>+++++@ "};
