/* XPM */
static char *cs[] = {
/* columns rows colors chars-per-pixel */
"19 20 171 2 ",
"   c #280063",
".  c #290163",
"X  c #290262",
"o  c #290064",
"O  c #290164",
"+  c #290065",
"@  c #2A0065",
"#  c #2A0264",
"$  c #290066",
"%  c #2A0066",
"&  c #2A0067",
"*  c #2A0068",
"=  c #2B0068",
"-  c #2B0069",
";  c #2B006A",
":  c #2C0069",
">  c #2C006B",
",  c #2D026A",
"<  c #2C006C",
"1  c #2D006D",
"2  c #2E036C",
"3  c #2D006E",
"4  c #2D006F",
"5  c #2E0071",
"6  c #2E0171",
"7  c #2F0074",
"8  c #300076",
"9  c #320079",
"0  c #320179",
"q  c #310278",
"w  c #31007A",
"e  c #340278",
"r  c #32007C",
"t  c #32007D",
"y  c #33007F",
"u  c #3F1679",
"i  c #48227D",
"p  c #350281",
"a  c #340082",
"s  c #390087",
"d  c #390089",
"f  c #39008A",
"g  c #39008B",
"h  c #39008C",
"j  c #39008D",
"k  c #39008E",
"l  c #39008F",
"z  c #370091",
"x  c #390090",
"c  c #390091",
"v  c #390092",
"b  c #390093",
"n  c #390094",
"m  c #390095",
"M  c #390096",
"N  c #390097",
"B  c #390098",
"V  c #390099",
"C  c #410D8E",
"Z  c #48188F",
"A  c #4B1F8C",
"S  c #491C8E",
"D  c #40079F",
"F  c #431090",
"G  c #4B1898",
"H  c #4D238C",
"J  c #4A12A3",
"K  c #5727A9",
"L  c #5E30A5",
"P  c #683CA6",
"I  c #6235AD",
"U  c #6937AE",
"Y  c #663AAE",
"T  c #6637B2",
"R  c #663BB1",
"E  c #6E39B9",
"W  c #6D39BB",
"Q  c #684995",
"!  c #69479A",
"~  c #6C41AE",
"^  c #7251A2",
"/  c #7553A6",
"(  c #6F46B0",
")  c #7645B8",
"_  c #7A48BB",
"`  c #7D49C3",
"'  c #9172C7",
"]  c #9462D2",
"[  c #9565D3",
"{  c #9765D3",
"}  c #9667D3",
"|  c #9867D4",
" . c #9868D4",
".. c #9968D4",
"X. c #9868D5",
"o. c #9969D5",
"O. c #996AD5",
"+. c #996BD6",
"@. c #9A6BD6",
"#. c #9A6CD6",
"$. c #9B6DD7",
"%. c #9B6ED7",
"&. c #9C6ED6",
"*. c #9C6FD7",
"=. c #9C70D8",
"-. c #9D72D8",
";. c #9E72D9",
":. c #9E73D9",
">. c #9F74D9",
",. c #9F74DA",
"<. c #9F75DA",
"1. c #9F76DA",
"2. c #A076DA",
"3. c #A076DB",
"4. c #A077DB",
"5. c #A078DB",
"6. c #A178DB",
"7. c #A179DB",
"8. c #A37ADA",
"9. c #A17ADC",
"0. c #A27ADC",
"q. c #A27BDC",
"w. c #A27CDC",
"e. c #A37CDC",
"r. c #A27CDD",
"t. c #A27DDD",
"y. c #A37DDD",
"u. c #A37EDD",
"i. c #A18DBD",
"p. c #A18DBF",
"a. c #A681DD",
"s. c #A983D9",
"d. c #A881DC",
"f. c #A882DC",
"g. c #B09AD4",
"h. c #B3A3C9",
"j. c #B6A2D6",
"k. c #BFADDD",
"l. c #B594E1",
"z. c #BC9EE4",
"x. c #BDA0E5",
"c. c #C2B1DE",
"v. c #C2B1DF",
"b. c #C0A3E5",
"n. c #C5ACE7",
"m. c #CBB5EB",
"M. c #D1BDEC",
"N. c #D2BEEC",
"B. c #D3BFEC",
"V. c #D2C7E1",
"C. c #D3CAE0",
"Z. c #D3C0ED",
"A. c #D4C2EE",
"S. c #E1DAEB",
"D. c #E4DEEE",
"F. c #E5DFEF",
"G. c #E4D7F3",
"H. c #E2DAF0",
"J. c #E5D9F4",
"K. c #E5DAF5",
"L. c #E9DFF6",
"P. c #E7E2EE",
"I. c #F4EFFA",
"U. c #F9F7FC",
"Y. c #FBFAFD",
"T. c #FCFAFD",
"R. c #FCFBFE",
"E. c #FEFDFE",
"W. c #FFFEFF",
"Q. c #FFFFFF",
"!. c None",
/* pixels */
"!.!.!.!.!.!.!.!.!.!.!.!.!.!.!.!.!.!.!.",
"!.!.!.!.!.!.!.!.w.q.7.!.!.!.!.!.!.!.!.",
"!.!.!.!.!.!.t.r.0.6.3.,.:.!.!.!.!.!.!.",
"!.!.!.!.u.t.q.9.5.1.,.;.=.%.#.!.!.!.!.",
"!.!.!.u.w.q.7.a.x.n.z.8.%.#.O. .!.!.!.",
"!.u.y.r.0.e.A.R.Q.Q.Q.R.N.&.| { ] E !.",
"!.y.q.9.0.K.Q.Q.Q.Q.Q.Q.Q.J...` J N !.",
"!.q.7.4.m.Q.Q.R.Z.b.M.Y.Q.H.T B N m !.",
"!.7.3.<.I.Q.W.l.@.o.| s.' R I M n v !.",
"!.2.,.d.Q.Q.L.+.o.[ W D K v.k.b v x !.",
"!.>.-.f.Q.Q.G.X._ F z V Y c.g.c l j !.",
"!.-.*.*.U.Q.T.P y t w S ( ~ L k j g !.",
"!.*.$.+.B.Q.Q.D./ H ^ S.E.j.G h f d !.",
"!.#.} U Z F.Q.Q.Q.Q.Q.Q.Q.P.u 9 s s !.",
"!.) C a y A V.Q.Q.Q.Q.Q.C.i = $ * e !.",
"!.!.p y r w q ! p.h.i.Q , & +   X !.!.",
"!.!.!.!.0 8 7 5 4 1 > - & o . !.!.!.!.",
"!.!.!.!.!.!.6 3 < ; = % O !.!.!.!.!.!.",
"!.!.!.!.!.!.!.2 : & @ # !.!.!.!.!.!.!.",
"!.!.!.!.!.!.!.!.!.!.!.!.!.!.!.!.!.!.!."
};
