/* XPM */
static char * css_xpm[] = {
"16 16 72 1",
" 	c None",
".	c #264EE4",
"+	c #264DE4",
"@	c #2652E6",
"#	c #2756E9",
"$	c #2754E8",
"%	c #264DE5",
"&	c #2859EB",
"*	c #2965F1",
"=	c #285EED",
"-	c #7A90E7",
";	c #C4CBEA",
">	c #ADBFF3",
",	c #D4E0FC",
"'	c #82A5F7",
")	c #275CEC",
"!	c #254CE3",
"~	c #6D86E7",
"{	c #DEE7FD",
"]	c #FFFFFF",
"^	c #87A9F7",
"/	c #285AEB",
"(	c #264DE3",
"_	c #264CE4",
":	c #6792F5",
"<	c #739AF6",
"[	c #2757EA",
"}	c #4365E5",
"|	c #9CACE8",
"1	c #92AAF1",
"2	c #A9C1F9",
"3	c #C8D7FB",
"4	c #608DF5",
"5	c #2755E8",
"6	c #4869E6",
"7	c #EBEBEB",
"8	c #C5D1F5",
"9	c #4B7EF3",
"0	c #2653E7",
"a	c #284EE4",
"b	c #4D6DE5",
"c	c #3E60E5",
"d	c #A0BBF9",
"e	c #3870F2",
"f	c #2751E6",
"g	c #E8E8EB",
"h	c #A3B1E8",
"i	c #B3C9FA",
"j	c #FAFBFF",
"k	c #2A66F1",
"l	c #264FE5",
"m	c #D8DCEA",
"n	c #E5E6EB",
"o	c #B5BFE9",
"p	c #86A1F0",
"q	c #C4D5FB",
"r	c #F8FAFF",
"s	c #E7EEFD",
"t	c #2965F0",
"u	c #6983E6",
"v	c #A7B5E9",
"w	c #DCDFEB",
"x	c #EDF2FE",
"y	c #B5CAFA",
"z	c #7199F6",
"A	c #2862F0",
"B	c #426DEC",
"C	c #2B66F1",
"D	c #2964F1",
"E	c #285DEC",
"F	c #285BEC",
"G	c #264EE5",
"                ",
"                ",
"  .+++++@####$+ ",
"  %+++++&****=+ ",
"  ++-;;;>,,,')+ ",
"  !+~;;;>,{]^/( ",
"  _+++++&*:]<[+ ",
"   +}|||123]45  ",
"   +67778]]]90  ",
"   +abc+&*d]ef  ",
"   +agh+&*ijkl  ",
"   ++mnopqrst+  ",
"   ++uvw8xyzA+  ",
"   .+++aBC*DE+  ",
"   (++++[F$.+(  ",
"       G++      "};
