/* XPM */
static char * css_xpm[] = {
"16 16 58 1",
" 	c None",
".	c #264DE4",
"+	c #2861EE",
"@	c #285AEB",
"#	c #254CE4",
"$	c #2865F1",
"%	c #2965F1",
"&	c #285CEC",
"*	c #9BA2E7",
"=	c #EBEBEB",
"-	c #FFFFFF",
";	c #A3B1F6",
">	c #6D7CE5",
",	c #D1D3E9",
"'	c #E3E7FC",
")	c #F4F6FE",
"!	c #8096F4",
"~	c #2757E9",
"{	c #CDD3FA",
"]	c #7D94F4",
"^	c #234CE4",
"/	c #9DA4E7",
"(	c #ABB7F7",
"_	c #E5E8FC",
":	c #356BF1",
"<	c #2753E7",
"[	c #2752E7",
"}	c #828FE6",
"|	c #838FE6",
"1	c #8EA3F5",
"2	c #F2F4FE",
"3	c #EEF1FD",
"4	c #264EE4",
"5	c #C2C5E9",
"6	c #D5D6EA",
"7	c #FEFFFF",
"8	c #E8EAFC",
"9	c #D0D2E9",
"0	c #8993E6",
"a	c #415CE4",
"b	c #4973F2",
"c	c #95A6F5",
"d	c #DBE0FB",
"e	c #2962EF",
"f	c #BDC0E8",
"g	c #E9E9EB",
"h	c #FDFEFF",
"i	c #284EE4",
"j	c #8690E6",
"k	c #B0B5E8",
"l	c #D7D9EA",
"m	c #E8EBFC",
"n	c #BFC8F8",
"o	c #90A2F5",
"p	c #285FEE",
"q	c #285EED",
"r	c #2756E9",
"s	c #264FE5",
" .............. ",
" .......+++++@. ",
" ...####$$$$%&. ",
" ..*====----;@. ",
" ..>,,,,'')-!~. ",
" .......%%{-]~. ",
"  .^////((_-:<  ",
"  ..====----%[  ",
"  ..}|||1123%4  ",
"  ..56..%%78%.  ",
"  ..9=0abc-de.  ",
"  ..f==gh--{+.  ",
"  ..ijklmno%p.  ",
"  ......%%%+~.  ",
"   .....qrs..   ",
"      ....      "};
