/* XPM */
static char * dart_xpm[] = {
"16 16 48 1",
" 	c None",
".	c #39C0FF",
"+	c #3CC2FF",
"@	c #3AC1FF",
"#	c #3AC0FF",
"$	c #3FC3FF",
"%	c #41C4FF",
"&	c #2A97D6",
"*	c #37ABE6",
"=	c #39ADE7",
"-	c #32A6E2",
";	c #2A8CC6",
">	c #1D94D3",
",	c #02589C",
"'	c #03589C",
")	c #02589B",
"!	c #02599C",
"~	c #207BB7",
"{	c #2AB6F6",
"]	c #1E95D3",
"^	c #03599C",
"/	c #04599C",
"(	c #01589B",
"_	c #1F7AB6",
":	c #2BB7F6",
"<	c #1F95D3",
"[	c #2CB7F6",
"}	c #055A9D",
"|	c #015699",
"1	c #01579B",
"2	c #207AB6",
"3	c #2096D4",
"4	c #065A9D",
"5	c #015698",
"6	c #2DB7F6",
"7	c #015598",
"8	c #257EB9",
"9	c #2BB6F6",
"0	c #28B4F5",
"a	c #1E94D3",
"b	c #02589A",
"c	c #01579A",
"d	c #025597",
"e	c #3BC0FE",
"f	c #3FC3FE",
"g	c #40C3FE",
"h	c #3DC2FF",
"i	c #40C4FF",
"       .+@      ",
"     #$%%%+     ",
"   &*======-    ",
"  ;>,'''''')!   ",
"  ~{]^////''))  ",
" (_::</////'')) ",
" )_:[[<}}}//'))|",
"1)2:[[[34}//'')5",
"1)2:[[[63}//'')5",
"1)_:[[[[[<//'))7",
" )_::[[[[[<^'))7",
"  89::[[[[:]^)17",
"   0{::::::{abcd",
"    efgggggff   ",
"     h%%%%%ii   ",
"      +$$$$$$   "};
