/* XPM */
static char * dim_xpm[] = {
"15 16 48 1",
" 	c None",
".	c #060606",
"+	c #000000",
"@	c #050505",
"#	c #020202",
"$	c #595959",
"%	c #868686",
"&	c #787878",
"*	c #4F4F4F",
"=	c #282828",
"-	c #CCCCCC",
";	c #8C8C8C",
">	c #404040",
",	c #FFFFFF",
"'	c #F9F9F9",
")	c #D6D6D6",
"!	c #262626",
"~	c #DADADA",
"{	c #272727",
"]	c #FEFEFE",
"^	c #2C2C2C",
"/	c #282827",
"(	c #010101",
"_	c #D2D2D2",
":	c #040404",
"<	c #5A5A5A",
"[	c #F3F3F3",
"}	c #525252",
"|	c #474747",
"1	c #FBFBFB",
"2	c #747474",
"3	c #878787",
"4	c #757575",
"5	c #585858",
"6	c #8D8D8D",
"7	c #505050",
"8	c #D0D0D0",
"9	c #252525",
"0	c #D4D4D4",
"a	c #DDDDDD",
"b	c #222222",
"c	c #2E2E2E",
"d	c #C9C9C9",
"e	c #818181",
"f	c #3C3C3C",
"g	c #F4F4F4",
"h	c #5C5C5C",
"i	c #838383",
"               ",
"     . ++ @    ",
"     #$%&*+    ",
"   +=-;>,')!+  ",
"   =~{++,,,]^  ",
" .#-/+(+,,,,_:@",
"  <;+((+,,,,[} ",
" +%|+(#+,,,,12+",
" +3|+##+,,,,14+",
"  56+#(+,,,,[7 ",
" @+89+#+,,,,0#@",
"   {ab++,,,,^  ",
"   +cdef,g0^+  ",
"     @hi27#    ",
"     @ ++ @    ",
"               "};
