/* XPM */
static char * e_palm_tree_xpm[] = {
"22 22 58 1",
" 	c None",
".	c #75A843",
"+	c #7DB54A",
"@	c #78AD46",
"#	c #75A943",
"$	c #83BF4F",
"%	c #82BE4E",
"&	c #7FB84C",
"*	c #76AA44",
"=	c #7FB84B",
"-	c #82BD4E",
";	c #7BB248",
">	c #80BA4D",
",	c #83BE4F",
"'	c #7DB549",
")	c #76AA43",
"!	c #78AA46",
"~	c #7FB44E",
"{	c #83AA55",
"]	c #7F9157",
"^	c #798154",
"/	c #757555",
"(	c #7EA551",
"_	c #83C04F",
":	c #83B353",
"<	c #847C63",
"[	c #847167",
"}	c #7C6A5F",
"|	c #716156",
"1	c #7C9852",
"2	c #83AD55",
"3	c #847665",
"4	c #847166",
"5	c #76655A",
"6	c #6C624F",
"7	c #7FAC4F",
"8	c #8A705A",
"9	c #77604E",
"0	c #69584B",
"a	c #8E6C4E",
"b	c #84654A",
"c	c #7E6147",
"d	c #7D6046",
"e	c #87674A",
"f	c #906E4F",
"g	c #916F50",
"h	c #836449",
"i	c #826348",
"j	c #8C6B4D",
"k	c #86664A",
"l	c #88674B",
"m	c #8B6A4C",
"n	c #846549",
"o	c #8C6A4D",
"p	c #8D6B4D",
"q	c #87674B",
"r	c #816248",
"s	c #947151",
"                      ",
"              ..      ",
"    ...      ....     ",
"   .....    ....      ",
"    .....   ...       ",
"    +@#... ....  $$   ",
"  $$$%&@.. ..*=$$$$$$ ",
" $$$$$$-;#..@>$$$$$$$ ",
"  $$$$$$,')!~$$$$$    ",
"      $$${]^/(_$      ",
"     $$_:<[}|1_$$$    ",
"    $$$_234567_$$$    ",
"   $$$$$  890  $$$    ",
"    $$    abc    $    ",
"          def         ",
"          gah         ",
"           ijg        ",
"           ajh        ",
"           klm        ",
"           nmo        ",
"           apqn       ",
"            ras       "};
