/* XPM */
static char *elixir[] = {
/* columns rows colors chars-per-pixel */
"16 16 104 2 ",
"   c #471F5B",
".  c #48215B",
"X  c #4D295F",
"o  c #4E2A5F",
"O  c #4D2361",
"+  c #4E2961",
"@  c #4F2C60",
"#  c #532C66",
"$  c #503060",
"%  c #543462",
"&  c #543762",
"*  c #543264",
"=  c #583667",
"-  c #563864",
";  c #593A67",
":  c #573369",
">  c #583669",
",  c #59326D",
"<  c #5D3F6B",
"1  c #5B3371",
"2  c #5F3D70",
"3  c #5C4167",
"4  c #5F426C",
"5  c #5F416E",
"6  c #61446F",
"7  c #644C6E",
"8  c #644572",
"9  c #654873",
"0  c #654E70",
"q  c #674F72",
"w  c #674875",
"e  c #684A77",
"r  c #684C76",
"t  c #66407A",
"y  c #6A4C78",
"u  c #6D4F7B",
"i  c #6C4D7C",
"p  c #6F4F7F",
"a  c #6E5578",
"s  c #6E557A",
"d  c #6E5878",
"f  c #71577D",
"g  c #725C7B",
"h  c #71587D",
"j  c #745C7F",
"k  c #745D7F",
"l  c #755E7F",
"z  c #735581",
"x  c #735681",
"c  c #735184",
"v  c #765587",
"b  c #735980",
"n  c #755D80",
"m  c #765C83",
"M  c #775B84",
"N  c #795B87",
"B  c #785E84",
"V  c #7A5F87",
"C  c #78548B",
"Z  c #7A588B",
"A  c #7B5F88",
"S  c #786381",
"D  c #7A6087",
"F  c #7D628A",
"G  c #7C6488",
"H  c #7E6888",
"J  c #806A89",
"K  c #836F8B",
"L  c #83708B",
"P  c #88778E",
"I  c #867A8A",
"U  c #826490",
"Y  c #846594",
"T  c #886D96",
"R  c #896999",
"E  c #8A7396",
"W  c #8B7297",
"Q  c #8B7496",
"!  c #8B7B91",
"~  c #8E729B",
"^  c #9070A1",
"/  c #9575A5",
"(  c #8F8493",
")  c #908494",
"_  c #9A89A2",
"`  c #9C8AA5",
"'  c #A091A6",
"]  c #A59CA8",
"[  c #A389B1",
"{  c #A993B4",
"}  c #AAA2AD",
"|  c #ABA1AE",
" . c #ADA6AF",
".. c #ACA0B1",
"X. c #AFA8B1",
"o. c #B2A2BA",
"O. c #B7AEBA",
"+. c #B9A7C3",
"@. c #BFB2C4",
"#. c #C5B5CD",
"$. c #C4BAC9",
"%. c #D2C7D7",
"&. c #D9D4DB",
"*. c None",
/* pixels */
"*.*.*.*.*.*.*.*./ *.*.*.*.*.*.*.",
"*.*.*.*.*.*.*.1 Y *.*.*.*.*.*.*.",
"*.*.*.*.*.*.# O c *.*.*.*.*.*.*.",
"*.*.*.*.*.G @   t *.*.*.*.*.*.*.",
"*.*.*.*.*.h $ . , ~ *.*.*.*.*.*.",
"*.*.*.*.` 9 - X : p *.*.*.*.*.*.",
"*.*.*.*.Q > < * 8 2 A *.*.*.*.*.",
"*.*.*.*.F + 5 4 s y i F *.*.*.*.",
"*.*.*.W M o = a S n m x e *.*.*.",
"*.*.*.U V ; % g P K H B w *.*.*.",
"*.*.*.Z N r & 7 ! L k b u *.*.*.",
"*.*.*.C v z 6 3 q j f M D *.*.*.",
"*.*.*.*.R T E l 0 d J _ ' *.*.*.",
"*.*.*.*.^ { o...) I ( } | *.*.*.",
"*.*.*.*.*.[ +.@.O.] X. .*.*.*.*.",
"*.*.*.*.*.*.#.%.$.&.*.*.*.*.*.*."
};
