/* XPM */
static char * emacs_xpm[] = {
"16 16 170 2",
"  	c None",
". 	c #5551AB",
"+ 	c #5652AB",
"@ 	c #5853AC",
"# 	c #504CA8",
"$ 	c #4C47A7",
"% 	c #5752AA",
"& 	c #534FA8",
"* 	c #5652A8",
"= 	c #6460AF",
"- 	c #6E6BB5",
"; 	c #8380BF",
"> 	c #928FC7",
", 	c #9794CA",
"' 	c #8784C3",
") 	c #5A55AE",
"! 	c #5753AA",
"~ 	c #6D6AB3",
"{ 	c #9593C8",
"] 	c #9D9BCC",
"^ 	c #9895CA",
"/ 	c #9A97CB",
"( 	c #A2A0CF",
"_ 	c #BBB9DB",
": 	c #F4F4F8",
"< 	c #D1D0E8",
"[ 	c #5E59AF",
"} 	c #5854A9",
"| 	c #5954A9",
"1 	c #5955A9",
"2 	c #BCBADC",
"3 	c #F6F5FA",
"4 	c #EFEEF7",
"5 	c #F0F0F7",
"6 	c #E9E8F4",
"7 	c #DFDFEE",
"8 	c #D8D8EB",
"9 	c #F2F2F9",
"0 	c #FAFAFD",
"a 	c #7B77BB",
"b 	c #4F4BA7",
"c 	c #5A57AA",
"d 	c #6461AF",
"e 	c #A19FCE",
"f 	c #F0F0F8",
"g 	c #E3E3F1",
"h 	c #B9B8DA",
"i 	c #B9B8DB",
"j 	c #BCBBDC",
"k 	c #C3C2E0",
"l 	c #CBCAE5",
"m 	c #AAA8D3",
"n 	c #5F5BAC",
"o 	c #5651A8",
"p 	c #5955AA",
"q 	c #5956AA",
"r 	c #5C59AB",
"s 	c #6B68B3",
"t 	c #7C7ABB",
"u 	c #B8B7DB",
"v 	c #EBEAF5",
"w 	c #B1B0D7",
"x 	c #908EC6",
"y 	c #908DC5",
"z 	c #8581C0",
"A 	c #726FB6",
"B 	c #5E5BAC",
"C 	c #5B56AA",
"D 	c #5B57AB",
"E 	c #5653A8",
"F 	c #7574B8",
"G 	c #8280BE",
"H 	c #B0AED7",
"I 	c #E1E1EF",
"J 	c #BDBBDD",
"K 	c #8481BF",
"L 	c #7571B7",
"M 	c #6A68B2",
"N 	c #625FAD",
"O 	c #5C58AB",
"P 	c #5B57AA",
"Q 	c #7A78BB",
"R 	c #ADACD5",
"S 	c #C8C7E3",
"T 	c #D4D3E9",
"U 	c #D0CFE7",
"V 	c #D5D5EA",
"W 	c #ECEDF6",
"X 	c #7B79BB",
"Y 	c #6664B0",
"Z 	c #625FAE",
"` 	c #5551A7",
" .	c #918EC7",
"..	c #F3F3FA",
"+.	c #F5F4FA",
"@.	c #F4F3F9",
"#.	c #E7E6F3",
"$.	c #C7C7E2",
"%.	c #B2B0D7",
"&.	c #B3B2D8",
"*.	c #9593C9",
"=.	c #6663AF",
"-.	c #5F5DAD",
";.	c #5B59AB",
">.	c #534FA6",
",.	c #F4F3FA",
"'.	c #C9C8E4",
").	c #7675B9",
"!.	c #6C6AB3",
"~.	c #706EB5",
"{.	c #716FB6",
"].	c #6E6CB4",
"^.	c #6968B1",
"/.	c #6462AF",
"(.	c #5B58AB",
"_.	c #5A56AA",
":.	c #5855A9",
"<.	c #6D6BB4",
"[.	c #D1D0E7",
"}.	c #F2F1F8",
"|.	c #B7B6DA",
"1.	c #6765B0",
"2.	c #6F6EB5",
"3.	c #7B7ABB",
"4.	c #807EBE",
"5.	c #807EBD",
"6.	c #7876B9",
"7.	c #615EAE",
"8.	c #5754A8",
"9.	c #6A67B2",
"0.	c #B4B3D8",
"a.	c #EAEAF4",
"b.	c #DADAEC",
"c.	c #B0B0D6",
"d.	c #9998CB",
"e.	c #8988C2",
"f.	c #7F7EBD",
"g.	c #7978BA",
"h.	c #7472B8",
"i.	c #6B68B2",
"j.	c #5D5AAC",
"k.	c #5755A8",
"l.	c #8A88C2",
"m.	c #C9C7E3",
"n.	c #E4E4F2",
"o.	c #EAE9F4",
"p.	c #E0E0EF",
"q.	c #CECEE6",
"r.	c #AFAED6",
"s.	c #8A89C3",
"t.	c #6865B1",
"u.	c #615FAE",
"v.	c #918FC6",
"w.	c #AAA9D4",
"x.	c #B9B8DC",
"y.	c #CDCCE5",
"z.	c #F5F5FA",
"A.	c #FFFFFF",
"B.	c #E7E7F3",
"C.	c #706DB5",
"D.	c #7E7CBC",
"E.	c #908FC5",
"F.	c #9C9BCC",
"G.	c #A2A1CF",
"H.	c #A09ECE",
"I.	c #9390C6",
"J.	c #7977BA",
"K.	c #5D59AB",
"L.	c #5552A8",
"M.	c #5451A7",
"          . + @ . # $           ",
"      % & * = - ; > , ' )       ",
"    ! * ~ { ] ^ / ( _ : < [     ",
"  } | 1 2 3 4 5 6 7 8 9 0 a b   ",
"  } c d e f g h i j k l m n o   ",
"p q r s t u v w x y z A B C 1 ! ",
"q D E B F G H I J K L M N O q } ",
"P * Q R S T U V W S X Y Z r c 1 ",
"`  ...+.@.#.$.u %.&.*.=.-.;.P p ",
">.&.,.f '.).!.~.{.].^./.B r (._.",
":.<.[.}.|.1.2.3.4.5.6.<.7.r (._.",
"  8.9.0.a.b.c.d.e.f.g.h.i.j.c   ",
"  j.q k.l.m.n.o.p.q.r.s.t.r D   ",
"    r u.h.v.w.x.y.z.A.B.C.}     ",
"      B !.D.E.F.G.H.I.J.K.      ",
"          :.8.8.8.L.M.          "};
