/* XPM */
static char *uhq3t_9aeym[] = {
/* columns rows colors chars-per-pixel */
"18 18 116 2 ",
"   c #19181D",
".  c #19181E",
"X  c #1A191E",
"o  c #1A1A1E",
"O  c #1B1B1F",
"+  c #1C1B1F",
"@  c #1C1C1F",
"#  c #1B1920",
"$  c #1B1A20",
"%  c #1B1B20",
"&  c #1C1B20",
"*  c #1C1C20",
"=  c #1D1D20",
"-  c #1C1C21",
";  c #1D1D21",
":  c #1D1E20",
">  c #1E1E22",
",  c #1E1F22",
"<  c #1E1E23",
"1  c #1F1F23",
"2  c #1E2020",
"3  c #1F2220",
"4  c #1F2023",
"5  c #1F2024",
"6  c #202320",
"7  c #212520",
"8  c #222721",
"9  c #202025",
"0  c #202125",
"q  c #222226",
"w  c #222327",
"e  c #232626",
"r  c #232922",
"t  c #242A20",
"y  c #242A21",
"u  c #252C21",
"i  c #262E21",
"p  c #232328",
"a  c #242429",
"s  c #24252A",
"d  c #25252B",
"f  c #25262B",
"g  c #27272C",
"h  c #28282D",
"j  c #29292E",
"k  c #292A2F",
"l  c #293322",
"z  c #293422",
"x  c #2A3622",
"c  c #2D3B22",
"v  c #2F3E22",
"b  c #2B312D",
"n  c #2B322D",
"m  c #2B2C31",
"M  c #2C2C32",
"N  c #2D2E34",
"B  c #2E3530",
"V  c #2F3036",
"C  c #303137",
"Z  c #313238",
"A  c #313339",
"S  c #33343A",
"D  c #34363C",
"F  c #35363C",
"G  c #36373D",
"H  c #314323",
"J  c #344823",
"K  c #354923",
"L  c #364B23",
"P  c #395124",
"I  c #3B5324",
"U  c #3C5624",
"Y  c #3A463B",
"T  c #3D4A3D",
"R  c #3E4C3E",
"E  c #404F3F",
"W  c #476A26",
"Q  c #496D26",
"!  c #4D7526",
"~  c #517B27",
"^  c #517C27",
"/  c #537F27",
"(  c #383940",
")  c #383A40",
"_  c #393A41",
"`  c #393B42",
"'  c #3A3B42",
"]  c #3A3C42",
"[  c #3A3C43",
"{  c #3B3C43",
"}  c #3B3D44",
"|  c #3C3E44",
" . c #3C3E45",
".. c #3D3E45",
"X. c #3D3F46",
"o. c #3E3F46",
"O. c #475845",
"+. c #475946",
"@. c #5C7658",
"#. c #558327",
"$. c #5B8D28",
"%. c #5C8F28",
"&. c #5E9329",
"*. c #619929",
"=. c #629B29",
"-. c #639B29",
";. c #639C29",
":. c #66A12A",
">. c #6CAC2B",
",. c #70B32B",
"<. c #75BD2C",
"1. c #6D8F67",
"2. c #89B57F",
"3. c #94C689",
"4. c #98CB8C",
"5. c #AFECA1",
/* pixels */
" . .|  .....X...} } X... . ... . ...",
" . .|  ...` C h a s k S } ........X.",
" . . ...F a - O @ + O ; g ( X. . ...",
".. ...F 0 + * * * * O X o a ) o.X...",
" . .] a O * & % * , n O.R O j | ....",
" . .V * # % 8 u e 1.4.5.@.. > D X.| ",
"| } d 6 I ^ -.#.r T +.3.E X @ m  .} ",
" ._ 9 7 $.,.P y *   B 2.b O O f | } ",
"X.( 1 $ i &.! x v : 4 Y 4 * * p [ | ",
"X.) 5 * $ z ;.<./ * J t % * @ a { } ",
"..[ w * * $ c >.~ 2 %.K # * O h  .} ",
" . .k O * * $ H :.Q =.l % * * V .. .",
" . .F < * * * $ L ,.*.3 * * q _  . .",
".... .M * * * * % U W & * ; C X. . .",
" .X.X.[ j - * * * = 6 O > N | ..X. .",
"X...X.X.} V w ; * * > s S  .X... ...",
"....X..... .' D Z A G } .. ...X... .",
" ..... . ...X.X.X.X.o.X. . . . ... ."
};
