/* XPM */
static char * emoji_xpm[] = {
"16 16 232 2",
"  	c None",
". 	c #EEEEE8",
"+ 	c #F9F8E8",
"@ 	c #D8FFFF",
"# 	c #EBF0F6",
"$ 	c #EFE0D6",
"% 	c #EEDED2",
"& 	c #E8E9F1",
"* 	c #C9FCFF",
"= 	c #FFF9FC",
"- 	c #DEDFDF",
"; 	c #FFFFFF",
"> 	c #E8F2F3",
", 	c #D5FFFF",
"' 	c #F0E4D4",
") 	c #F5C584",
"! 	c #F9BD63",
"~ 	c #F9BE63",
"{ 	c #F4C280",
"] 	c #EADBCD",
"^ 	c #BBF7FF",
"/ 	c #D4DDE5",
"( 	c #E7F1F5",
"_ 	c #E0FFFF",
": 	c #F3D5B2",
"< 	c #FCCE7B",
"[ 	c #FEE7B5",
"} 	c #FFF0C9",
"| 	c #FFF0CA",
"1 	c #FEE8B8",
"2 	c #FDCF7D",
"3 	c #EFCFA9",
"4 	c #C5E5FF",
"5 	c #D7DAE4",
"6 	c #B5FFFF",
"7 	c #F3D8BA",
"8 	c #FDDD91",
"9 	c #FFF0C2",
"0 	c #FFEAB5",
"a 	c #FFE8B1",
"b 	c #FFE8B1",
"c 	c #FFEAB5",
"d 	c #FFEFC2",
"e 	c #FDDE95",
"f 	c #EDD0AE",
"g 	c #99E2FF",
"h 	c #EFEBEE",
"i 	c #FDCB5A",
"j 	c #FFD876",
"k 	c #FFD87B",
"l 	c #FFD877",
"m 	c #FDCD5F",
"n 	c #E1DAD6",
"o 	c #82FFFF",
"p 	c #F2CB9E",
"q 	c #FED44F",
"r 	c #DBAF4A",
"s 	c #DAAE4B",
"t 	c #FBD251",
"u 	c #ECC491",
"v 	c #7ED6FF",
"w 	c #DEFBFF",
"x 	c #F4BE73",
"y 	c #BF8E36",
"z 	c #C99534",
"A 	c #CF9A34",
"B 	c #BC8B37",
"C 	c #FCB122",
"D 	c #C0CFF1",
"E 	c #DFE6FF",
"F 	c #F3AE25",
"G 	c #C69736",
"H 	c #C29636",
"I 	c #F0AD27",
"J 	c #C6C8D6",
"K 	c #D6E0FF",
"L 	c #EABB30",
"M 	c #8AB1A8",
"N 	c #80AEAF",
"O 	c #E6BB35",
"P 	c #BEC2D7",
"Q 	c #FFFDFF",
"R 	c #CDC096",
"S 	c #C0EEFF",
"T 	c #C2EEFF",
"U 	c #C3BB96",
"V 	c #D3C5D4",
"W 	c #FFFFE4",
"X 	c #79B7DF",
"Y 	c #97D5F8",
"Z 	c #C5EEFF",
"` 	c #B2A5A2",
" .	c #BCB0AD",
"..	c #6D92B0",
"+.	c #BCE8FF",
"@.	c #A3DBFA",
"#.	c #E6D0C2",
"$.	c #FFFFEB",
"%.	c #96B3CA",
"&.	c #67BCEA",
"*.	c #7F7F5B",
"=.	c #8D5628",
"-.	c #8E592B",
";.	c #83794F",
">.	c #65B9E5",
",.	c #8DADC5",
"'.	c #CEBCAE",
").	c #CCC2BC",
"!.	c #869DB8",
"~.	c #FDDD1E",
"{.	c #D5AE2D",
"].	c #B3782B",
"^.	c #B27228",
"/.	c #B27227",
"(.	c #B2772A",
"_.	c #CFA82E",
":.	c #FFDF1E",
"<.	c #8199B4",
"[.	c #B2AEAB",
"}.	c #E4D1C4",
"|.	c #8FFF00",
"1.	c #FFD4A0",
"2.	c #E1CAB6",
"3.	c #FED836",
"4.	c #F7D427",
"5.	c #F5D327",
"6.	c #FFD934",
"7.	c #D4BFA8",
"8.	c #A4776B",
"9.	c #B7A396",
"0.	c #C5D0E0",
"a.	c #DCD4BE",
"b.	c #AFB6DF",
"c.	c #CFB9A5",
"d.	c #E1C27D",
"e.	c #EAC96C",
"f.	c #EAC96C",
"g.	c #E2C27B",
"h.	c #CCB69E",
"i.	c #A3A6CA",
"j.	c #FFFFB3",
"k.	c #C2D0DD",
"l.	c #000000",
"m.	c #FFFFFF",
"n.	c #A19EA2",
"o.	c #E6E4D9",
"p.	c #FFFFFD",
"q.	c #5F87FF",
"r.	c #8F9BE5",
"s.	c #8D99DE",
"t.	c #5C7DF5",
"u.	c #0000FF",
"v.	c #E0E1E9",
"w.	c #9B9999",
"x.	c #F7BC66",
"y.	c #F8BC63",
"z.	c #F7B655",
"A.	c #F9B651",
"B.	c #F9B040",
"C.	c #FAB03B",
"D.	c #F6B351",
"E.	c #FFE58A",
"F.	c #FFD97B",
"G.	c #FFD97B",
"H.	c #FFD87B",
"I.	c #FFE488",
"J.	c #F8B149",
"K.	c #FCB029",
"L.	c #F4C84F",
"M.	c #FFCF4A",
"N.	c #FECE4B",
"O.	c #FECE4B",
"P.	c #FFCE4A",
"Q.	c #F7CA4F",
"R.	c #FDB327",
"S.	c #FFB220",
"T.	c #F9B934",
"U.	c #FFBF2E",
"V.	c #FCB92E",
"W.	c #FCB82E",
"X.	c #FFBF2E",
"Y.	c #FABA32",
"Z.	c #F3BB6A",
"`.	c #F6BE64",
" +	c #907B46",
".+	c #926426",
"++	c #AD7A28",
"@+	c #F6B432",
"#+	c #FBB732",
"$+	c #B27F2A",
"%+	c #936525",
"&+	c #8D7845",
"*+	c #F7BD5E",
"=+	c #F8C161",
"-+	c #59869D",
";+	c #E8B120",
">+	c #E2B32C",
",+	c #F7C42F",
"'+	c #FAC72F",
")+	c #DFB32C",
"!+	c #EDB51D",
"~+	c #5F8692",
"{+	c #F8C05A",
"]+	c #78B1C0",
"^+	c #91B6C0",
"/+	c #B8955C",
"(+	c #CAA254",
"_+	c #C79F4A",
":+	c #C79F4A",
"<+	c #CBA353",
"[+	c #BE975C",
"}+	c #8FAFB7",
"|+	c #79B5C9",
"1+	c #6B95B6",
"2+	c #CDCED7",
"3+	c #DFE0E9",
"4+	c #E4E4EE",
"5+	c #D5D7E0",
"6+	c #73B5E0",
"7+	c #71B0D8",
"8+	c #8B410C",
"9+	c #936334",
"0+	c #946336",
"a+	c #89410E",
"b+	c #73B3DD",
"c+	c #AAA272",
"d+	c #B2A66A",
"e+	c #E8C572",
"f+	c #EBC725",
"g+	c #EBC625",
"h+	c #E9C56C",
"i+	c #FFFFFF",
"                                ",
"        ' ) x.! ~ y.{ ]         ",
"      : z.< [ } | 1 2 A.3       ",
"    7 B.8 9 0 a b c d e C.f     ",
"    D.i E.j k F.G.H.l I.m J.n   ",
"  p K.q r L.M.N.O.P.Q.s t R.u   ",
"  x S.y z T.U.V.W.X.Y.A B C Z.  ",
"  `.F G  +.+++@+#+$+%+&+H I *+  ",
"  =+L M -+;+>+,+'+)+!+~+N O {+  ",
"  R ]+S ^+/+(+_+:+<+[+}+T |+U   ",
"  X Y Z 1+` 2+3+4+5+ ...+.@.6+  ",
"  %.7+&.*.8+=.9+0+-.a+;.>.b+,.  ",
"    !.c+~.{.].^./.(._.:.d+<.    ",
"      2.e+3.4.f+g+5.6.h+7.      ",
"          c.d.e.f.g.h.          ",
"                                "};
