/* XPM */
static char * ext_xpm_xpm[] = {
"17 21 52 1",
" 	c #F5F5F5",
".	c #DBDBDB",
"+	c #F8F8F8",
"@	c #FFFFFF",
"#	c #2A2A2A",
"$	c #000000",
"%	c #070707",
"&	c #7C7C7C",
"*	c #FDFDFD",
"=	c #9A9A9A",
"-	c #B7B7B7",
";	c #525252",
">	c #636363",
",	c #D7D7D7",
"'	c #999999",
")	c #020202",
"!	c #616161",
"~	c #FCFCFC",
"{	c #ADADAD",
"]	c #060606",
"^	c #5F5F5F",
"/	c #BFBFBF",
"(	c #0E0E0E",
"_	c #828282",
":	c #7B7B7B",
"<	c #939393",
"[	c #545454",
"}	c #181818",
"|	c #555555",
"1	c #2B2B2B",
"2	c #B1B1B1",
"3	c #0C0C0C",
"4	c #111111",
"5	c #A0A0A0",
"6	c #141414",
"7	c #2D2D2D",
"8	c #1D1D1D",
"9	c #888888",
"0	c #818181",
"a	c #808080",
"b	c #EFEFEF",
"c	c #EEEEEE",
"d	c #D8D8D8",
"e	c #D5D5D5",
"f	c #121212",
"g	c #A5A5A5",
"h	c #5A5A5A",
"i	c #6B6B6B",
"j	c #010101",
"k	c #676767",
"l	c #232323",
"m	c #666666",
" ..........+@@@@@",
"#$$$$$$$$$$%&*@@@",
"$=--------$;$>*@@",
"$,@@@@@@@@$,')!~@",
"$,@@@@@@@@$,@{]^~",
"$,@@@@@@@@$,@@/(_",
"$,@@@@@@@@$:<<<[}",
"$,@@@@@@@@|$$$$$$",
"$,@@@@@@@@@@@@@,$",
"$,@@@@@@@@@@@@@,$",
"$,@121@345@$6789$",
"$,@0}a@$b%@$c$c$$",
"$,@d$e@$@$@$@$@$$",
"$,@d$e@$@$@$@$@$$",
"$,@0}a@$b$@$@$@$$",
"$,@121@$fg@$@$@$$",
"$,@@@@@$@@@@@@@,$",
"$,@@@@@@@@@@@@@,$",
"$,@@@@@@@@@@@@@,$",
"$hiiiiiiiiiiiiihj",
"klllllllllllllllm"};
