/* XPM */
static char * ext_tex_xpm[] = {
"17 21 53 1",
" 	c #F5F5F5",
".	c #DBDBDB",
"+	c #F8F8F8",
"@	c #FFFFFF",
"#	c #2A2A2A",
"$	c #000000",
"%	c #070707",
"&	c #7C7C7C",
"*	c #FDFDFD",
"=	c #9A9A9A",
"-	c #B7B7B7",
";	c #525252",
">	c #636363",
",	c #D7D7D7",
"'	c #999999",
")	c #020202",
"!	c #616161",
"~	c #FCFCFC",
"{	c #ADADAD",
"]	c #060606",
"^	c #5F5F5F",
"/	c #BFBFBF",
"(	c #0E0E0E",
"_	c #828282",
":	c #7B7B7B",
"<	c #939393",
"[	c #545454",
"}	c #181818",
"|	c #555555",
"1	c #0B0B0B",
"2	c #A9A9A9",
"3	c #6A6A6A",
"4	c #A0A0A0",
"5	c #2B2B2B",
"6	c #B1B1B1",
"7	c #050505",
"8	c #F4F4F4",
"9	c #818181",
"0	c #808080",
"a	c #D8D8D8",
"b	c #D5D5D5",
"c	c #010101",
"d	c #EEEEEE",
"e	c #EDEDED",
"f	c #9D9D9D",
"g	c #A4A4A4",
"h	c #656565",
"i	c #969696",
"j	c #5A5A5A",
"k	c #6B6B6B",
"l	c #676767",
"m	c #232323",
"n	c #666666",
" ..........+@@@@@",
"#$$$$$$$$$$%&*@@@",
"$=--------$;$>*@@",
"$,@@@@@@@@$,')!~@",
"$,@@@@@@@@$,@{]^~",
"$,@@@@@@@@$,@@/(_",
"$,@@@@@@@@$:<<<[}",
"$,@@@@@@@@|$$$$$$",
"$,@@@@@@@@@@@@@,$",
"$,@$@@@@@@@@@@@,$",
"$,@$1@234@565@@,$",
"$,@$@@78)@9}0@@,$",
"$,@$@@$$$@a$b@@,$",
"$,@$@@$@@@a$b@@,$",
"$,@cd@7ec@9}0@@,$",
"$,@f7@ghi@565@@,$",
"$,@@@@@@@@@@@@@,$",
"$,@@@@@@@@@@@@@,$",
"$,@@@@@@@@@@@@@,$",
"$jkkkkkkkkkkkkkjc",
"lmmmmmmmmmmmmmmmn"};
