/* XPM */
static char * ext_png_xpm[] = {
"18 21 46 1",
" 	c #F7F7F7",
".	c #DCDCDC",
"+	c #DBDBDB",
"@	c #F2F2F2",
"#	c #FFFFFF",
"$	c #282828",
"%	c #000000",
"&	c #020202",
"*	c #5C5C5C",
"=	c #F5F5F5",
"-	c #6A6A6A",
";	c #B7B7B7",
">	c #444444",
",	c #090909",
"'	c #414141",
")	c #939393",
"!	c #BABABA",
"~	c #424242",
"{	c #F6F6F6",
"]	c #616161",
"^	c #555555",
"/	c #030303",
"(	c #F3F3F3",
"_	c #434343",
":	c #0C0C0C",
"<	c #111111",
"[	c #A0A0A0",
"}	c #131313",
"|	c #A1A1A1",
"1	c #878787",
"2	c #1A1A1A",
"3	c #EFEFEF",
"4	c #070707",
"5	c #EEEEEE",
"6	c #A9A9A9",
"7	c #0F0F0F",
"8	c #121212",
"9	c #A5A5A5",
"0	c #E1E1E1",
"a	c #010101",
"b	c #3B3B3B",
"c	c #161616",
"d	c #BCBCBC",
"e	c #535353",
"f	c #8F8F8F",
"g	c #676767",
" .+++++++++@######",
"$%%%%%%%%%%&*=####",
"%-;;;;;;;;%>,'=###",
"%)########%)!,~{##",
"%)########%)#!,>{#",
"%)########%)##!,]#",
"%)########%^)))>/(",
"%)########_%%%%%%+",
"%)#############;%+",
"%)#############;%+",
"%)#:<[#%}|#12/#;%+",
"%)#%34#%5%#%(%#;%+",
"%)#%#%#%#%#%#%#;%+",
"%)#%#%#%#%#/(%#;%+",
"%)#%3%#%#%#67%#;%+",
"%)#%89#%#%##0a#;%+",
"%)#%#######bcd#;%+",
"%)#############;%+",
"%)#############;%+",
"%efffffffffffffg%.",
"_%%%%%%%%%%%%%%%$ "};
