/* XPM */
static char * ext_png_xpm[] = {
"17 21 54 1",
" 	c #F5F5F5",
".	c #DBDBDB",
"+	c #F8F8F8",
"@	c #FFFFFF",
"#	c #2A2A2A",
"$	c #000000",
"%	c #070707",
"&	c #7C7C7C",
"*	c #FDFDFD",
"=	c #9A9A9A",
"-	c #B7B7B7",
";	c #525252",
">	c #636363",
",	c #D7D7D7",
"'	c #999999",
")	c #020202",
"!	c #616161",
"~	c #FCFCFC",
"{	c #ADADAD",
"]	c #060606",
"^	c #5F5F5F",
"/	c #BFBFBF",
"(	c #0E0E0E",
"_	c #828282",
":	c #7B7B7B",
"<	c #939393",
"[	c #545454",
"}	c #181818",
"|	c #555555",
"1	c #0C0C0C",
"2	c #111111",
"3	c #A0A0A0",
"4	c #131313",
"5	c #A1A1A1",
"6	c #878787",
"7	c #1A1A1A",
"8	c #030303",
"9	c #EFEFEF",
"0	c #EEEEEE",
"a	c #F3F3F3",
"b	c #A9A9A9",
"c	c #0F0F0F",
"d	c #121212",
"e	c #A5A5A5",
"f	c #E1E1E1",
"g	c #010101",
"h	c #3B3B3B",
"i	c #161616",
"j	c #BCBCBC",
"k	c #5A5A5A",
"l	c #6B6B6B",
"m	c #676767",
"n	c #232323",
"o	c #666666",
" ..........+@@@@@",
"#$$$$$$$$$$%&*@@@",
"$=--------$;$>*@@",
"$,@@@@@@@@$,')!~@",
"$,@@@@@@@@$,@{]^~",
"$,@@@@@@@@$,@@/(_",
"$,@@@@@@@@$:<<<[}",
"$,@@@@@@@@|$$$$$$",
"$,@@@@@@@@@@@@@,$",
"$,@@@@@@@@@@@@@,$",
"$,@123@$45@678@,$",
"$,@$9%@$0$@$a$@,$",
"$,@$@$@$@$@$@$@,$",
"$,@$@$@$@$@8a$@,$",
"$,@$9$@$@$@bc$@,$",
"$,@$de@$@$@@fg@,$",
"$,@$@@@@@@@hij@,$",
"$,@@@@@@@@@@@@@,$",
"$,@@@@@@@@@@@@@,$",
"$klllllllllllllkg",
"mnnnnnnnnnnnnnnno"};
