/* XPM */
static char * flutter_xpm[] = {
"16 16 60 1",
" 	c None",
".	c #000000",
"+	c #54C5F8",
"@	c #54C5F8",
"#	c #54C5F8",
"$	c #54C5F8",
"%	c #54C5F8",
"&	c #54C5F8",
"*	c #54C5F8",
"=	c #54C5F8",
"-	c #29B6F6",
";	c #3ABCF7",
">	c #29B6F6",
",	c #29B6F6",
"'	c #0D6098",
")	c #29B6F6",
"!	c #01579B",
"~	c #06568E",
"{	c #01579B",
"]	c #01579B",
"^	c #01579B",
"/	c #54C5F8",
"(	c #29B6F6",
"_	c #39BCF7",
":	c #229DD6",
"<	c #229CD5",
"[	c #06548C",
"}	c #015598",
"|	c #229AD2",
"1	c #065288",
"2	c #015497",
"3	c #01579A",
"4	c #01579B",
"5	c #2197CE",
"6	c #064D81",
"7	c #015292",
"8	c #015699",
"9	c #2092C7",
"0	c #054675",
"a	c #014D8A",
"b	c #015394",
"c	c #015698",
"d	c #1F8BBD",
"e	c #043C64",
"f	c #01467D",
"g	c #014E8B",
"h	c #015393",
"i	c #01569A",
"j	c #1E89BA",
"k	c #032F4F",
"l	c #013B69",
"m	c #014D89",
"n	c #015395",
"o	c #032E4C",
"p	c #002F53",
"q	c #013F71",
"r	c #014F8D",
"s	c #033559",
"t	c #01457A",
"u	c #015599",
"        +++++   ",
"       ++++++   ",
"      ++++++    ",
"     ++++++     ",
"    ++++++      ",
"   ++++++       ",
"  ++++++        ",
" ++++++  ++++   ",
" +++++  +++++   ",
"  +++  ;++++    ",
"      --;++     ",
"     ----;      ",
"     ---:c!     ",
"      -56i!!    ",
"       c!!!!!   ",
"        !!!!!   "};
