/* XPM */
static char * flycheck_xpm[] = {
"16 16 209 2",
"  	c None",
". 	c #FFFFFF",
"+ 	c #FFD9D9",
"@ 	c #FFCFCF",
"# 	c #FFE7E7",
"$ 	c #E4E4E4",
"% 	c #CFCFCF",
"& 	c #E2E2E2",
"* 	c #E5E5E5",
"= 	c #EAEAEA",
"- 	c #FF3C3C",
"; 	c #FF0000",
"> 	c #FF8686",
", 	c #6E6E6E",
"' 	c #000000",
") 	c #616161",
"! 	c #727272",
"~ 	c #8D8D8D",
"{ 	c #FF4A4A",
"] 	c #FF9494",
"^ 	c #FF5858",
"/ 	c #FFA2A2",
"( 	c #080808",
"_ 	c #E7E7E7",
": 	c #F1F1F1",
"< 	c #F2F2F2",
"[ 	c #D4D4D4",
"} 	c #FF6666",
"| 	c #FFB1B1",
"1 	c #090909",
"2 	c #FF7474",
"3 	c #FFBFBF",
"4 	c #858585",
"5 	c #5F5F5F",
"6 	c #767676",
"7 	c #C6C6C6",
"8 	c #C7C7C7",
"9 	c #D6D6D6",
"0 	c #707070",
"a 	c #383838",
"b 	c #333333",
"c 	c #717171",
"d 	c #E1E1E1",
"e 	c #9D9D9D",
"f 	c #9A9A9A",
"g 	c #FF8282",
"h 	c #FFCDCD",
"i 	c #898989",
"j 	c #D8D8D8",
"k 	c #5E5E5E",
"l 	c #050505",
"m 	c #EBEBEB",
"n 	c #969696",
"o 	c #282828",
"p 	c #505050",
"q 	c #5D5D5D",
"r 	c #FF9090",
"s 	c #FFDBDB",
"t 	c #040404",
"u 	c #7F7F7F",
"v 	c #888888",
"w 	c #030303",
"x 	c #7B7B7B",
"y 	c #F9F9F9",
"z 	c #0F0F0F",
"A 	c #4D4D4D",
"B 	c #C2C2C2",
"C 	c #0A0A0A",
"D 	c #6D6D6D",
"E 	c #939393",
"F 	c #020202",
"G 	c #FF9E9E",
"H 	c #FFE9E9",
"I 	c #111111",
"J 	c #484848",
"K 	c #1F1F1F",
"L 	c #FEFEFE",
"M 	c #B3B3B3",
"N 	c #A9A9A9",
"O 	c #2D2D2D",
"P 	c #0E0E0E",
"Q 	c #DADADA",
"R 	c #A5A5A5",
"S 	c #FFADAD",
"T 	c #FFF7F7",
"U 	c #373737",
"V 	c #454545",
"W 	c #A7A7A7",
"X 	c #C1C1C1",
"Y 	c #F7F7F7",
"Z 	c #878787",
"` 	c #FFBBBB",
" .	c #FF0505",
"..	c #646464",
"+.	c #F8F8F8",
"@.	c #626262",
"#.	c #B5B5B5",
"$.	c #8F8F8F",
"%.	c #575757",
"&.	c #959595",
"*.	c #FFC9C9",
"=.	c #FF1313",
"-.	c #656565",
";.	c #B2B2B2",
">.	c #BFBFBF",
",.	c #AEAEAE",
"'.	c #C9C9C9",
").	c #FFD5D5",
"!.	c #C4C4C4",
"~.	c #5C5C5C",
"{.	c #1D1D1D",
"].	c #DCDCDC",
"^.	c #999999",
"/.	c #FFAFAF",
"(.	c #FFE1E1",
"_.	c #242424",
":.	c #777777",
"<.	c #191919",
"[.	c #E8E8E8",
"}.	c #ECECEC",
"|.	c #989898",
"1.	c #FF5252",
"2.	c #FF9D9D",
"3.	c #B4B4B4",
"4.	c #424242",
"5.	c #F6F6F6",
"6.	c #838383",
"7.	c #B0B0B0",
"8.	c #131313",
"9.	c #848484",
"0.	c #A0A0A0",
"a.	c #737373",
"b.	c #161616",
"c.	c #A8A8A8",
"d.	c #EDEDED",
"e.	c #E0E0E0",
"f.	c #010101",
"g.	c #303030",
"h.	c #818181",
"i.	c #FF7E7E",
"j.	c #FF3F3F",
"k.	c #FFB5B5",
"l.	c #3F3F3F",
"m.	c #464646",
"n.	c #414141",
"o.	c #D7D7D7",
"p.	c #323232",
"q.	c #393939",
"r.	c #EFEFEF",
"s.	c #E6E6E6",
"t.	c #F3F3F3",
"u.	c #8E8E8E",
"v.	c #1A1A1A",
"w.	c #BBBBBB",
"x.	c #535353",
"y.	c #787878",
"z.	c #ABABAB",
"A.	c #FFF2F2",
"B.	c #FFB0B0",
"C.	c #FFFAFA",
"D.	c #FFACAC",
"E.	c #FFFBFB",
"F.	c #FFAAAA",
"G.	c #FFF9F9",
"H.	c #FFABAB",
"I.	c #FFF8F8",
"J.	c #FFB4B4",
"K.	c #FFEDED",
"L.	c #FFBEBE",
"M.	c #FFE6E6",
"N.	c #FFE4E4",
"O.	c #FFD3D3",
"P.	c #FFDADA",
"Q.	c #FFC8C8",
"R.	c #FFDDDD",
"S.	c #FFC6C6",
"T.	c #FFEAEA",
"U.	c #FFB8B8",
"V.	c #FFAEAE",
"W.	c #FFF6F6",
"X.	c #FFC1C1",
"Y.	c #FFC4C4",
"Z.	c #FFDEDE",
"`.	c #FFC5C5",
" +	c #FFE0E0",
".+	c #FFC2C2",
"++	c #FFEFEF",
"@+	c #FFB6B6",
"#+	c #FFF4F4",
"$+	c #FFC0C0",
"%+	c #FF7676",
"&+	c #FFCACA",
"*+	c #FF7878",
"=+	c #FF7C7C",
"-+	c #FF8080",
";+	c #FF8C8C",
">+	c #FF9C9C",
",+	c #FF9797",
"'+	c #FFA3A3",
")+	c #FF8383",
"!+	c #FFB9B9",
"~+	c #FF7B7B",
"{+	c #FF7979",
"]+	c #FFC3C3",
"^+	c #FF7A7A",
"/+	c #FF9393",
"(+	c #FF9898",
"_+	c #FFA1A1",
":+	c #FF8E8E",
"                                ",
"                                ",
"                                ",
"              - -               ",
"              - -               ",
"              - -               ",
"              - -               ",
"              - -               ",
"              - -               ",
"              - -               ",
"                                ",
"                                ",
"              - -               ",
"              - -               ",
"                                ",
"                                "};
