/* XPM */
static char * font_mfizz_f116_xpm[] = {
"20 21 73 1",
" 	c #FFFFFF",
".	c #8A8A8A",
"+	c #5B5B5B",
"@	c #8E8E8E",
"#	c #F9F9F9",
"$	c #B2B2B2",
"%	c #A6A6A6",
"&	c #EBEBEB",
"*	c #A1A1A1",
"=	c #585858",
"-	c #838383",
";	c #474747",
">	c #000000",
",	c #CBCBCB",
"'	c #F5F5F5",
")	c #343434",
"!	c #111111",
"~	c #E2E2E2",
"{	c #030303",
"]	c #454545",
"^	c #484848",
"/	c #909090",
"(	c #828282",
"_	c #3E3E3E",
":	c #464646",
"<	c #A7A7A7",
"[	c #DBDBDB",
"}	c #7A7A7A",
"|	c #E6E6E6",
"1	c #959595",
"2	c #4A4A4A",
"3	c #FEFEFE",
"4	c #F7F7F7",
"5	c #FCFCFC",
"6	c #9B9B9B",
"7	c #494949",
"8	c #565656",
"9	c #4E4E4E",
"0	c #010101",
"a	c #050505",
"b	c #060606",
"c	c #070707",
"d	c #040404",
"e	c #F6F6F6",
"f	c #656565",
"g	c #4B4B4B",
"h	c #A0A0A0",
"i	c #171717",
"j	c #4C4C4C",
"k	c #7D7D7D",
"l	c #EAEAEA",
"m	c #6A6A6A",
"n	c #8B8B8B",
"o	c #151515",
"p	c #4D4D4D",
"q	c #1A1A1A",
"r	c #FAFAFA",
"s	c #7C7C7C",
"t	c #505050",
"u	c #FBFBFB",
"v	c #CACACA",
"w	c #8D8D8D",
"x	c #939393",
"y	c #2E2E2E",
"z	c #404040",
"A	c #3A3A3A",
"B	c #4F4F4F",
"C	c #5A5A5A",
"D	c #606060",
"E	c #F3F3F3",
"F	c #B1B1B1",
"G	c #535353",
"H	c #898989",
"                    ",
"                    ",
"                    ",
"                    ",
".+@     #$%&     *=-",
";>,    ')>>!~    ~{]",
";^     />>>>(     _:",
";<     &[[[[&     };",
";|                1^",
"23     4'4#5      67",
"8      9>>>>>0{abcd2",
"^e     f>>>>>>>>>>>g",
";,     h>>>>>>>0i>>j",
";k     la>>>>>>menop",
";qr     s>>>>>tu  v9",
";>w      xyqz*3  uAB",
"nCDE             FGH",
"                    ",
"                    ",
"                    ",
"                    "};
