/* XPM */
static char * FontAwesome_f071_xpm[] = {
"20 21 63 1",
" 	c #FFFFFF",
".	c #F5F5F5",
"+	c #D5D5D5",
"@	c #0F0F0F",
"#	c #464646",
"$	c #000000",
"%	c #474747",
"&	c #BCBCBC",
"*	c #BDBDBD",
"=	c #FDFDFD",
"-	c #333333",
";	c #A6A6A6",
">	c #A7A7A7",
",	c #F8F8F8",
"'	c #212121",
")	c #353535",
"!	c #6B6B6B",
"~	c #222222",
"{	c #F9F9F9",
"]	c #909090",
"^	c #929292",
"/	c #919191",
"(	c #F0F0F0",
"_	c #131313",
":	c #888888",
"<	c #878787",
"[	c #141414",
"}	c #F1F1F1",
"|	c #7B7B7B",
"1	c #7F7F7F",
"2	c #7E7E7E",
"3	c #7C7C7C",
"4	c #E5E5E5",
"5	c #090909",
"6	c #767676",
"7	c #757575",
"8	c #0A0A0A",
"9	c #E6E6E6",
"0	c #656565",
"a	c #6C6C6C",
"b	c #666666",
"c	c #D6D6D6",
"d	c #020202",
"e	c #101010",
"f	c #030303",
"g	c #D7D7D7",
"h	c #4F4F4F",
"i	c #0D0D0D",
"j	c #505050",
"k	c #C4C4C4",
"l	c #6A6A6A",
"m	c #C5C5C5",
"n	c #FEFEFE",
"o	c #3A3A3A",
"p	c #3B3B3B",
"q	c #AFAFAF",
"r	c #2C2C2C",
"s	c #939393",
"t	c #B0B0B0",
"u	c #363636",
"v	c #373737",
"w	c #E8E8E8",
"x	c #9A9A9A",
"         ..         ",
"        +@@+        ",
"        #$$%        ",
"       &$$$$*       ",
"      =-$$$$-=      ",
"      ;$$$$$$>      ",
"     ,'$)!!)$~{     ",
"     ]$$^  /$$/     ",
"    (_$$:  <$$[}    ",
"    |$$$1  2$$$3    ",
"   45$$$6  7$$$89   ",
"   0$$$$a  !$$$$b   ",
"  cd$$$$e%%@$$$$fg  ",
"  h$$$$$i%%i$$$$$j  ",
" k$$$$$$l  l$$$$$$m ",
"no$$$$$$!  !$$$$$$pn",
"q$$$$$$$rssr$$$$$$$t",
")$$$$$$$$$$$$$$$$$$u",
"v$$$$$$$$$$$$$$$$$$v",
"wxssssssssssssssssxw",
"                    "};
