/* XPM */
static char * font_mfizz_f15b_xpm[] = {
"20 21 72 1",
" 	c #FFFFFF",
".	c #FDFDFD",
"+	c #CCCCCC",
"@	c #FEFEFE",
"#	c #E3E3E3",
"$	c #B8B8B8",
"%	c #8A8A8A",
"&	c #565656",
"*	c #161616",
"=	c #3D3D3D",
"-	c #C3C3C3",
";	c #A8A8A8",
">	c #8C8C8C",
",	c #6D6D6D",
"'	c #4D4D4D",
")	c #2C2C2C",
"!	c #090909",
"~	c #000000",
"{	c #424242",
"]	c #474747",
"^	c #636363",
"/	c #0E0E0E",
"(	c #3A3A3A",
"_	c #727272",
":	c #BBBBBB",
"<	c #212121",
"[	c #393939",
"}	c #505050",
"|	c #696969",
"1	c #848484",
"2	c #A1A1A1",
"3	c #C1C1C1",
"4	c #E4E4E4",
"5	c #D6D6D6",
"6	c #929292",
"7	c #707070",
"8	c #EEEEEE",
"9	c #CECECE",
"0	c #AEAEAE",
"a	c #646464",
"b	c #0D0D0D",
"c	c #464646",
"d	c #292929",
"e	c #0C0C0C",
"f	c #484848",
"g	c #4A4A4A",
"h	c #020202",
"i	c #3B3B3B",
"j	c #060606",
"k	c #414141",
"l	c #8D8D8D",
"m	c #F0F0F0",
"n	c #FBFBFB",
"o	c #C6C6C6",
"p	c #B9B9B9",
"q	c #D0D0D0",
"r	c #E9E9E9",
"s	c #FCFCFC",
"t	c #DDDDDD",
"u	c #B2B2B2",
"v	c #111111",
"w	c #BEBEBE",
"x	c #666666",
"y	c #262626",
"z	c #050505",
"A	c #141414",
"B	c #787878",
"C	c #404040",
"D	c #585858",
"E	c #8B8B8B",
"F	c #C8C8C8",
"G	c #EBEBEB",
"           .+       ",
"      @#$%&*=       ",
"-;>,')!~~~~~{       ",
"~~~~~~~~~~~~]       ",
"~~~~~~~~~~~~^       ",
"~~~~~~~~/(_:@       ",
"<[}|1234 @567       ",
"   890%a[b~~c       ",
"cde~~~~~~~~~f       ",
"~~~~~~~~~~~~g       ",
"~~~~~~~~~~hi:       ",
"~~~~j<kal:mno       ",
"2pqr@ stu1}v=       ",
"w21xcyz~~~~~{       ",
"~~~~~~~~~~~~]       ",
"~~~~~~~~~~~~x       ",
"~~~~~~~~AkB3        ",
"dCD7E;FG            ",
"                    ",
"                    ",
"                    "};
