/* XPM */
static char * FontAwesome_f092_xpm[] = {
"17 21 69 1",
" 	c #FFFFFF",
".	c #DEDEDE",
"+	c #757575",
"@	c #4B4B4B",
"#	c #474747",
"$	c #686868",
"%	c #CBCBCB",
"&	c #C8C8C8",
"*	c #090909",
"=	c #000000",
"-	c #030303",
";	c #BABABA",
">	c #393939",
",	c #353535",
"'	c #050505",
")	c #171717",
"!	c #020202",
"~	c #1B1B1B",
"{	c #C0C0C0",
"]	c #626262",
"^	c #6B6B6B",
"/	c #898989",
"(	c #707070",
"_	c #565656",
":	c #BCBCBC",
"<	c #FEFEFE",
"[	c #242424",
"}	c #D3D3D3",
"|	c #3A3A3A",
"1	c #151515",
"2	c #E9E9E9",
"3	c #5E5E5E",
"4	c #828282",
"5	c #A7A7A7",
"6	c #F3F3F3",
"7	c #878787",
"8	c #CFCFCF",
"9	c #484848",
"0	c #8C8C8C",
"a	c #979797",
"b	c #696969",
"c	c #555555",
"d	c #3D3D3D",
"e	c #959595",
"f	c #A1A1A1",
"g	c #4E4E4E",
"h	c #040404",
"i	c #C4C4C4",
"j	c #595959",
"k	c #0B0B0B",
"l	c #858585",
"m	c #0F0F0F",
"n	c #F4F4F4",
"o	c #F2F2F2",
"p	c #A9A9A9",
"q	c #575757",
"r	c #060606",
"s	c #939393",
"t	c #ABABAB",
"u	c #525252",
"v	c #363636",
"w	c #272727",
"x	c #E1E1E1",
"y	c #FCFCFC",
"z	c #949494",
"A	c #E4E4E4",
"B	c #EDEDED",
"C	c #B5B5B5",
"D	c #F6F6F6",
"                 ",
"                 ",
" .+@##########$% ",
"&*=============-;",
">===============,",
"'===)!======~==='",
"===={.]^/(_:<[===",
"====}        |===",
"===12        3===",
"===4         }===",
"===5         6===",
"===7         8===",
"===9<        0===",
"====a<      &*===",
"==bc=de   fg=====",
"==hijkl   7======",
"m==[8no   p=====m",
"q====rs   t=====u",
"2v====s   t====wx",
" y{aszA   BessCD ",
"                 "};
