/* XPM */
static char * FontAwesome_f066_xpm[] = {
"17 21 52 1",
" 	c #FFFFFF",
".	c #ECECEC",
"+	c #979797",
"@	c #FEFEFE",
"#	c #303030",
"$	c #000000",
"%	c #6E6E6E",
"&	c #D8D8D8",
"*	c #939393",
"=	c #FDFDFD",
"-	c #2F2F2F",
";	c #505050",
">	c #808080",
",	c #676767",
"'	c #EAEAEA",
")	c #4F4F4F",
"!	c #F9F9F9",
"~	c #7F7F7F",
"{	c #0F0F0F",
"]	c #515151",
"^	c #525252",
"/	c #FAFAFA",
"(	c #606060",
"_	c #686868",
":	c #EFEFEF",
"<	c #DBDBDB",
"[	c #DDDDDD",
"}	c #B4B4B4",
"|	c #252525",
"1	c #232323",
"2	c #4E4E4E",
"3	c #202020",
"4	c #929292",
"5	c #A4A4A4",
"6	c #020202",
"7	c #8D8D8D",
"8	c #E1E1E1",
"9	c #222222",
"0	c #E0E0E0",
"a	c #212121",
"b	c #434343",
"c	c #DFDFDF",
"d	c #656565",
"e	c #A8A8A8",
"f	c #030303",
"g	c #888888",
"h	c #282828",
"i	c #666666",
"j	c #D9D9D9",
"k	c #F4F4F4",
"l	c #AEAEAE",
"m	c #040404",
"                 ",
"                 ",
"              .+@",
"             .#$%",
"        &*= .-$$;",
"        >$,'-$$)!",
"        ~$${$$]! ",
"        ~$$$$^/  ",
"        ~$$$$(=  ",
"        ~$$$$$_  ",
"  :<<<<[}|11112  ",
"  3$$$$$4        ",
"  56$$$$~        ",
"   7$$$$~        ",
"  89$$$$~        ",
" 0a$$b6$~        ",
"c3$$d=efg        ",
"h$$i=  jk        ",
"lm,=             ",
" j=              ",
"                 "};
