/* XPM */
static char * FontAwesome_f09c_xpm[] = {
"19 21 36 1",
" 	c #FFFFFF",
".	c #CDCDCD",
"+	c #7B7B7B",
"@	c #515151",
"#	c #8B8B8B",
"$	c #030303",
"%	c #000000",
"&	c #BBBBBB",
"*	c #484848",
"=	c #888888",
"-	c #BCBCBC",
";	c #353535",
">	c #646464",
",	c #FEFEFE",
"'	c #636363",
")	c #363636",
"!	c #F9F9F9",
"~	c #050505",
"{	c #DBDBDB",
"]	c #DADADA",
"^	c #DCDCDC",
"/	c #FDFDFD",
"(	c #D5D5D5",
"_	c #6E6E6E",
":	c #676767",
"<	c #585858",
"[	c #535353",
"}	c #2A2A2A",
"|	c #4D4D4D",
"1	c #3A3A3A",
"2	c #F4F4F4",
"3	c #474747",
"4	c #1F1F1F",
"5	c #999999",
"6	c #090909",
"7	c #6D6D6D",
"                   ",
"                   ",
"           .+@+.   ",
"          #$%%%$#  ",
"         &%%*=*%%- ",
"         ;%>, ,'%) ",
"        !~%{   ]%~!",
"        ^%%/   /%%^",
"        {%%     %%{",
"(_::::::<%%:&   %%{",
"[%%%%%%%%%%%}   |12",
"3%%%%%%%%%%%4      ",
"3%%%%%%%%%%%4      ",
"3%%%%%%%%%%%4      ",
"3%%%%%%%%%%%4      ",
"3%%%%%%%%%%%4      ",
"3%%%%%%%%%%%4      ",
"56$$$$$$$$$$7      ",
"                   ",
"                   ",
"                   "};
