/* XPM */
static char * FontAwesome_f21b_xpm[] = {
"17 21 74 1",
" 	c #FFFFFF",
".	c #FEFEFE",
"+	c #F3F3F3",
"@	c #4F4F4F",
"#	c #060606",
"$	c #585858",
"%	c #515151",
"&	c #AAAAAA",
"*	c #000000",
"=	c #AEAEAE",
"-	c #3E3E3E",
";	c #434343",
">	c #F7F7F7",
",	c #7A7A7A",
"'	c #2B2B2B",
")	c #2D2D2D",
"!	c #7D7D7D",
"~	c #F9F9F9",
"{	c #E4E4E4",
"]	c #2F2F2F",
"^	c #333333",
"/	c #E9E9E9",
"(	c #C0C0C0",
"_	c #5E5E5E",
":	c #5D5D5D",
"<	c #3F3F3F",
"[	c #C1C1C1",
"}	c #D7D7D7",
"|	c #B0B0B0",
"1	c #C8C8C8",
"2	c #AFAFAF",
"3	c #E3E3E3",
"4	c #020202",
"5	c #272727",
"6	c #909090",
"7	c #2C2C2C",
"8	c #E6E6E6",
"9	c #484848",
"0	c #7B7B7B",
"a	c #030303",
"b	c #797979",
"c	c #8E8E8E",
"d	c #818181",
"e	c #757575",
"f	c #767676",
"g	c #808080",
"h	c #9C9C9C",
"i	c #EEEEEE",
"j	c #0C0C0C",
"k	c #5C5C5C",
"l	c #505050",
"m	c #5B5B5B",
"n	c #131313",
"o	c #F5F5F5",
"p	c #9F9F9F",
"q	c #919191",
"r	c #ABABAB",
"s	c #6C6C6C",
"t	c #F6F6F6",
"u	c #CCCCCC",
"v	c #2A2A2A",
"w	c #CBCBCB",
"x	c #494949",
"y	c #565656",
"z	c #727272",
"A	c #313131",
"B	c #7E7E7E",
"C	c #202020",
"D	c #252525",
"E	c #ECECEC",
"F	c #B1B1B1",
"G	c #949494",
"H	c #939393",
"I	c #B2B2B2",
"     .+  +.      ",
"    .@#$$#%.     ",
"    &******=     ",
"    -******;     ",
" >,'********)!~  ",
" {]**********^/  ",
"   (*_:<<:_*[    ",
"   }*| 11 2*}    ",
" 34**567)65**48  ",
"  @**********9   ",
"  0**a****a**b   ",
" c***de**fg***h  ",
"ij***k.ll.m***no ",
"p****7 qq '****r ",
"s****a>:_ta****b ",
"l*****uv'w*****: ",
"x*****q44q*****y ",
"z*****A**A*****B ",
"8C************DE ",
" oFGHHHHHHHHGI>  ",
"                 "};
