/* XPM */
static char * FontAwesome_f188_xpm[] = {
"19 21 72 1",
" 	c #FFFFFF",
".	c #E5E5E5",
"+	c #A9A9A9",
"@	c #E6E6E6",
"#	c #9F9F9F",
"$	c #090909",
"%	c #000000",
"&	c #0A0A0A",
"*	c #A2A2A2",
"=	c #D2D2D2",
"-	c #040404",
";	c #060606",
">	c #D6D6D6",
",	c #CACACA",
"'	c #828282",
")	c #888888",
"!	c #C8C8C8",
"~	c #A1A1A1",
"{	c #484848",
"]	c #0B0B0B",
"^	c #C2C2C2",
"/	c #EBEBEB",
"(	c #DFDFDF",
"_	c #ECECEC",
":	c #BFBFBF",
"<	c #4C4C4C",
"[	c #EFEFEF",
"}	c #363636",
"|	c #878787",
"1	c #8F8F8F",
"2	c #858585",
"3	c #3A3A3A",
"4	c #F1F1F1",
"5	c #F0F0F0",
"6	c #202020",
"7	c #010101",
"8	c #222222",
"9	c #F2F2F2",
"0	c #3B3B3B",
"a	c #B7B7B7",
"b	c #3F3F3F",
"c	c #D7D7D7",
"d	c #313131",
"e	c #353535",
"f	c #1B1B1B",
"g	c #BBBBBB",
"h	c #323232",
"i	c #5B5B5B",
"j	c #636363",
"k	c #969696",
"l	c #9C9C9C",
"m	c #AAAAAA",
"n	c #0E0E0E",
"o	c #181818",
"p	c #1F1F1F",
"q	c #DCDCDC",
"r	c #151515",
"s	c #2D2D2D",
"t	c #E0E0E0",
"u	c #686868",
"v	c #B9B9B9",
"w	c #212121",
"x	c #696969",
"y	c #E1E1E1",
"z	c #DBDBDB",
"A	c #1C1C1C",
"B	c #909090",
"C	c #E3E3E3",
"D	c #DDDDDD",
"E	c #949494",
"F	c #FEFEFE",
"G	c #FCFCFC",
"                   ",
"       .++@        ",
"      #$%%&*       ",
"     =-%%%%;>      ",
" #,  '%%%%%%)  !~  ",
" {]^ /((((((_ :&<  ",
" [}]|111111112&34  ",
"  56%%%%77%%%%89   ",
"   0%%%%aa%%%%b    ",
"   0%%%%aa%%%%b    ",
"_ccd%%%%aa%%%%ecc_ ",
"f%%%%%%%aa%%%%%%%f ",
">ggh%%%%aa%%%%}ggc ",
"   i%%%%aa%%%%j    ",
"   k%%%%aa%%%%l    ",
"   m%%%%aa%%%%=    ",
"  ,&hn%%aa%%nop(   ",
" qrs5tu8vvwxyzApt  ",
" BwC          D8E  ",
" FG            G   ",
"                   "};
