/* XPM */
static char * font_mfizz_f166_xpm[] = {
"20 21 106 2",
"  	c #FFFFFF",
". 	c #D0D0D0",
"+ 	c #8C8C8C",
"@ 	c #D1D1D1",
"# 	c #050505",
"$ 	c #000000",
"% 	c #060606",
"& 	c #D4D4D4",
"* 	c #F5F5F5",
"= 	c #A0A0A0",
"- 	c #4D4D4D",
"; 	c #282828",
"> 	c #161616",
", 	c #484848",
"' 	c #898989",
") 	c #8D8D8D",
"! 	c #E1E1E1",
"~ 	c #BFBFBF",
"{ 	c #030303",
"] 	c #878787",
"^ 	c #A8A8A8",
"/ 	c #929292",
"( 	c #0B0B0B",
"_ 	c #DDDDDD",
": 	c #474747",
"< 	c #333333",
"[ 	c #232323",
"} 	c #585858",
"| 	c #DFDFDF",
"1 	c #BABABA",
"2 	c #020202",
"3 	c #454545",
"4 	c #090909",
"5 	c #151515",
"6 	c #292929",
"7 	c #181818",
"8 	c #262626",
"9 	c #F4F4F4",
"0 	c #FDFDFD",
"a 	c #C9C9C9",
"b 	c #E6E6E6",
"c 	c #F9F9F9",
"d 	c #9E9E9E",
"e 	c #111111",
"f 	c #838383",
"g 	c #BEBEBE",
"h 	c #FBFBFB",
"i 	c #D5D5D5",
"j 	c #0F0F0F",
"k 	c #1B1B1B",
"l 	c #FEFEFE",
"m 	c #252525",
"n 	c #222222",
"o 	c #8F8F8F",
"p 	c #E5E5E5",
"q 	c #909090",
"r 	c #D6D6D6",
"s 	c #202020",
"t 	c #141414",
"u 	c #818181",
"v 	c #434343",
"w 	c #EAEAEA",
"x 	c #1A1A1A",
"y 	c #171717",
"z 	c #C1C1C1",
"A 	c #9B9B9B",
"B 	c #A9A9A9",
"C 	c #A7A7A7",
"D 	c #E9E9E9",
"E 	c #3A3A3A",
"F 	c #F2F2F2",
"G 	c #8B8B8B",
"H 	c #4E4E4E",
"I 	c #EDEDED",
"J 	c #0D0D0D",
"K 	c #DEDEDE",
"L 	c #FCFCFC",
"M 	c #727272",
"N 	c #464646",
"O 	c #666666",
"P 	c #E3E3E3",
"Q 	c #757575",
"R 	c #B1B1B1",
"S 	c #8E8E8E",
"T 	c #2D2D2D",
"U 	c #010101",
"V 	c #C6C6C6",
"W 	c #F1F1F1",
"X 	c #969696",
"Y 	c #0A0A0A",
"Z 	c #313131",
"` 	c #121212",
" .	c #808080",
"..	c #6B6B6B",
"+.	c #3F3F3F",
"@.	c #494949",
"#.	c #0C0C0C",
"$.	c #C7C7C7",
"%.	c #1D1D1D",
"&.	c #949494",
"*.	c #888888",
"=.	c #9F9F9F",
"-.	c #ACACAC",
";.	c #D9D9D9",
">.	c #070707",
",.	c #D3D3D3",
"                            . + .       ",
"                          @ # $ % &     ",
"              * = - ; > , ' $ $ $ )     ",
"            ! ~ $ $ $ $ { ] $ $ $ ^     ",
"          / ( _ : $ $ $ $ < : [ } |     ",
"        1 2 $ 3 _ 4 5 6 ( $ $ 7 % 8 9   ",
"      0 8 $ $ $ a b     c d e $ $ $ f   ",
"      g $ $ $ , h           i j $ $ k l ",
"g m n o ( $ % p               q $ $ $ r ",
"s $ $ t u $ v                 w x y y z ",
"# $ $ $ A $ }                 0 B C C D ",
", $ $ E 3 $ [                 a $ $ $ z ",
"F G ' = $ $ $ B               H $ $ 2 I ",
"      p { $ $ J K         L M $ $ $ N   ",
"        O $ $ J P Q d R S T $ $ $ U V   ",
"        W ; $ X o $ $ $ $ $ Y Z `  .    ",
"          b ..K ( $ $ $ $ +.@.#.3 F     ",
"              $.%.$ $ $ 2 &.$ $ $ *.    ",
"                l V =.) -.X $ $ $ M     ",
"                          ;.>.$ U g     ",
"                            ,.G V       "};
