/* XPM */
static char * FontAwesome_f18e_xpm[] = {
"18 21 104 2",
"  	c #FFFFFF",
". 	c #EDEDED",
"+ 	c #A5A5A5",
"@ 	c #6B6B6B",
"# 	c #525252",
"$ 	c #565656",
"% 	c #717171",
"& 	c #B1B1B1",
"* 	c #F4F4F4",
"= 	c #F0F0F0",
"- 	c #737373",
"; 	c #070707",
"> 	c #000000",
", 	c #121212",
"' 	c #898989",
") 	c #FAFAFA",
"! 	c #D7D7D7",
"~ 	c #252525",
"{ 	c #0B0B0B",
"] 	c #2B2B2B",
"^ 	c #272727",
"/ 	c #060606",
"( 	c #3D3D3D",
"_ 	c #E9E9E9",
": 	c #E4E4E4",
"< 	c #1B1B1B",
"[ 	c #181818",
"} 	c #A9A9A9",
"| 	c #F9F9F9",
"1 	c #F2F2F2",
"2 	c #929292",
"3 	c #353535",
"4 	c #F5F5F5",
"5 	c #FEFEFE",
"6 	c #464646",
"7 	c #454545",
"8 	c #ECECEC",
"9 	c #FCFCFC",
"0 	c #DDDDDD",
"a 	c #707070",
"b 	c #BCBCBC",
"c 	c #151515",
"d 	c #EAEAEA",
"e 	c #EFEFEF",
"f 	c #242424",
"g 	c #DEDEDE",
"h 	c #D0D0D0",
"i 	c #050505",
"j 	c #040404",
"k 	c #E0E0E0",
"l 	c #616161",
"m 	c #A2A2A2",
"n 	c #EBEBEB",
"o 	c #1E1E1E",
"p 	c #787878",
"q 	c #8B8B8B",
"r 	c #232323",
"s 	c #D8D8D8",
"t 	c #626262",
"u 	c #1D1D1D",
"v 	c #DCDCDC",
"w 	c #CFCFCF",
"x 	c #4C4C4C",
"y 	c #080808",
"z 	c #9F9F9F",
"A 	c #313131",
"B 	c #0F0F0F",
"C 	c #4A4A4A",
"D 	c #F8F8F8",
"E 	c #EEEEEE",
"F 	c #383838",
"G 	c #2F2F2F",
"H 	c #E6E6E6",
"I 	c #F3F3F3",
"J 	c #B7B7B7",
"K 	c #A8A8A8",
"L 	c #4B4B4B",
"M 	c #BDBDBD",
"N 	c #585858",
"O 	c #777777",
"P 	c #7B7B7B",
"Q 	c #505050",
"R 	c #A1A1A1",
"S 	c #D9D9D9",
"T 	c #030303",
"U 	c #CCCCCC",
"V 	c #F1F1F1",
"W 	c #BBBBBB",
"X 	c #A0A0A0",
"Y 	c #0C0C0C",
"Z 	c #9C9C9C",
"` 	c #444444",
" .	c #606060",
"..	c #B0B0B0",
"+.	c #494949",
"@.	c #696969",
"#.	c #F6F6F6",
"$.	c #5F5F5F",
"%.	c #010101",
"&.	c #808080",
"*.	c #FDFDFD",
"=.	c #3F3F3F",
"-.	c #B5B5B5",
";.	c #9D9D9D",
"                                    ",
"                                    ",
"          . + @ # $ % & *           ",
"      = - ; > > > > > > , ' )       ",
"    ! ~ > > > { ] ^ / > > > ( _     ",
"  : < > > [ } |     1 2 { > > 3 4   ",
"5 6 > > 7 8       9     0 ] > > a   ",
"b > > c d       e f g     h i > j k ",
"l > > m         n > o 0     p > > q ",
"r > j * s @ @ @ t > > u v   w > > x ",
"y > u   z > > > > > > > < d * > > A ",
"B > [   z > > > > > > > C D E > > F ",
"G > > H I J J J K > > L D   M > > N ",
"O > > P         n > x D   5 Q > > R ",
"S T > T U       4 @ D     + > > c V ",
"  % > > < W           5 X Y > > Z   ",
"  | ` > > >  .W k 0 ..+.> > > @.5   ",
"    #.$.> > > > > > > > > %.&.*.    ",
"      5 W =.%.> > > > / Q h         ",
"            n -.;.X W 1             ",
"                                    "};
