/* XPM */
static char * FontAwesome_f047_xpm[] = {
"21 21 2 1",
" 	c None",
".	c #000000",
"                     ",
"         ..          ",
"        ....         ",
"       ......        ",
"       .......       ",
"         ...         ",
"         ...         ",
"         ...         ",
"  ...    ...    ..   ",
" ..................  ",
" ................... ",
" ................... ",
"  ...    ...    ...  ",
"   ..    ...    ..   ",
"         ...         ",
"         ...         ",
"         ...         ",
"       .......       ",
"        .....        ",
"         ...         ",
"          .          "};
