/* XPM */
static char * FontAwesome_f17a_xpm[] = {
"19 21 48 1",
" 	c #FFFFFF",
".	c #FDFDFD",
"+	c #E3E3E3",
"@	c #C1C1C1",
"#	c #9E9E9E",
"$	c #7B7B7B",
"%	c #585858",
"&	c #F5F5F5",
"*	c #E0E0E0",
"=	c #919191",
"-	c #6E6E6E",
";	c #4C4C4C",
">	c #292929",
",	c #070707",
"'	c #000000",
")	c #C6C6C6",
"!	c #A4A4A4",
"~	c #818181",
"{	c #5F5F5F",
"]	c #3C3C3C",
"^	c #1A1A1A",
"/	c #373737",
"(	c #A3A3A3",
"_	c #DBDBDB",
":	c #E2E2E2",
"<	c #F2F2F2",
"[	c #131313",
"}	c #464646",
"|	c #AAAAAA",
"1	c #A1A1A1",
"2	c #7F7F7F",
"3	c #5C5C5C",
"4	c #3A3A3A",
"5	c #171717",
"6	c #F4F4F4",
"7	c #D2D2D2",
"8	c #C4C4C4",
"9	c #D1D1D1",
"0	c #696969",
"a	c #242424",
"b	c #040404",
"c	c #FCFCFC",
"d	c #DFDFDF",
"e	c #BDBDBD",
"f	c #9B9B9B",
"g	c #787878",
"h	c #565656",
"i	c #343434",
"                   ",
"                   ",
"             .+@#$%",
"      &**=-;>,'''''",
")!~{]^'/(''''''''''",
"'''''''/(''''''''''",
"'''''''/(''''''''''",
"'''''''/(''''''''''",
"'''''''/(''''''''''",
"'''''''/(''''''''''",
"'''''''/(''''''''''",
"_______:<__________",
"[[[[[[[}|[[[[[[[[[[",
"'''''''/(''''''''''",
"'''''''/(''''''''''",
"'''''''/(''''''''''",
"'''''''/(''''''''''",
"'''''''/(''''''''''",
"12345''/(''''''''''",
"     67890}ab''''''",
"            cdefghi"};
