/* XPM */
static char * FontAwesome_f047_xpm[] = {
"21 21 52 1",
" 	c #FFFFFF",
".	c #F2F2F2",
"+	c #7F7F7F",
"@	c #020202",
"#	c #9E9E9E",
"$	c #000000",
"%	c #010101",
"&	c #9F9F9F",
"*	c #A0A0A0",
"=	c #F3F3F3",
"-	c #030303",
";	c #1C1C1C",
">	c #E9E9E9",
",	c #DBDBDB",
"'	c #1D1D1D",
")	c #EEEEEE",
"!	c #232323",
"~	c #919191",
"{	c #A2A2A2",
"]	c #898989",
"^	c #A9A9A9",
"/	c #474747",
"(	c #6B6B6B",
"_	c #0E0E0E",
":	c #C0C0C0",
"<	c #C6C6C6",
"[	c #090909",
"}	c #151515",
"|	c #DDDDDD",
"1	c #BCBCBC",
"2	c #323232",
"3	c #B7B7B7",
"4	c #181818",
"5	c #D4D4D4",
"6	c #4B4B4B",
"7	c #272727",
"8	c #CFCFCF",
"9	c #D3D3D3",
"0	c #C4C4C4",
"a	c #FEFEFE",
"b	c #A5A5A5",
"c	c #939393",
"d	c #131313",
"e	c #B5B5B5",
"f	c #0B0B0B",
"g	c #BFBFBF",
"h	c #0A0A0A",
"i	c #171717",
"j	c #D6D6D6",
"k	c #161616",
"l	c #D5D5D5",
"m	c #3F3F3F",
"          .          ",
"         +@#         ",
"        +$$%&        ",
"       +$$$$%*       ",
"      =-$$$$$;       ",
"       >,$$',)       ",
"         $$!         ",
"   ~{    $$!    ]^   ",
"  +$/    $$!    !%*  ",
" +$$'(((($$_((((_$%* ",
"#$$$$$$$$$$$$$$$$$$%:",
"<[$$$$$$$$$$$$$$$$$}|",
" 1[$23333$$433334$}5 ",
"  1[6    $$!    7}5  ",
"   89    $$!    0|   ",
"         $$!         ",
"      abc$$dce       ",
"      =f$$$$$!       ",
"       gh$$$ij       ",
"        gh$kl        ",
"         :m5         "};
