/* XPM */
static char * FontAwesome_f021_xpm[] = {
"17 21 82 1",
" 	c #FFFFFF",
".	c #D2D2D2",
"+	c #8B8B8B",
"@	c #616161",
"#	c #515151",
"$	c #646464",
"%	c #8F8F8F",
"&	c #DBDBDB",
"*	c #D4D4D4",
"=	c #414141",
"-	c #000000",
";	c #B2B2B2",
">	c #2B2B2B",
",	c #AAAAAA",
"'	c #060606",
")	c #0E0E0E",
"!	c #747474",
"~	c #030303",
"{	c #BABABA",
"]	c #020202",
"^	c #0F0F0F",
"/	c #6F6F6F",
"(	c #B5B5B5",
"_	c #CCCCCC",
":	c #A5A5A5",
"<	c #696969",
"[	c #050505",
"}	c #F7F7F7",
"|	c #181818",
"1	c #3A3A3A",
"2	c #E4E4E4",
"3	c #191919",
"4	c #A1A1A1",
"5	c #242424",
"6	c #EFEFEF",
"7	c #8C8C8C",
"8	c #363636",
"9	c #ACACAC",
"0	c #C2C2C2",
"a	c #010101",
"b	c #9F9F9F",
"c	c #999999",
"d	c #FCFCFC",
"e	c #F0F0F0",
"f	c #949494",
"g	c #A4A4A4",
"h	c #676767",
"i	c #4B4B4B",
"j	c #DCDCDC",
"k	c #F4F4F4",
"l	c #575757",
"m	c #0B0B0B",
"n	c #D6D6D6",
"o	c #939393",
"p	c #565656",
"q	c #0A0A0A",
"r	c #C1C1C1",
"s	c #0D0D0D",
"t	c #0C0C0C",
"u	c #979797",
"v	c #FDFDFD",
"w	c #B7B7B7",
"x	c #161616",
"y	c #3B3B3B",
"z	c #FEFEFE",
"A	c #2A2A2A",
"B	c #666666",
"C	c #8D8D8D",
"D	c #767676",
"E	c #313131",
"F	c #E1E1E1",
"G	c #141414",
"H	c #B1B1B1",
"I	c #333333",
"J	c #292929",
"K	c #6B6B6B",
"L	c #D5D5D5",
"M	c #F8F8F8",
"N	c #929292",
"O	c #1E1E1E",
"P	c #878787",
"Q	c #CFCFCF",
"                 ",
"                 ",
"     .+@#$%&     ",
"   *=-------#& ;>",
"  ,'---------)!~-",
" {]--^/(_:<[-----",
"}|--12     *3----",
"4--56      7-----",
"8--9      0-----a",
"b%cd      ef%%%%g",
"                 ",
"                 ",
"hiiii#j      kli@",
"-----mn      o--p",
"----qr      ns--0",
"----tuv    wx--yz",
"------ABCDE---|F ",
"-GHI---------J&  ",
"KL MNO-----3P}   ",
"     zQ:fgQv     ",
"                 "};
