/* XPM */
static char * font_mfizz_f10a_xpm[] = {
"22 21 2 1",
" 	c None",
".	c #000000",
"                      ",
"       ........       ",
"     ............     ",
"    ..............    ",
"        .    ......   ",
"          ...  .....  ",
"   ...    ....  ....  ",
"  ...  ..  ....  .... ",
" .... .... ..... .... ",
" .... .... ..... .... ",
" .... ....  .... .... ",
" .... ... . .... .... ",
" .... ... . .... .... ",
" ....  . ..  ..  ...  ",
"  ....   ...    ...   ",
"  .....   ..          ",
"   ......    ..       ",
"    ..............    ",
"     ............     ",
"       ........       ",
"                      "};
