/* XPM */
static char * FontAwesome_f17c_xpm[] = {
"18 21 116 2",
"  	c #FFFFFF",
". 	c #FEFEFE",
"+ 	c #E8E8E8",
"@ 	c #F5F5F5",
"# 	c #D4D4D4",
"$ 	c #262626",
"% 	c #000000",
"& 	c #010101",
"* 	c #545454",
"= 	c #F6F6F6",
"- 	c #414141",
"; 	c #8A8A8A",
"> 	c #111111",
", 	c #090909",
"' 	c #020202",
") 	c #303030",
"! 	c #040404",
"~ 	c #F4F4F4",
"{ 	c #767676",
"] 	c #CFCFCF",
"^ 	c #8D8D8D",
"/ 	c #C0C0C0",
"( 	c #717171",
"_ 	c #BCBCBC",
": 	c #565656",
"< 	c #969696",
"[ 	c #CDCDCD",
"} 	c #F2F2F2",
"| 	c #C2C2C2",
"1 	c #353535",
"2 	c #707070",
"3 	c #E5E5E5",
"4 	c #575757",
"5 	c #818181",
"6 	c #5D5D5D",
"7 	c #9D9D9D",
"8 	c #3B3B3B",
"9 	c #4E4E4E",
"0 	c #FAFAFA",
"a 	c #5F5F5F",
"b 	c #181818",
"c 	c #E4E4E4",
"d 	c #686868",
"e 	c #C7C7C7",
"f 	c #ACACAC",
"g 	c #888888",
"h 	c #151515",
"i 	c #F8F8F8",
"j 	c #161616",
"k 	c #030303",
"l 	c #CACACA",
"m 	c #464646",
"n 	c #404040",
"o 	c #939393",
"p 	c #1E1E1E",
"q 	c #363636",
"r 	c #FDFDFD",
"s 	c #DDDDDD",
"t 	c #0E0E0E",
"u 	c #EEEEEE",
"v 	c #3D3D3D",
"w 	c #B4B4B4",
"x 	c #868686",
"y 	c #6E6E6E",
"z 	c #1B1B1B",
"A 	c #6A6A6A",
"B 	c #656565",
"C 	c #232323",
"D 	c #1D1D1D",
"E 	c #A0A0A0",
"F 	c #373737",
"G 	c #9A9A9A",
"H 	c #2D2D2D",
"I 	c #555555",
"J 	c #383838",
"K 	c #DEDEDE",
"L 	c #DBDBDB",
"M 	c #313131",
"N 	c #EAEAEA",
"O 	c #AFAFAF",
"P 	c #474747",
"Q 	c #F3F3F3",
"R 	c #C6C6C6",
"S 	c #212121",
"T 	c #0D0D0D",
"U 	c #CBCBCB",
"V 	c #B0B0B0",
"W 	c #F1F1F1",
"X 	c #C8C8C8",
"Y 	c #EDEDED",
"Z 	c #A9A9A9",
"` 	c #BDBDBD",
" .	c #FCFCFC",
"..	c #B6B6B6",
"+.	c #959595",
"@.	c #626262",
"#.	c #A2A2A2",
"$.	c #A8A8A8",
"%.	c #BEBEBE",
"&.	c #E3E3E3",
"*.	c #D5D5D5",
"=.	c #C4C4C4",
"-.	c #2A2A2A",
";.	c #222222",
">.	c #292929",
",.	c #2E2E2E",
"'.	c #1C1C1C",
").	c #919191",
"!.	c #D7D7D7",
"~.	c #ABABAB",
"{.	c #F9F9F9",
"].	c #D6D6D6",
"^.	c #C1C1C1",
"/.	c #595959",
"(.	c #C9C9C9",
"_.	c #7B7B7B",
"            . + @                   ",
"          # $ % & * =               ",
"          - % % % % ;               ",
"          > , % ' ) ! ~             ",
"          % { ' ] ^ % /             ",
"          % ( _   : % <             ",
"          % [   } | 1 2             ",
"        3 % 4 5 6 7 8 9 0           ",
"        a b c d e   f % g           ",
"      [ & h         i j k l         ",
"      m h n           o p q r       ",
"    s % t u           u t v w       ",
"    x , y               z A B       ",
"    C D E               F G H       ",
"    I J K             L M - 8       ",
"  N   O P Q           R S T U r     ",
"V #     B 1 W         X } Y   N     ",
"Z       Q S [       ` /       3  .  ",
"..        +.@.#.$.d & %.    . &.0   ",
"l / *.r   =.-.;.>.,.'.).  !.~.i     ",
"    {.].^./.(.      0 _.{ ~.        "};
