/* XPM */
static char * FontAwesome_f05a_xpm[] = {
"17 21 69 1",
" 	c #FFFFFF",
".	c #DBDBDB",
"+	c #8D8D8D",
"@	c #626262",
"#	c #4E4E4E",
"$	c #DCDCDC",
"%	c #E0E0E0",
"&	c #555555",
"*	c #000000",
"=	c #575757",
"-	c #E1E1E1",
";	c #C4C4C4",
">	c #141414",
",	c #C8C8C8",
"'	c #EBEBEB",
")	c #C5C5C5",
"!	c #D8D8D8",
"~	c #0F0F0F",
"{	c #101010",
"]	c #DADADA",
"^	c #FEFEFE",
"/	c #373737",
"(	c #767676",
"_	c #939393",
":	c #393939",
"<	c #B4B4B4",
"[	c #B5B5B5",
"}	c #5C5C5C",
"|	c #434343",
"1	c #5E5E5E",
"2	c #212121",
"3	c #535353",
"4	c #232323",
"5	c #080808",
"6	c #191919",
"7	c #7E7E7E",
"8	c #F5F5F5",
"9	c #090909",
"0	c #2D2D2D",
"a	c #2E2E2E",
"b	c #727272",
"c	c #747474",
"d	c #D1D1D1",
"e	c #010101",
"f	c #3C3C3C",
"g	c #EAEAEA",
"h	c #FDFDFD",
"i	c #3D3D3D",
"j	c #D3D3D3",
"k	c #606060",
"l	c #636363",
"m	c #F3F3F3",
"n	c #2F2F2F",
"o	c #1F1F1F",
"p	c #929292",
"q	c #303030",
"r	c #F4F4F4",
"s	c #ECECEC",
"t	c #414141",
"u	c #424242",
"v	c #EDEDED",
"w	c #FCFCFC",
"x	c #9E9E9E",
"y	c #262626",
"z	c #9F9F9F",
"A	c #D6D6D6",
"B	c #ACACAC",
"C	c #999999",
"D	c #D7D7D7",
"                 ",
"                 ",
"     .+@#@+$     ",
"   %&*******=-   ",
"  ;>***,',***>)  ",
" !~****' '****{] ",
"^/*****(_(*****:^",
"<***************[",
"}****|^  ]******1",
"2****3   '******4",
"5****678 '******9",
"~******' '******{",
"0******' '******a",
"b******' '******c",
"de***fgh hgi***ej",
" k***3     3***l ",
" mn**op___po**qr ",
"  st*********uv  ",
"   wxy*****yzw   ",
"     ^ABCBD^     ",
"                 "};
