/* XPM */
static char * FontAwesome_f013_xpm[] = {
"17 21 2 1",
" 	c None",
".	c #000000",
"                 ",
"                 ",
"       ...       ",
"       ...       ",
"   .. ..... ..   ",
"  .............  ",
"  .............  ",
"   ...........   ",
"  .....   .....  ",
"......     ......",
"......     ......",
"......     ......",
" .....     ..... ",
"   ..... .....   ",
"  .............  ",
"  .............  ",
"  .............  ",
"   .   ...   .   ",
"       ...       ",
"                 ",
"                 "};
