/* XPM */
static char * FontAwesome_f1ec_xpm[] = {
"20 21 2 1",
" 	c None",
".	c #000000",
"                    ",
"..................  ",
"..               .  ",
".                .  ",
".                .  ",
".                .  ",
"..              ..  ",
"..................  ",
".. ...  ... ... ..  ",
".   .    .   .   .  ",
".. ...  ... ... ..  ",
"..................  ",
".. ...  ... ... ..  ",
".   .    .   .   .  ",
"..  ..  ..  ..   .  ",
"..............   .  ",
"..............   .  ",
".   .    .   .   .  ",
".   .    .   .   .  ",
"..................  ",
" .................  "};
