/* XPM */
static char * FontAwesome_f1c6_xpm[] = {
"17 21 2 1",
" 	c None",
".	c #000000",
"                 ",
"...........      ",
".     . .....    ",
".     . .  ...   ",
".    .  .    ..  ",
".     . .     .. ",
".       ..     ..",
".    .  .........",
".     .         .",
".    .          .",
".    .          .",
".    ..         .",
".    ...        .",
".   ....        .",
".   ....        .",
".   .  .        .",
".   ....        .",
".    ..         .",
".               .",
".................",
"................."};
