/* XPM */
static char * font_mfizz_f126_xpm[] = {
"20 21 2 1",
" 	c None",
".	c #000000",
"                    ",
"                    ",
" ..  ...            ",
" ... ....           ",
" .... ....          ",
"  .... ...          ",
"   ... ....         ",
"   .... .... .......",
"    .... ...  ......",
"     ... ....       ",
"    .... ..... .....",
"   .... ...... .....",
"   ... ........     ",
"  .... ...  ....    ",
" .... ....   ...    ",
" ... ....    ....   ",
" ..  ...      ...   ",
"                    ",
"                    ",
"                    ",
"                    "};
