/* XPM */
static char * FontAwesome_f046_xpm[] = {
"19 20 77 1",
" 	c #FFFFFF",
".	c #F7F7F7",
"+	c #B3B3B3",
"@	c #919191",
"#	c #8F8F8F",
"$	c #939393",
"%	c #C2C2C2",
"&	c #E1E1E1",
"*	c #282828",
"=	c #000000",
"-	c #3D3D3D",
";	c #C5C5C5",
">	c #5D5D5D",
",	c #E3E3E3",
"'	c #4D4D4D",
")	c #1B1B1B",
"!	c #CBCBCB",
"~	c #FEFEFE",
"{	c #FBFBFB",
"]	c #FCFCFC",
"^	c #BABABA",
"/	c #0A0A0A",
"(	c #202020",
"_	c #E0E0E0",
":	c #0C0C0C",
"<	c #858585",
"[	c #070707",
"}	c #808080",
"|	c #AAAAAA",
"1	c #050505",
"2	c #353535",
"3	c #EFEFEF",
"4	c #7B7B7B",
"5	c #9A9A9A",
"6	c #A1A1A1",
"7	c #030303",
"8	c #363636",
"9	c #F0F0F0",
"0	c #6B6B6B",
"a	c #979797",
"b	c #989898",
"c	c #010101",
"d	c #E2E2E2",
"e	c #A3A3A3",
"f	c #373737",
"g	c #6E6E6E",
"h	c #040404",
"i	c #5A5A5A",
"j	c #383838",
"k	c #F1F1F1",
"l	c #656565",
"m	c #393939",
"n	c #707070",
"o	c #9C9C9C",
"p	c #5E5E5E",
"q	c #3A3A3A",
"r	c #F2F2F2",
"s	c #575757",
"t	c #3B3B3B",
"u	c #515151",
"v	c #3C3C3C",
"w	c #F3F3F3",
"x	c #909090",
"y	c #1F1F1F",
"z	c #626262",
"A	c #FAFAFA",
"B	c #A8A8A8",
"C	c #F4F4F4",
"D	c #CECECE",
"E	c #B0B0B0",
"F	c #888888",
"G	c #1C1C1C",
"H	c #252525",
"I	c #F5F5F5",
"J	c #FDFDFD",
"K	c #4C4C4C",
"L	c #DFDFDF",
"                   ",
" .+@########$%     ",
"&*===========- ;>, ",
"')!~        {]^/=(_",
":<           +[===}",
"=$          |1===23",
"=$ ~45     67===89 ",
"=$ 0==a   bc===89  ",
"=$d===ce #====f9   ",
"=$ g===hi====jk    ",
"=$ ~l=======mkno   ",
"=$  ~p=====qr =#   ",
"=$   ]s===tr  =#   ",
"=$    {u=vw   =x   ",
"yz     ABC   D=E   ",
"Fcz$$$$$$$$$<GHI   ",
"JFy=========:KL    ",
"                   ",
"                   ",
"                   "};
