/* XPM */
static char * FontAwesome_f179_xpm[] = {
"16 21 2 1",
" 	c None",
".	c #000000",
"                ",
"          ..    ",
"         ..     ",
"        ...     ",
"        ..      ",
"   .... ......  ",
"  ............. ",
" .............. ",
"..............  ",
"..............  ",
".............   ",
"..............  ",
"..............  ",
"............... ",
" ...............",
" .............. ",
"  ............. ",
"  ............  ",
"   ..........   ",
"                ",
"                "};
