/* XPM */
static char * FontAwesome_f073_xpm[] = {
"19 21 2 1",
" 	c None",
".	c #000000",
"                   ",
"   ....     ...    ",
"   .  .    .  .    ",
"   .  .    .  .    ",
"....  ......  .... ",
"....  ......  .... ",
".................. ",
".................. ",
".    .   .   .   . ",
".    .   .   .   . ",
".    .   .   .   . ",
".................. ",
".    .   .   .   . ",
".    .   .   .   . ",
".    .   .   .   . ",
".................. ",
".    .   .   .   . ",
".    .   .   .   . ",
".    .   .   .   . ",
".................. ",
" ................. "};
