/* XPM */
static char * FontAwesome_f002_xpm[] = {
"19 21 80 1",
" 	c #FFFFFF",
".	c #F6F6F6",
"+	c #AFAFAF",
"@	c #6B6B6B",
"#	c #4E4E4E",
"$	c #525252",
"%	c #717171",
"&	c #B9B9B9",
"*	c #FBFBFB",
"=	c #A2A2A2",
"-	c #1A1A1A",
";	c #000000",
">	c #282828",
",	c #BABABA",
"'	c #FEFEFE",
")	c #6F6F6F",
"!	c #010101",
"~	c #919191",
"{	c #8C8C8C",
"]	c #303030",
"^	c #959595",
"/	c #C8C8C8",
"(	c #C1C1C1",
"_	c #8E8E8E",
":	c #202020",
"<	c #B1B1B1",
"[	c #E2E2E2",
"}	c #080808",
"|	c #757575",
"1	c #FAFAFA",
"2	c #F3F3F3",
"3	c #595959",
"4	c #1C1C1C",
"5	c #7A7A7A",
"6	c #464646",
"7	c #A0A0A0",
"8	c #2F2F2F",
"9	c #CBCBCB",
"0	c #A6A6A6",
"a	c #565656",
"b	c #0E0E0E",
"c	c #070707",
"d	c #F9F9F9",
"e	c #DDDDDD",
"f	c #343434",
"g	c #0F0F0F",
"h	c #EAEAEA",
"i	c #323232",
"j	c #232323",
"k	c #DBDBDB",
"l	c #B5B5B5",
"m	c #656565",
"n	c #4C4C4C",
"o	c #8D8D8D",
"p	c #B3B3B3",
"q	c #F0F0F0",
"r	c #5C5C5C",
"s	c #D6D6D6",
"t	c #FCFCFC",
"u	c #CECECE",
"v	c #545454",
"w	c #5B5B5B",
"x	c #F5F5F5",
"y	c #373737",
"z	c #0A0A0A",
"A	c #999999",
"B	c #606060",
"C	c #363636",
"D	c #989898",
"E	c #6C6C6C",
"F	c #292929",
"G	c #0D0D0D",
"H	c #181818",
"I	c #3E3E3E",
"J	c #E8E8E8",
"K	c #5D5D5D",
"L	c #979797",
"M	c #626262",
"N	c #818181",
"O	c #D1D1D1",
"                   ",
"                   ",
"    .+@#$%&*       ",
"   =-;;;;;;>,      ",
" ');;;;;;;;;!~     ",
" {;;;]^/(_:;;;<    ",
"[};;|1    23;;4.   ",
"5;;6'      .>;;7   ",
"8;;9        0;;a   ",
"b;cd        e;;f   ",
"};g'        h;;i   ",
"j;;k        l;;3   ",
"m;;%       'n;;o   ",
"/;;!p      ~;;gq   ",
" r;;;@st1uv;;;w    ",
" xy;;;;zc;;;;;;A   ",
"  xB;;;;;;;}C;;;D  ",
"    uEFGHI5JtK;;;L ",
"             tK;;;<",
"              tK;;M",
"               tN6O"};
