/* XPM */
static char * font_mfizz_f10d_xpm[] = {
"21 21 2 1",
" 	c None",
".	c #000000",
"                     ",
"                     ",
"                     ",
"    ......         . ",
"   ..    ..    .   . ",
"  ..      ..   .   ..",
" ..        .   ......",
" ..           .... . ",
" ..            .   . ",
" ..            .   . ",
" ..            .   . ",
" ..            . ....",
"  .        .  ...... ",
"  ..      ..  ..   . ",
"   ..    ..    .   . ",
"    ......     .     ",
"                     ",
"                     ",
"                     ",
"                     ",
"                     "};
