/* XPM */
static char * FontAwesome_f073_xpm[] = {
"19 21 50 1",
" 	c #FFFFFF",
".	c #F0F0F0",
"+	c #DBDBDB",
"@	c #F8F8F8",
"#	c #F1F1F1",
"$	c #F7F7F7",
"%	c #FEFEFE",
"&	c #717171",
"*	c #010101",
"=	c #000000",
"-	c #4F4F4F",
";	c #8C8C8C",
">	c #030303",
",	c #333333",
"'	c #E3E3E3",
")	c #9B9B9B",
"!	c #A1A1A1",
"~	c #0B0B0B",
"{	c #0A0A0A",
"]	c #828282",
"^	c #B7B7B7",
"/	c #E5E5E5",
"(	c #F5F5F5",
"_	c #B8B8B8",
":	c #9A9A9A",
"<	c #D7D7D7",
"[	c #BDBDBD",
"}	c #3A3A3A",
"|	c #262626",
"1	c #FCFCFC",
"2	c #FBFBFB",
"3	c #D8D8D8",
"4	c #D4D4D4",
"5	c #1E1E1E",
"6	c #343434",
"7	c #191919",
"8	c #373737",
"9	c #3F3F3F",
"0	c #4B4B4B",
"a	c #6B6B6B",
"b	c #7F7F7F",
"c	c #A7A7A7",
"d	c #C7C7C7",
"e	c #0D0D0D",
"f	c #5A5A5A",
"g	c #E4E4E4",
"h	c #909090",
"i	c #242424",
"j	c #232323",
"k	c #707070",
"    .+@     #+$    ",
"  %&*=-    ;>=,    ",
"  '=)!~    {]^=/   ",
"(_:= <=^^^^=< =:[@ ",
"}=== <======< ===|1",
"====23======4 ====3",
"====56======78====<",
"==================<",
"=<   =   =   =   =<",
"=<   =   =   =   =<",
"=<   =   =   =   =<",
"=9000=000=000=000=<",
"=<   =   =   =   =<",
"=<   =   =   =   =<",
"=<   =   =   =   =<",
"=abbb=bbb=bbb=bbb=<",
"=cddd=ddd=ddd=ddd=<",
"=<   =   =   =   =<",
"=<   =   =   =   =<",
"efaaa=aaa=aaa=aaa=g",
"hijjjjjjjjjjjjjjjk "};
