/* XPM */
static char * FontAwesome_f1d2_xpm[] = {
"17 21 84 1",
" 	c #FFFFFF",
".	c #C9C9C9",
"+	c #686868",
"@	c #474747",
"#	c #656565",
"$	c #C6C6C6",
"%	c #B9B9B9",
"&	c #030303",
"*	c #000000",
"=	c #020202",
"-	c #B7B7B7",
";	c #333333",
">	c #343434",
",	c #050505",
"'	c #AEAEAE",
")	c #BABABA",
"!	c #0B0B0B",
"~	c #616161",
"{	c #0A0A0A",
"]	c #6F6F6F",
"^	c #EBEBEB",
"/	c #C4C4C4",
"(	c #BBBBBB",
"_	c #E5E5E5",
":	c #E7E7E7",
"<	c #F0F0F0",
"[	c #1F1F1F",
"}	c #080808",
"|	c #F7F7F7",
"1	c #767676",
"2	c #F8F8F8",
"3	c #B0B0B0",
"4	c #9C9C9C",
"5	c #646464",
"6	c #0C0C0C",
"7	c #111111",
"8	c #FEFEFE",
"9	c #0F0F0F",
"0	c #E6E6E6",
"a	c #6A6A6A",
"b	c #636363",
"c	c #070707",
"d	c #B3B3B3",
"e	c #ECECEC",
"f	c #D6D6D6",
"g	c #101010",
"h	c #626262",
"i	c #5B5B5B",
"j	c #CBCBCB",
"k	c #515151",
"l	c #484848",
"m	c #0D0D0D",
"n	c #575757",
"o	c #121212",
"p	c #151515",
"q	c #EDEDED",
"r	c #202020",
"s	c #AAAAAA",
"t	c #DBDBDB",
"u	c #FCFCFC",
"v	c #939393",
"w	c #171717",
"x	c #161616",
"y	c #131313",
"z	c #181818",
"A	c #EEEEEE",
"B	c #EAEAEA",
"C	c #010101",
"D	c #DEDEDE",
"E	c #E3E3E3",
"F	c #FDFDFD",
"G	c #797979",
"H	c #0E0E0E",
"I	c #4E4E4E",
"J	c #505050",
"K	c #525252",
"L	c #1D1D1D",
"M	c #242424",
"N	c #212121",
"O	c #DDDDDD",
"P	c #F4F4F4",
"Q	c #B2B2B2",
"R	c #AFAFAF",
"S	c #F2F2F2",
"                 ",
"                 ",
" .+@@@@@@@@@@@#$ ",
"%&*************=-",
";***************>",
",********'******,",
"*********)*&!****",
"***********~ {***",
"***]^/(_&:=< :[**",
"**}|12 3* *4 56**",
"**7890 a* *b c***",
"***de fg* *h c***",
"***ijkc** *l hm**",
"***#fno*& *pq8r**",
"***st_uv*w**{x***",
"**y8z,AB*********",
"m*CDEeFG********H",
"I**6JKL*********I",
"DM*************NO",
" PQvvvvvvvvvvvRS ",
"                 "};
