/* XPM */
static char * FontAwesome_f023_xpm[] = {
"14 21 2 1",
" 	c None",
".	c #000000",
"              ",
"              ",
"      ..      ",
"    ......    ",
"   ........   ",
"  ...    ...  ",
"  ..      ..  ",
"  ..      ..  ",
"  ..      ..  ",
" ............ ",
" .............",
" .............",
" .............",
" .............",
" .............",
" .............",
" .............",
" ............ ",
"              ",
"              ",
"              "};
