/* XPM */
static char * FontAwesome_f023_xpm[] = {
"14 21 48 1",
" 	c #FFFFFF",
".	c #F1F1F1",
"+	c #959595",
"@	c #616161",
"#	c #595959",
"$	c #8C8C8C",
"%	c #E5E5E5",
"&	c #C0C0C0",
"*	c #1D1D1D",
"=	c #000000",
"-	c #101010",
";	c #A8A8A8",
">	c #E4E4E4",
",	c #111111",
"'	c #1F1F1F",
")	c #797979",
"!	c #808080",
"~	c #2D2D2D",
"{	c #040404",
"]	c #CDCDCD",
"^	c #626262",
"/	c #313131",
"(	c #F3F3F3",
"_	c #FAFAFA",
":	c #4D4D4D",
"<	c #3F3F3F",
"[	c #262626",
"}	c #B0B0B0",
"|	c #D4D4D4",
"1	c #080808",
"2	c #D9D9D9",
"3	c #FDFDFD",
"4	c #DCDCDC",
"5	c #DBDBDB",
"6	c #F2F2F2",
"7	c #7D7D7D",
"8	c #585858",
"9	c #676767",
"0	c #666666",
"a	c #E6E6E6",
"b	c #9F9F9F",
"c	c #7B7B7B",
"d	c #939393",
"e	c #6F6F6F",
"f	c #D3D3D3",
"g	c #181818",
"h	c #030303",
"i	c #B8B8B8",
"              ",
"              ",
"    .+@#$%    ",
"   &*====-;   ",
"  >,=')!~={]  ",
"  ^=/(  _:=<  ",
"  [=}    |=1_ ",
"  ==2    3==4 ",
"  ==5     ==5 ",
"67==899999==0a",
"b============c",
"d============e",
"d============e",
"d============e",
"d============e",
"d============e",
"d============e",
"fghhhhhhhhhh-i",
"              ",
"              ",
"              "};
