/* XPM */
static char * FontAwesome_f1c6_xpm[] = {
"17 21 62 1",
" 	c #F3F3F3",
".	c #D7D7D7",
"+	c #F0F0F0",
"@	c #FFFFFF",
"#	c #272727",
"$	c #000000",
"%	c #343434",
"&	c #B8B8B8",
"*	c #9D9D9D",
"=	c #BBBBBB",
"-	c #696969",
";	c #111111",
">	c #767676",
",	c #FAFAFA",
"'	c #BFBFBF",
")	c #4B4B4B",
"!	c #E2E2E2",
"~	c #E8E8E8",
"{	c #565656",
"]	c #3A3A3A",
"^	c #B1B1B1",
"/	c #1B1B1B",
"(	c #121212",
"_	c #B5B5B5",
":	c #E4E4E4",
"<	c #424242",
"[	c #686868",
"}	c #020202",
"|	c #A7A7A7",
"1	c #A1A1A1",
"2	c #868686",
"3	c #787878",
"4	c #8F8F8F",
"5	c #404040",
"6	c #1F1F1F",
"7	c #2B2B2B",
"8	c #FCFCFC",
"9	c #707070",
"0	c #0B0B0B",
"a	c #030303",
"b	c #676767",
"c	c #FEFEFE",
"d	c #DBDBDB",
"e	c #B9B9B9",
"f	c #A4A4A4",
"g	c #7E7E7E",
"h	c #6E6E6E",
"i	c #474747",
"j	c #383838",
"k	c #0A0A0A",
"l	c #848484",
"m	c #AEAEAE",
"n	c #232323",
"o	c #454545",
"p	c #626262",
"q	c #050505",
"r	c #262626",
"s	c #151515",
"t	c #9B9B9B",
"u	c #010101",
"v	c #6B6B6B",
"w	c #6A6A6A",
" ........+@@@@@@@",
"#$$$$$$$$$%&@@@@@",
"$*====$*$-;$>,@@@",
"$.@@@')!$.~{$]!@@",
"$.@@@#@@$.@@^/(_@",
"$.@@@:<@$.@@@+[}|",
"$.@@@12@$34444456",
"$.@@@78@90aaaaa}$",
"$.@@@@#@@@@@@@@.$",
"$.@@@b'@@@@@@@@.$",
"$.@@c$&c@@@@@@@.$",
"$.@@d$$e@@@@@@@.$",
"$.@@f$$g@@@@@@@.$",
"$.@@h$$i@@@@@@@.$",
"$.@@j$$;c@@@@@@.$",
"$.@@klm$!@@@@@@.$",
"$.@@nopq @@@@@@.$",
"$.@@'rst@@@@@@@.$",
"$.@@@@@@@@@@@@@.$",
"u{bbbbbbbbbbbbb{u",
"v###############w"};
