/* XPM */
static char * font_mfizz_f115_xpm[] = {
"20 21 2 1",
" 	c None",
".	c #000000",
"                    ",
"          .         ",
"         ..         ",
"        ...         ",
"       ....         ",
"      ......        ",
"      ......        ",
"     ........       ",
"     .........      ",
"     ..........     ",
"    ...........     ",
"    ............    ",
"    ............    ",
"    ............    ",
"    ............    ",
"    ............    ",
"     ...........    ",
"     ..   .....     ",
"      ...  ...      ",
"        .....       ",
"                    "};
