/* XPM */
static char * FontAwesome_f11c_xpm[] = {
"22 21 44 1",
" 	c #FFFFFF",
".	c #8C8C8C",
"+	c #202020",
"@	c #1F1F1F",
"#	c #6A6A6A",
"$	c #0C0C0C",
"%	c #5D5D5D",
"&	c #6F6F6F",
"*	c #000000",
"=	c #E3E3E3",
"-	c #D7D7D7",
";	c #FEFEFE",
">	c #FBFBFB",
",	c #D9D9D9",
"'	c #010101",
")	c #020202",
"!	c #DBDBDB",
"~	c #F1F1F1",
"{	c #9A9A9A",
"]	c #F3F3F3",
"^	c #E1E1E1",
"/	c #DADADA",
"(	c #DDDDDD",
"_	c #E7E7E7",
":	c #232323",
"<	c #272727",
"[	c #F7F7F7",
"}	c #BBBBBB",
"|	c #C9C9C9",
"1	c #BEBEBE",
"2	c #C1C1C1",
"3	c #D0D0D0",
"4	c #F6F6F6",
"5	c #B6B6B6",
"6	c #B3B3B3",
"7	c #FCFCFC",
"8	c #DFDFDF",
"9	c #070707",
"0	c #787878",
"a	c #8F8F8F",
"b	c #737373",
"c	c #040404",
"d	c #030303",
"e	c #4F4F4F",
"                      ",
"                      ",
"                      ",
"                      ",
"                      ",
".+@@@@@@@@@@@@@@@@@@# ",
"$%&&&&&&&&&&&&&&&&&&*=",
"*-;> ;> > > >;   >; *-",
"*-,' ,' )!)!',   ', *-",
"*-~{ ~{ {]{]{~   *- *-",
"*->--^ />(>(>_---*- *-",
"*--**: *-*-*-<****- *-",
"*-[}}| 1[2[2[3}}}}[ *-",
"*-45 466666664   54 *-",
"*--* -*******-   *- *-",
"*-7^ 788888887   ^7 *-",
"90aaaaaaaaaaaaaaaaaa*8",
"bcdddddddddddddddddde;",
"                      ",
"                      ",
"                      "};
