/* XPM */
static char * font_mfizz_f115_xpm[] = {
"20 21 63 1",
" 	c #FFFFFF",
".	c #FDFDFD",
"+	c #AEAEAE",
"@	c #5E5E5E",
"#	c #A9A9A9",
"$	c #020202",
"%	c #424242",
"&	c #D2D2D2",
"*	c #090909",
"=	c #000000",
"-	c #1F1F1F",
";	c #F7F7F7",
">	c #272727",
",	c #E1E1E1",
"'	c #808080",
")	c #7B7B7B",
"!	c #E5E5E5",
"~	c #080808",
"{	c #D8D8D8",
"]	c #777777",
"^	c #292929",
"/	c #EFEFEF",
"(	c #101010",
"_	c #3D3D3D",
":	c #F6F6F6",
"<	c #B4B4B4",
"[	c #494949",
"}	c #FCFCFC",
"|	c #676767",
"1	c #878787",
"2	c #343434",
"3	c #0F0F0F",
"4	c #F8F8F8",
"5	c #BBBBBB",
"6	c #060606",
"7	c #A4A4A4",
"8	c #1A1A1A",
"9	c #B5B5B5",
"0	c #4F4F4F",
"a	c #E2E2E2",
"b	c #ABABAB",
"c	c #030303",
"d	c #393939",
"e	c #FEFEFE",
"f	c #131313",
"g	c #CBCBCB",
"h	c #999999",
"i	c #505050",
"j	c #010101",
"k	c #BDBDBD",
"l	c #E7E7E7",
"m	c #2A2A2A",
"n	c #454545",
"o	c #8A8A8A",
"p	c #A8A8A8",
"q	c #282828",
"r	c #939393",
"s	c #8B8B8B",
"t	c #2B2B2B",
"u	c #CECECE",
"v	c #FBFBFB",
"w	c #EAEAEA",
"x	c #FAFAFA",
"          .         ",
"         +@         ",
"        #$%         ",
"       &*=-         ",
"      ;>===,        ",
"      '====)        ",
"     !~====*{       ",
"     ]======^/      ",
"    ;(=======_:     ",
"    <=========[}    ",
"    |==========1    ",
"    2==========34   ",
"    3===========5   ",
"    6===========7   ",
"    8===========9   ",
"    0===========a   ",
"    b=c========d    ",
"    edfbghij===k    ",
"     lm=nopq=cr     ",
"      ;stj=~iu      ",
"         vwx        "};
