/* XPM */
static char * FontAwesome_f1ad_xpm[] = {
"17 21 43 1",
" 	c #EEEEEE",
".	c #DBDBDB",
"+	c #F4F4F4",
"@	c #FFFFFF",
"#	c #121212",
"$	c #000000",
"%	c #363636",
"&	c #232323",
"*	c #373737",
"=	c #2F2F2F",
"-	c #3B3B3B",
";	c #1D1D1D",
">	c #F9F9F9",
",	c #D3D3D3",
"'	c #FBFBFB",
")	c #171717",
"!	c #141414",
"~	c #1A1A1A",
"{	c #040404",
"]	c #5B5B5B",
"^	c #454545",
"/	c #575757",
"(	c #191919",
"_	c #CACACA",
":	c #F3F3F3",
"<	c #0A0A0A",
"[	c #828282",
"}	c #6F6F6F",
"|	c #868686",
"1	c #ACACAC",
"2	c #CFCFCF",
"3	c #0F0F0F",
"4	c #A6A6A6",
"5	c #8D8D8D",
"6	c #AAAAAA",
"7	c #8E8E8E",
"8	c #ABABAB",
"9	c #CECECE",
"0	c #6B6B6B",
"a	c #878787",
"b	c #D7D7D7",
"c	c #494949",
"d	c #696969",
" ..............+@",
"#$$$$$$$$$$$$$$%@",
"$$$$$$$$$$$$$$$&@",
"$$$*$=-$=-$=-$$&@",
"$$;>$,'$,'$,'$$&@",
"$$$)$!~$!~$!~$$&@",
"$${]$^/$^/$^/$$&@",
"$$( $_:$_:$_:$$&@",
"$$$$$$$$$$$$$$$&@",
"$$<[$}|$}|$}|$$&@",
"$$!_$12$12$12$$&@",
"$$$$$$$$$$$$$$$&@",
"$$34$56$56$56$$&@",
"$$34$78$78$78$$&@",
"$$$$$$$$$$$$$$$&@",
"$$!_$$$$$$$19$$&@",
"$$<[$^000/$}a$$&@",
"$$$$$b@@@@$$$$$&@",
"$$$$$b@@@@$$$$$&@",
"$$$$$^000/$$$$$&@",
"c&&&&&&&&&&&&&&d@"};
