/* XPM */
static char * font_mfizz_f148_xpm[] = {
"21 21 100 2",
"  	c #FFFFFF",
". 	c #F8F8F8",
"+ 	c #B5B5B5",
"@ 	c #878787",
"# 	c #AFAFAF",
"$ 	c #FDFDFD",
"% 	c #FAFAFA",
"& 	c #D9D9D9",
"* 	c #8D8D8D",
"= 	c #303030",
"- 	c #797979",
"; 	c #BBBBBB",
"> 	c #191919",
", 	c #000000",
"' 	c #5C5C5C",
") 	c #272727",
"! 	c #B3B3B3",
"~ 	c #E0E0E0",
"{ 	c #121212",
"] 	c #CBCBCB",
"^ 	c #C9C9C9",
"/ 	c #505050",
"( 	c #6F6F6F",
"_ 	c #1E1E1E",
": 	c #3D3D3D",
"< 	c #525252",
"[ 	c #757575",
"} 	c #989898",
"| 	c #010101",
"1 	c #848484",
"2 	c #1A1A1A",
"3 	c #ABABAB",
"4 	c #040404",
"5 	c #0B0B0B",
"6 	c #E5E5E5",
"7 	c #444444",
"8 	c #404040",
"9 	c #FCFCFC",
"0 	c #898989",
"a 	c #101010",
"b 	c #A1A1A1",
"c 	c #D4D4D4",
"d 	c #2C2C2C",
"e 	c #393939",
"f 	c #E4E4E4",
"g 	c #C6C6C6",
"h 	c #070707",
"i 	c #535353",
"j 	c #141414",
"k 	c #222222",
"l 	c #2B2B2B",
"m 	c #020202",
"n 	c #DFDFDF",
"o 	c #545454",
"p 	c #AEAEAE",
"q 	c #050505",
"r 	c #0F0F0F",
"s 	c #FEFEFE",
"t 	c #313131",
"u 	c #8C8C8C",
"v 	c #656565",
"w 	c #C0C0C0",
"x 	c #D0D0D0",
"y 	c #5D5D5D",
"z 	c #E3E3E3",
"A 	c #F5F5F5",
"B 	c #424242",
"C 	c #343434",
"D 	c #E7E7E7",
"E 	c #3A3A3A",
"F 	c #9C9C9C",
"G 	c #C1C1C1",
"H 	c #D2D2D2",
"I 	c #767676",
"J 	c #6E6E6E",
"K 	c #616161",
"L 	c #CDCDCD",
"M 	c #B7B7B7",
"N 	c #858585",
"O 	c #8E8E8E",
"P 	c #F4F4F4",
"Q 	c #494949",
"R 	c #F9F9F9",
"S 	c #7B7B7B",
"T 	c #E2E2E2",
"U 	c #686868",
"V 	c #969696",
"W 	c #AAAAAA",
"X 	c #939393",
"Y 	c #060606",
"Z 	c #212121",
"` 	c #4B4B4B",
" .	c #F6F6F6",
"..	c #EAEAEA",
"+.	c #BDBDBD",
"@.	c #EFEFEF",
"#.	c #BFBFBF",
"$.	c #B6B6B6",
"%.	c #FBFBFB",
"&.	c #3F3F3F",
"                      . + @ # $           ",
"  % & * = -         ; > , , , '           ",
"  ) , , , , !     ~ { , , , , , ]         ",
"  ^ / , , , (   ; _ , , , , , , : $       ",
"    < , , , [ } | , , , , , , , , 1       ",
"    2 , , , 3 4 , , , , , , , , , 5 6     ",
"    ) , , , 7 , , , , , , , , , , , 8 9   ",
"    / , , , , , , , , , , , , , , , | 0   ",
"    & a , , , , , , , , , , , , , , b /   ",
"      c d , , , , , , , , , , e 5 , f /   ",
"        % g ^ h , i j , k l m n o , p *   ",
"              q r s t , u v d   w , x $   ",
"              2 y z , _ A 1 B     C D     ",
"              E F G , H   I J     K L     ",
"              / M s N O P Q R     S T     ",
"              U 9     V 2 W       X       ",
"            $ <     s * Y Z       `  .    ",
"            ..+.    @.#.f $.    %.&.c     ",
"                                          ",
"                                          ",
"                                          "};
