/* XPM */
static char * font_mfizz_f107_xpm[] = {
"20 21 2 1",
" 	c None",
".	c #000000",
"                    ",
"    .......         ",
"   ..........       ",
"  ............      ",
" ......  .....      ",
" .....    ....      ",
".....      ...      ",
".....               ",
".....               ",
".....               ",
".....      .        ",
"......    ....      ",
" ......  .....      ",
"  ............      ",
"  ...........       ",
"    ........        ",
"       .            ",
"                    ",
"                    ",
"                    ",
"                    "};
