/* XPM */
static char * FontAwesome_f013_xpm[] = {
"17 21 76 1",
" 	c #FFFFFF",
".	c #ECECEC",
"+	c #4E4E4E",
"@	c #474747",
"#	c #EEEEEE",
"$	c #EDEDED",
"%	c #FDFDFD",
"&	c #BABABA",
"*	c #000000",
"=	c #BDBDBD",
"-	c #FCFCFC",
";	c #E8E8E8",
">	c #C1C1C1",
",	c #141414",
"'	c #494949",
")	c #EAEAEA",
"!	c #767676",
"~	c #797979",
"{	c #E9E9E9",
"]	c #101010",
"^	c #CFCFCF",
"/	c #D0D0D0",
"(	c #0C0C0C",
"_	c #030303",
":	c #D7D7D7",
"<	c #020202",
"[	c #C9C9C9",
"}	c #818181",
"|	c #878787",
"1	c #FAFAFA",
"2	c #7C7C7C",
"3	c #2B2B2B",
"4	c #C0C0C0",
"5	c #F1F1F1",
"6	c #BFBFBF",
"7	c #7F7F7F",
"8	c #FEFEFE",
"9	c #343434",
"0	c #040404",
"a	c #090909",
"b	c #E1E1E1",
"c	c #E0E0E0",
"d	c #0D0D0D",
"e	c #434343",
"f	c #404040",
"g	c #3F3F3F",
"h	c #323232",
"i	c #313131",
"j	c #8E8E8E",
"k	c #585858",
"l	c #171717",
"m	c #111111",
"n	c #4B4B4B",
"o	c #A0A0A0",
"p	c #080808",
"q	c #7A7A7A",
"r	c #AAAAAA",
"s	c #9D9D9D",
"t	c #525252",
"u	c #484848",
"v	c #ACACAC",
"w	c #9E9E9E",
"x	c #F3F3F3",
"y	c #3A3A3A",
"z	c #353535",
"A	c #393939",
"B	c #2C2C2C",
"C	c #8B8B8B",
"D	c #9F9F9F",
"E	c #9C9C9C",
"F	c #8D8D8D",
"G	c #C7C7C7",
"H	c #C6C6C6",
"I	c #9A9A9A",
"J	c #939393",
"K	c #F9F9F9",
"                 ",
"                 ",
"      .+@+#      ",
"   $% &***= -;   ",
"  >,')!***~{@]^  ",
" /(**_*****_**,: ",
" ><***********_[ ",
"  }***********|  ",
" 12***34563***78 ",
"90***ab   ca***de",
"*****f     g*****",
"*****h     i*****",
"jkl***=   =***mn}",
"  o***pqr~p***s  ",
" 8t***********u% ",
" v*************w ",
" xy**za***aA**B# ",
"  5eC8D***E8Fn)  ",
"      G***H      ",
"      1IJIK      ",
"                 "};
