/* XPM */
static char * FontAwesome_f128_xpm[] = {
"12 21 2 1",
" 	c None",
".	c #000000",
"            ",
"            ",
"            ",
"            ",
"   ......   ",
"  ........  ",
" .......... ",
" ....   ... ",
"        ... ",
"       .... ",
"     ...... ",
"    .....   ",
"    ....    ",
"    ....    ",
"    ....    ",
"    ....    ",
"    ....    ",
"    ....    ",
"            ",
"            ",
"            "};
