/* XPM */
static char * FontAwesome_f0f6_xpm[] = {
"17 21 42 1",
" 	c #F5F5F5",
".	c #DBDBDB",
"+	c #F8F8F8",
"@	c #FFFFFF",
"#	c #2A2A2A",
"$	c #000000",
"%	c #070707",
"&	c #7C7C7C",
"*	c #FDFDFD",
"=	c #9A9A9A",
"-	c #B7B7B7",
";	c #525252",
">	c #636363",
",	c #D7D7D7",
"'	c #999999",
")	c #020202",
"!	c #616161",
"~	c #FCFCFC",
"{	c #ADADAD",
"]	c #060606",
"^	c #5F5F5F",
"/	c #BFBFBF",
"(	c #0E0E0E",
"_	c #828282",
":	c #7B7B7B",
"<	c #939393",
"[	c #545454",
"}	c #181818",
"|	c #555555",
"1	c #8B8B8B",
"2	c #6B6B6B",
"3	c #A6A6A6",
"4	c #4B4B4B",
"5	c #232323",
"6	c #727272",
"7	c #474747",
"8	c #8C8C8C",
"9	c #717171",
"0	c #5A5A5A",
"a	c #010101",
"b	c #676767",
"c	c #666666",
" ..........+@@@@@",
"#$$$$$$$$$$%&*@@@",
"$=--------$;$>*@@",
"$,@@@@@@@@$,')!~@",
"$,@@@@@@@@$,@{]^~",
"$,@@@@@@@@$,@@/(_",
"$,@@@@@@@@$:<<<[}",
"$,@@@@@@@@|$$$$$$",
"$,@@@@@@@@@@@@@,$",
"$,@@122222223@@,$",
"$,@@455555556@@,$",
"$,@@@@@@@@@@@@@,$",
"$,@@277777771@@,$",
"$,@@277777778@@,$",
"$,@@@@@@@@@@@@@,$",
"$,@@455555559@@,$",
"$,@@122222223@@,$",
"$,@@@@@@@@@@@@@,$",
"$,@@@@@@@@@@@@@,$",
"$022222222222220a",
"b555555555555555c"};
