/* XPM */
static char * font_mfizz_f148_xpm[] = {
"21 21 2 1",
" 	c None",
".	c #000000",
"                     ",
"    ..     .....     ",
" .....    ......     ",
"  .....  ........    ",
"  ..... .........    ",
"  .... ...........   ",
"  .................  ",
"  .................  ",
"   ............... . ",
"    .............. . ",
"       ........ ..   ",
"       .. .. ..  .   ",
"       .. ..  .  .   ",
"       .  .  ..  .   ",
"       .     .   .   ",
"       .    .        ",
"       .    ..   .   ",
"                 .   ",
"                     ",
"                     ",
"                     "};
