/* XPM */
static char * font_mfizz_f10c_xpm[] = {
"20 21 83 1",
" 	c #FFFFFF",
".	c #F4F4F4",
"+	c #D7D7D7",
"@	c #C9C9C9",
"#	c #D8D8D8",
"$	c #FBFBFB",
"%	c #BABABA",
"&	c #434343",
"*	c #050505",
"=	c #000000",
"-	c #0A0A0A",
";	c #545454",
">	c #C8C8C8",
",	c #FEFEFE",
"'	c #717171",
")	c #363636",
"!	c #737373",
"~	c #868686",
"{	c #747474",
"]	c #393939",
"^	c #010101",
"/	c #CDCDCD",
"(	c #858585",
"_	c #111111",
":	c #B9B9B9",
"<	c #CFCFCF",
"[	c #3A3A3A",
"}	c #C3C3C3",
"|	c #E2E2E2",
"1	c #BFBFBF",
"2	c #FAFAFA",
"3	c #EFEFEF",
"4	c #7B7B7B",
"5	c #4B4B4B",
"6	c #B6B6B6",
"7	c #D4D4D4",
"8	c #9B9B9B",
"9	c #F3F3F3",
"0	c #8F8F8F",
"a	c #141414",
"b	c #C5C5C5",
"c	c #040404",
"d	c #7C7C7C",
"e	c #3B3B3B",
"f	c #0F0F0F",
"g	c #B3B3B3",
"h	c #F6F6F6",
"i	c #212121",
"j	c #242424",
"k	c #CACACA",
"l	c #F7F7F7",
"m	c #E8E8E8",
"n	c #404040",
"o	c #898989",
"p	c #949494",
"q	c #2B2B2B",
"r	c #A9A9A9",
"s	c #666666",
"t	c #656565",
"u	c #818181",
"v	c #B4B4B4",
"w	c #BCBCBC",
"x	c #0B0B0B",
"y	c #FDFDFD",
"z	c #525252",
"A	c #353535",
"B	c #EBEBEB",
"C	c #727272",
"D	c #C4C4C4",
"E	c #333333",
"F	c #121212",
"G	c #787878",
"H	c #C6C6C6",
"I	c #797979",
"J	c #1A1A1A",
"K	c #080808",
"L	c #191919",
"M	c #8B8B8B",
"N	c #F1F1F1",
"O	c #B1B1B1",
"P	c #8D8D8D",
"Q	c #808080",
"R	c #929292",
"     .+@#$          ",
"   %&*===-;>        ",
" ,'==)!~{]^^/       ",
" (=_:     <[}       ",
"|*^1       23       ",
"4=5     $6      7#  ",
"]=8     9&      08  ",
"a=b     9&      08  ",
"c=7   de]feegheeijee",
"f=k   l9mn99$ 99op99",
"q=r     9&      08  ",
"s=t     lu      vw  ",
"b=x|        y       ",
" z=AB     hCD       ",
" 3E=FGvHvIJ=}       ",
"  .'K=====LM2       ",
"    NOPQR}$         ",
"                    ",
"                    ",
"                    ",
"                    "};
