/* XPM */
static char * FontAwesome_f1de_xpm[] = {
"18 21 47 1",
" 	c #FFFFFF",
".	c #DFDFDF",
"+	c #B3B3B3",
"@	c #B5B5B5",
"#	c #F4F4F4",
"$	c #3B3B3B",
"%	c #000000",
"&	c #8C8C8C",
"*	c #1F1F1F",
"=	c #424242",
"-	c #333333",
";	c #606060",
">	c #6F6F6F",
",	c #858585",
"'	c #6C6C6C",
")	c #5D5D5D",
"!	c #030303",
"~	c #050505",
"{	c #A8A8A8",
"]	c #C2C2C2",
"^	c #676767",
"/	c #C4C4C4",
"(	c #D7D7D7",
"_	c #5B5B5B",
":	c #DDDDDD",
"<	c #272727",
"[	c #BBBBBB",
"}	c #C5C5C5",
"|	c #B0B0B0",
"1	c #4B4B4B",
"2	c #B2B2B2",
"3	c #CBCBCB",
"4	c #252525",
"5	c #585858",
"6	c #8F8F8F",
"7	c #7F7F7F",
"8	c #131313",
"9	c #AEAEAE",
"0	c #A0A0A0",
"a	c #494949",
"b	c #2A2A2A",
"c	c #A3A3A3",
"d	c #171717",
"e	c #F2F2F2",
"f	c #9D9D9D",
"g	c #979797",
"h	c #C0C0C0",
"                  ",
"                  ",
"                  ",
"   .++@#          ",
"   $%%%&          ",
"**=-%%%;*********=",
">>,-%%%'>>>>>>>>>,",
"   )!!~{          ",
"                  ",
"          ]^^^/   ",
"((((((((((_%%%_((:",
"%%%%%%%%%%_%%%_%%<",
"[[[[[[[[[[_%%%_[[}",
"          |1112   ",
"                  ",
"    34**5         ",
"66667%%%8966666660",
"!!!!5%%%8a!!!!!!!b",
"    c%%%d         ",
"    efggh         ",
"                  "};
