/* XPM */
static char * font_mfizz_f10a_xpm[] = {
"22 21 133 2",
"  	c #FFFFFF",
". 	c #DADADA",
"+ 	c #AEAEAE",
"@ 	c #8B8B8B",
"# 	c #909090",
"$ 	c #A5A5A5",
"% 	c #DDDDDD",
"& 	c #FBFBFB",
"* 	c #999999",
"= 	c #292929",
"- 	c #000000",
"; 	c #2A2A2A",
"> 	c #9C9C9C",
", 	c #FDFDFD",
"' 	c #DEDEDE",
") 	c #303030",
"! 	c #D5D5D5",
"~ 	c #1C1C1C",
"{ 	c #1F1F1F",
"] 	c #0D0D0D",
"^ 	c #121212",
"/ 	c #D1D1D1",
"( 	c #D0D0D0",
"_ 	c #FCFCFC",
": 	c #CFCFCF",
"< 	c #808080",
"[ 	c #BBBBBB",
"} 	c #E2E2E2",
"| 	c #B4B4B4",
"1 	c #606060",
"2 	c #050505",
"3 	c #1B1B1B",
"4 	c #EDEDED",
"5 	c #C1C1C1",
"6 	c #9D9D9D",
"7 	c #CDCDCD",
"8 	c #BEBEBE",
"9 	c #464646",
"0 	c #454545",
"a 	c #757575",
"b 	c #DCDCDC",
"c 	c #D2D2D2",
"d 	c #232323",
"e 	c #626262",
"f 	c #D6D6D6",
"g 	c #2B2B2B",
"h 	c #1A1A1A",
"i 	c #E5E5E5",
"j 	c #A1A1A1",
"k 	c #F5F5F5",
"l 	c #191919",
"m 	c #0A0A0A",
"n 	c #151515",
"o 	c #030303",
"p 	c #E7E7E7",
"q 	c #A9A9A9",
"r 	c #B6B6B6",
"s 	c #010101",
"t 	c #C9C9C9",
"u 	c #868686",
"v 	c #020202",
"w 	c #A7A7A7",
"x 	c #7D7D7D",
"y 	c #666666",
"z 	c #181818",
"A 	c #E4E4E4",
"B 	c #262626",
"C 	c #171717",
"D 	c #373737",
"E 	c #515151",
"F 	c #DBDBDB",
"G 	c #3C3C3C",
"H 	c #4E4E4E",
"I 	c #0F0F0F",
"J 	c #C0C0C0",
"K 	c #333333",
"L 	c #FAFAFA",
"M 	c #8E8E8E",
"N 	c #BFBFBF",
"O 	c #5F5F5F",
"P 	c #0E0E0E",
"Q 	c #484848",
"R 	c #787878",
"S 	c #4B4B4B",
"T 	c #111111",
"U 	c #343434",
"V 	c #F7F7F7",
"W 	c #D7D7D7",
"X 	c #EAEAEA",
"Y 	c #282828",
"Z 	c #141414",
"` 	c #5B5B5B",
" .	c #A2A2A2",
"..	c #B3B3B3",
"+.	c #ADADAD",
"@.	c #797979",
"#.	c #CCCCCC",
"$.	c #040404",
"%.	c #B5B5B5",
"&.	c #A8A8A8",
"*.	c #161616",
"=.	c #DFDFDF",
"-.	c #D8D8D8",
";.	c #131313",
">.	c #A4A4A4",
",.	c #474747",
"'.	c #AAAAAA",
").	c #9A9A9A",
"!.	c #5D5D5D",
"~.	c #676767",
"{.	c #222222",
"].	c #8F8F8F",
"^.	c #4D4D4D",
"/.	c #C5C5C5",
"(.	c #F2F2F2",
"_.	c #1D1D1D",
":.	c #5C5C5C",
"<.	c #B2B2B2",
"[.	c #D9D9D9",
"}.	c #D3D3D3",
"|.	c #B0B0B0",
"1.	c #646464",
"2.	c #6D6D6D",
"3.	c #949494",
"4.	c #A0A0A0",
"5.	c #929292",
"6.	c #8D8D8D",
"7.	c #D4D4D4",
"8.	c #2C2C2C",
"9.	c #9B9B9B",
"0.	c #242424",
"a.	c #888888",
"b.	c #A6A6A6",
"                . + @ # $ %                 ",
"          & * = - - - - - - ; > ,           ",
"        ' ) - - - - - - - - - - ) .         ",
"      ! ~ { ] - - - - - - - - - - ^ /       ",
"      ( _     : < [ } ' | 1 2 - - - 3 4     ",
"      , 5 6 7     8 9 0 a b c d - - - e     ",
"    f g - h i * j k l - - m > } n - - o %   ",
"  p h - - q r s o t u - - - v [ w - - - x   ",
"  y - - z , = - - 0 A v - - - B _ C - - D   ",
"  n - - E F - - - - A G - - - - f H - - I   ",
"  v - - 1 J - - - K L M - - - - N O - - s   ",
"  P - - Q f - - - r R } s - - - F S - - T   ",
"  U - - ^ V d - D W o X Q - - Y & Z - - `   ",
"  R - - -  ...s +.@.- * #.$.- %.&.- - *.=.  ",
"  -.s - - ;.A >.L ,.- B L '.).} h C !.%     ",
"    ~.- - - {.(   ].^.E /.    _ ,           ",
"    (._.- - - 2 :.<.[.}.|.1.2.3.4.5.6.,     ",
"      f 3 - - - - - - - - - - - - ^ 7.      ",
"        =.U - - - - - - - - - - 8.b         ",
"          , 9.g - - - - - - 0.5.L           ",
"                F $ M a.b./                 "};
