/* XPM */
static char * FontAwesome_f044_xpm[] = {
"20 21 86 1",
" 	c #FFFFFF",
".	c #BFBFBF",
"+	c #5E5E5E",
"@	c #434343",
"#	c #515151",
"$	c #A2A2A2",
"%	c #E6E6E6",
"&	c #787878",
"*	c #CCCCCC",
"=	c #B1B1B1",
"-	c #010101",
";	c #2D2D2D",
">	c #4B4B4B",
",	c #444444",
"'	c #ACACAC",
")	c #FAFAFA",
"!	c #2B2B2B",
"~	c #000000",
"{	c #0B0B0B",
"]	c #C4C4C4",
"^	c #313131",
"/	c #767676",
"(	c #FEFEFE",
"_	c #F4F4F4",
":	c #B3B3B3",
"<	c #A3A3A3",
"[	c #0C0C0C",
"}	c #E3E3E3",
"|	c #040404",
"1	c #D0D0D0",
"2	c #F6F6F6",
"3	c #020202",
"4	c #ABABAB",
"5	c #9F9F9F",
"6	c #CDCDCD",
"7	c #D7D7D7",
"8	c #F8F8F8",
"9	c #484848",
"0	c #1F1F1F",
"a	c #7F7F7F",
"b	c #050505",
"c	c #B9B9B9",
"d	c #9B9B9B",
"e	c #909090",
"f	c #F9F9F9",
"g	c #4D4D4D",
"h	c #0A0A0A",
"i	c #525252",
"j	c #868686",
"k	c #FCFCFC",
"l	c #585858",
"m	c #1E1E1E",
"n	c #FDFDFD",
"o	c #232323",
"p	c #6A6A6A",
"q	c #646464",
"r	c #202020",
"s	c #A9A9A9",
"t	c #5D5D5D",
"u	c #C3C3C3",
"v	c #B7B7B7",
"w	c #505050",
"x	c #FBFBFB",
"y	c #EBEBEB",
"z	c #565656",
"A	c #454545",
"B	c #D5D5D5",
"C	c #090909",
"D	c #3A3A3A",
"E	c #D8D8D8",
"F	c #212121",
"G	c #DFDFDF",
"H	c #CACACA",
"I	c #F5F5F5",
"J	c #878787",
"K	c #727272",
"L	c #8F8F8F",
"M	c #818181",
"N	c #1A1A1A",
"O	c #595959",
"P	c #808080",
"Q	c #1D1D1D",
"R	c #030303",
"S	c #111111",
"T	c #606060",
"U	c #F1F1F1",
"                    ",
"                    ",
" .+@@@@@@@@@#$ %&*  ",
"=-;>>>>>>>>>,')!~{] ",
"^/(          _:<-~[}",
"|1          2@345-~6",
"~7         890abcde ",
"~7        fg0eb~h%  ",
"~7       )i0eb~~j   ",
"~7      klmeb~~&    ",
"~7     n+~ob~~p(    ",
"~7     qrsh~~tn     ",
"~7     ~u(v~wx$y    ",
"~7     ~~*zA8 b7    ",
"~B     ~~CD_ n~E    ",
"F5     GGG2  H3I    ",
"JCKLLLLLLLLLMNO     ",
"xPQRRRRRRRRRSTU     ",
"                    ",
"                    ",
"                    "};
