/* XPM */
static char * font_mfizz_f12b_xpm[] = {
"21 21 101 2",
"  	c #FFFFFF",
". 	c #EBEBEB",
"+ 	c #D5D5D5",
"@ 	c #B3B3B3",
"# 	c #B5B5B5",
"$ 	c #919191",
"% 	c #F2F2F2",
"& 	c #313131",
"* 	c #E4E4E4",
"= 	c #333333",
"- 	c #848484",
"; 	c #D6D6D6",
"> 	c #939393",
", 	c #EEEEEE",
"' 	c #D4D4D4",
") 	c #1A1A1A",
"! 	c #808080",
"~ 	c #686868",
"{ 	c #646464",
"] 	c #F3F3F3",
"^ 	c #292929",
"/ 	c #6E6E6E",
"( 	c #555555",
"_ 	c #FDFDFD",
": 	c #0D0D0D",
"< 	c #D3D3D3",
"[ 	c #2E2E2E",
"} 	c #828282",
"| 	c #8C8C8C",
"1 	c #7F7F7F",
"2 	c #080808",
"3 	c #E0E0E0",
"4 	c #6B6B6B",
"5 	c #E3E3E3",
"6 	c #161616",
"7 	c #C5C5C5",
"8 	c #F9F9F9",
"9 	c #FBFBFB",
"0 	c #DEDEDE",
"a 	c #707070",
"b 	c #878787",
"c 	c #CDCDCD",
"d 	c #868686",
"e 	c #E1E1E1",
"f 	c #BBBBBB",
"g 	c #8B8B8B",
"h 	c #CCCCCC",
"i 	c #525252",
"j 	c #3E3E3E",
"k 	c #414141",
"l 	c #444444",
"m 	c #7A7A7A",
"n 	c #6A6A6A",
"o 	c #959595",
"p 	c #CECECE",
"q 	c #999999",
"r 	c #ADADAD",
"s 	c #A4A4A4",
"t 	c #E8E8E8",
"u 	c #A1A1A1",
"v 	c #4C4C4C",
"w 	c #F5F5F5",
"x 	c #F8F8F8",
"y 	c #5A5A5A",
"z 	c #5E5E5E",
"A 	c #676767",
"B 	c #858585",
"C 	c #B4B4B4",
"D 	c #BABABA",
"E 	c #BEBEBE",
"F 	c #484848",
"G 	c #575757",
"H 	c #515151",
"I 	c #373737",
"J 	c #6F6F6F",
"K 	c #A3A3A3",
"L 	c #5D5D5D",
"M 	c #9D9D9D",
"N 	c #E7E7E7",
"O 	c #A5A5A5",
"P 	c #888888",
"Q 	c #898989",
"R 	c #ACACAC",
"S 	c #EDEDED",
"T 	c #E9E9E9",
"U 	c #F7F7F7",
"V 	c #3C3C3C",
"W 	c #454545",
"X 	c #545454",
"Y 	c #4E4E4E",
"Z 	c #535353",
"` 	c #585858",
" .	c #717171",
"..	c #FEFEFE",
"+.	c #B2B2B2",
"@.	c #7B7B7B",
"#.	c #626262",
"$.	c #595959",
"%.	c #5F5F5F",
"&.	c #5B5B5B",
"*.	c #818181",
"                .                         ",
"                + @                       ",
"                # $                       ",
"              % & +                       ",
"            * = - ; > ,                   ",
"          ' ) ! ~ { ]                     ",
"          ^ ! / (                         ",
"        _ : < [ /                         ",
"          } | 1 2 3                       ",
"          _ 4 5 6 7   8 9                 ",
"    0 a b c _ @ d e f g = h               ",
"    @ i j k k l i m ;   n o               ",
"      p & q r s d ! t u v w               ",
"      x > y z A B C D E                   ",
"        F = G H I J x                     ",
"  K L M N O P Q R S   T g U               ",
"  a V V W X y ( Y Z ` (  .C               ",
"    ..+.@.#.$.y %.&.` *.<                 ",
"                                          ",
"                                          ",
"                                          "};
