/* XPM */
static char * FontAwesome_f021_xpm[] = {
"17 21 2 1",
" 	c None",
".	c #000000",
"                 ",
"                 ",
"       ...       ",
"    .........   .",
"   ..............",
"  .....   .......",
" ....       .....",
" ...        .....",
"...        ......",
"                 ",
"                 ",
"                 ",
"......        ...",
"......        ...",
".....        ... ",
".....       .... ",
"........ ......  ",
".. ...........   ",
".    .......     ",
"                 ",
"                 "};
