/* XPM */
static char * FontAwesome_f0c7_xpm[] = {
"17 21 37 1",
" 	c #FFFFFF",
".	c #848484",
"+	c #434343",
"@	c #575757",
"#	c #B3B3B3",
"$	c #030303",
"%	c #3F3F3F",
"&	c #000000",
"*	c #3A3A3A",
"=	c #4B4B4B",
"-	c #1D1D1D",
";	c #7D7D7D",
">	c #FEFEFE",
",	c #D7D7D7",
"'	c #D6D6D6",
")	c #8C8C8C",
"!	c #787878",
"~	c #A1A1A1",
"{	c #737373",
"]	c #080808",
"^	c #8F8F8F",
"/	c #E9E9E9",
"(	c #FBFBFB",
"_	c #9D9D9D",
":	c #1B1B1B",
"<	c #E7E7E7",
"[	c #E8E8E8",
"}	c #B9B9B9",
"|	c #979797",
"1	c #676767",
"2	c #838383",
"3	c #DBDBDB",
"4	c #040404",
"5	c #D3D3D3",
"6	c #111111",
"7	c #121212",
"8	c #C9C9C9",
"                 ",
"                 ",
".++++++++++@#    ",
"$%%&&&&*=*&-&;>  ",
"&,,&&&&> >&')&!> ",
"&,,&&&&   &, ~${>",
"&,,&&&&   &,  #]^",
"&,,&&&&/(/&,   _:",
"&,<&&&&&&&&[   ,&",
"&, }||||||}    ,&",
"&,             ,&",
"&,             ,&",
"&,>1+++++++++2 ,&",
"&,3&========%4 ,&",
"&,,&        ,& ,&",
"&,,&        ,& ,&",
"&,,&        ,& ,&",
"&55&((((((((5&(5&",
"6&&&&&&&&&&&&&&&7",
"8|||||||||||||||8",
"                 "};
