/* XPM */
static char * font_mfizz_f10d_xpm[] = {
"21 21 99 2",
"  	c #FFFFFF",
". 	c #DCDCDC",
"+ 	c #AFAFAF",
"@ 	c #A8A8A8",
"# 	c #C6C6C6",
"$ 	c #FBFBFB",
"% 	c #F5F5F5",
"& 	c #B5B5B5",
"* 	c #C9C9C9",
"= 	c #393939",
"- 	c #000000",
"; 	c #181818",
"> 	c #A3A3A3",
", 	c #C8C8C8",
"' 	c #E7E7E7",
") 	c #6F6F6F",
"! 	c #060606",
"~ 	c #161616",
"{ 	c #898989",
"] 	c #CCCCCC",
"^ 	c #D8D8D8",
"/ 	c #242424",
"( 	c #999999",
"_ 	c #5F5F5F",
": 	c #F3F3F3",
"< 	c #E4E4E4",
"[ 	c #E5E5E5",
"} 	c #0B0B0B",
"| 	c #E2E2E2",
"1 	c #EBEBEB",
"2 	c #1B1B1B",
"3 	c #090909",
"4 	c #969696",
"5 	c #232323",
"6 	c #202020",
"7 	c #777777",
"8 	c #9B9B9B",
"9 	c #9A9A9A",
"0 	c #434343",
"a 	c #CBCBCB",
"b 	c #FDFDFD",
"c 	c #B9B9B9",
"d 	c #323232",
"e 	c #2D2D2D",
"f 	c #010101",
"g 	c #080808",
"h 	c #484848",
"i 	c #2F2F2F",
"j 	c #030303",
"k 	c #F0F0F0",
"l 	c #EFEFEF",
"m 	c #2E2E2E",
"n 	c #737373",
"o 	c #A5A5A5",
"p 	c #F8F8F8",
"q 	c #ABABAB",
"r 	c #535353",
"s 	c #E3E3E3",
"t 	c #2B2B2B",
"u 	c #151515",
"v 	c #1A1A1A",
"w 	c #5E5E5E",
"x 	c #3E3E3E",
"y 	c #EEEEEE",
"z 	c #DFDFDF",
"A 	c #ACACAC",
"B 	c #757575",
"C 	c #9C9C9C",
"D 	c #989898",
"E 	c #848484",
"F 	c #F6F6F6",
"G 	c #3F3F3F",
"H 	c #050505",
"I 	c #020202",
"J 	c #2C2C2C",
"K 	c #3C3C3C",
"L 	c #BDBDBD",
"M 	c #EDEDED",
"N 	c #101010",
"O 	c #171717",
"P 	c #DDDDDD",
"Q 	c #E0E0E0",
"R 	c #141414",
"S 	c #E8E8E8",
"T 	c #252525",
"U 	c #1F1F1F",
"V 	c #A2A2A2",
"W 	c #AEAEAE",
"X 	c #111111",
"Y 	c #868686",
"Z 	c #8A8A8A",
"` 	c #9F9F9F",
" .	c #BABABA",
"..	c #212121",
"+.	c #CECECE",
"@.	c #B4B4B4",
"#.	c #D1D1D1",
"$.	c #ADADAD",
"%.	c #F9F9F9",
"                                          ",
"                                          ",
"          . + @ # $                 % &   ",
"      * = - - - - ; >         , $   ' )   ",
"    + ! ~ { ] ^ > / - (       _ :   < )   ",
"  [ } ; |         1 2 3 1     _ : 1 4 5 6 ",
"  7 - 8             9 0 a b c d e f - g h ",
"  i j k                   l - - m n o )   ",
"  } 6                     p q r :   s )   ",
"  j t                         _ :   s )   ",
"  u v                         _ :   s w @ ",
"  x f y             1 9 z     _ A B e - - ",
"  { - C             D - E F G H - I J K L ",
"  M N O P         Q R } S l T U V y s )   ",
"    W j X Y , * Z O f `       _ :   s )   ",
"       .e - - - - ..W         _ :   F +.  ",
"          P  .@.#.b           $.%.        ",
"                                          ",
"                                          ",
"                                          ",
"                                          "};
