/* XPM */
static char * FontAwesome_f128_xpm[] = {
"12 21 47 1",
" 	c #FFFFFF",
".	c #EBEBEB",
"+	c #C9C9C9",
"@	c #C0C0C0",
"#	c #D6D6D6",
"$	c #494949",
"%	c #020202",
"&	c #000000",
"*	c #3C3C3C",
"=	c #C8C8C8",
"-	c #BFBFBF",
";	c #0A0A0A",
">	c #010101",
",	c #B2B2B2",
"'	c #EDEDED",
")	c #161616",
"!	c #E2E2E2",
"~	c #F7F7F7",
"{	c #535353",
"]	c #727272",
"^	c #E6E6E6",
"/	c #878787",
"(	c #909090",
"_	c #FEFEFE",
":	c #929292",
"<	c #888888",
"[	c #DADADA",
"}	c #B1B1B1",
"|	c #212121",
"1	c #C1C1C1",
"2	c #F1F1F1",
"3	c #5A5A5A",
"4	c #676767",
"5	c #5D5D5D",
"6	c #070707",
"7	c #A1A1A1",
"8	c #090909",
"9	c #ACACAC",
"0	c #616161",
"a	c #4B4B4B",
"b	c #606060",
"c	c #FDFDFD",
"d	c #777777",
"e	c #767676",
"f	c #131313",
"g	c #030303",
"h	c #121212",
"            ",
"            ",
"            ",
"    .+@.    ",
"  #$%&&&*=  ",
" -;&&&&&&>, ",
"')&&&&&&&&;!",
"~{&&]^./&&&(",
" _:<_  [&&&/",
"      }|&&&1",
"    23&&&&4 ",
"    5&&&67  ",
"    8&&&9   ",
"    0aabc   ",
"    d44e    ",
"    &&&&    ",
"    &&&&    ",
"    fggh    ",
"            ",
"            ",
"            "};
