/* XPM */
static char * FontAwesome_f11c_xpm[] = {
"22 21 2 1",
" 	c None",
".	c #000000",
"                      ",
"                      ",
"                      ",
"                      ",
"                      ",
" .................... ",
"..................... ",
".                   . ",
".  .  . . . .    .  . ",
".                .  . ",
".                .  . ",
".  ... . . . .....  . ",
".                   . ",
".                   . ",
".  .  .......    .  . ",
".                   . ",
"..                  . ",
"..................... ",
"                      ",
"                      ",
"                      "};
