/* XPM */
static char * font_mfizz_f107_xpm[] = {
"20 21 73 1",
" 	c #FFFFFF",
".	c #D1D1D1",
"+	c #999999",
"@	c #868686",
"#	c #969696",
"$	c #BBBBBB",
"%	c #F9F9F9",
"&	c #C1C1C1",
"*	c #333333",
"=	c #000000",
"-	c #0F0F0F",
";	c #838383",
">	c #F8F8F8",
",	c #909090",
"'	c #020202",
")	c #464646",
"!	c #FAFAFA",
"~	c #A1A1A1",
"{	c #7F7F7F",
"]	c #EEEEEE",
"^	c #131313",
"/	c #4C4C4C",
"(	c #979797",
"_	c #232323",
":	c #090909",
"<	c #E8E8E8",
"[	c #919191",
"}	c #6B6B6B",
"|	c #EBEBEB",
"1	c #121212",
"2	c #8F8F8F",
"3	c #484848",
"4	c #080808",
"5	c #EAEAEA",
"6	c #5C5C5C",
"7	c #595959",
"8	c #565656",
"9	c #242424",
"0	c #2D2D2D",
"a	c #111111",
"b	c #434343",
"c	c #1A1A1A",
"d	c #292929",
"e	c #393939",
"f	c #050505",
"g	c #E4E4E4",
"h	c #A7A7A7",
"i	c #7C7C7C",
"j	c #8A8A8A",
"k	c #D2D2D2",
"l	c #767676",
"m	c #666666",
"n	c #898989",
"o	c #DEDEDE",
"p	c #040404",
"q	c #636363",
"r	c #C5C5C5",
"s	c #C3C3C3",
"t	c #474747",
"u	c #C7C7C7",
"v	c #828282",
"w	c #363636",
"x	c #5F5F5F",
"y	c #1C1C1C",
"z	c #DCDCDC",
"A	c #FEFEFE",
"B	c #878787",
"C	c #030303",
"D	c #E9E9E9",
"E	c #B4B4B4",
"F	c #8E8E8E",
"G	c #808080",
"H	c #A9A9A9",
"     .+@#$%         ",
"   &*=====-;>       ",
"  ,'========)!      ",
" ~==========={      ",
"]^====/(;_===:<     ",
"[====}   |1===2     ",
"3===45    (678#     ",
"9===0               ",
"a===b               ",
"c===d               ",
"e===fg    hij+k     ",
"l====m   >_===n     ",
"op====qrst====u     ",
" v===========w      ",
"  x=========yz      ",
"  AB^=====C6D       ",
"    >EFGnHD         ",
"                    ",
"                    ",
"                    ",
"                    "};
