/* XPM */
static char * FontAwesome_f179_xpm[] = {
"16 21 70 1",
" 	c #FFFFFF",
".	c #F7F7F7",
"+	c #CBCBCB",
"@	c #444444",
"#	c #5F5F5F",
"$	c #C7C7C7",
"%	c #0A0A0A",
"&	c #000000",
"*	c #919191",
"=	c #3E3E3E",
"-	c #232323",
";	c #F3F3F3",
">	c #F6F6F6",
",	c #010101",
"'	c #CECECE",
")	c #C0C0C0",
"!	c #606060",
"~	c #303030",
"{	c #4C4C4C",
"]	c #787878",
"^	c #9F9F9F",
"/	c #757575",
"(	c #797979",
"_	c #4D4D4D",
":	c #1C1C1C",
"<	c #242424",
"[	c #6A6A6A",
"}	c #E5E5E5",
"|	c #999999",
"1	c #030303",
"2	c #1D1D1D",
"3	c #DBDBDB",
"4	c #DFDFDF",
"5	c #050505",
"6	c #343434",
"7	c #EFEFEF",
"8	c #676767",
"9	c #101010",
"0	c #ECECEC",
"a	c #313131",
"b	c #6E6E6E",
"c	c #0D0D0D",
"d	c #151515",
"e	c #747474",
"f	c #3C3C3C",
"g	c #1A1A1A",
"h	c #5C5C5C",
"i	c #FCFCFC",
"j	c #C6C6C6",
"k	c #404040",
"l	c #393939",
"m	c #8B8B8B",
"n	c #B4B4B4",
"o	c #161616",
"p	c #F4F4F4",
"q	c #727272",
"r	c #ABABAB",
"s	c #FBFBFB",
"t	c #484848",
"u	c #222222",
"v	c #3F3F3F",
"w	c #121212",
"x	c #939393",
"y	c #FDFDFD",
"z	c #B7B7B7",
"A	c #AAAAAA",
"B	c #E8E8E8",
"C	c #FEFEFE",
"D	c #A9A9A9",
"E	c #D3D3D3",
"           .    ",
"         +@#    ",
"        $%&*    ",
"        =&-;    ",
"       >,-'     ",
"  )!~{]^/(_:<[} ",
" |1&&&&&&&&&&&23",
"45&&&&&&&&&&&&67",
"8&&&&&&&&&&&&90 ",
"a&&&&&&&&&&&&b  ",
"c&&&&&&&&&&&&*  ",
"d&&&&&&&&&&&&e  ",
"f&&&&&&&&&&&&g. ",
"8&&&&&&&&&&&&&hi",
"j&&&&&&&&&&&&&&k",
" l&&&&&&&&&&&&&m",
" n&&&&&&&&&&&&op",
"  q&&&&&&&&&&,r ",
"  st&&&uvw&&&x  ",
"   yzAB  C3DE   ",
"                "};
