/* XPM */
static char * font_mfizz_f126_xpm[] = {
"20 21 91 1",
" 	c #FFFFFF",
".	c #818181",
"+	c #5F5F5F",
"@	c #8C8C8C",
"#	c #EDEDED",
"$	c #626262",
"%	c #B6B6B6",
"&	c #BDBDBD",
"*	c #010101",
"=	c #000000",
"-	c #BABABA",
";	c #707070",
">	c #151515",
",	c #EBEBEB",
"'	c #686868",
")	c #1E1E1E",
"!	c #E7E7E7",
"~	c #252525",
"{	c #565656",
"]	c #F3F3F3",
"^	c #1F1F1F",
"/	c #636363",
"(	c #C5C5C5",
"_	c #020202",
":	c #ACACAC",
"<	c #B7B7B7",
"[	c #737373",
"}	c #161616",
"|	c #ABABAB",
"1	c #838383",
"2	c #656565",
"3	c #1C1C1C",
"4	c #272727",
"5	c #575757",
"6	c #CBCBCB",
"7	c #030303",
"8	c #F1F1F1",
"9	c #1D1D1D",
"0	c #616161",
"a	c #C7C7C7",
"b	c #ADADAD",
"c	c #828282",
"d	c #232323",
"e	c #848484",
"f	c #E8E8E8",
"g	c #404040",
"h	c #ECECEC",
"i	c #131313",
"j	c #767676",
"k	c #B5B5B5",
"l	c #585858",
"m	c #D0D0D0",
"n	c #0C0C0C",
"o	c #070707",
"p	c #525252",
"q	c #292929",
"r	c #1A1A1A",
"s	c #AEAEAE",
"t	c #7E7E7E",
"u	c #A8A8A8",
"v	c #C9C9C9",
"w	c #5E5E5E",
"x	c #676767",
"y	c #171717",
"z	c #A1A1A1",
"A	c #9F9F9F",
"B	c #EAEAEA",
"C	c #141414",
"D	c #787878",
"E	c #B3B3B3",
"F	c #C0C0C0",
"G	c #F6F6F6",
"H	c #242424",
"I	c #595959",
"J	c #545454",
"K	c #2A2A2A",
"L	c #191919",
"M	c #6B6B6B",
"N	c #C2C2C2",
"O	c #B0B0B0",
"P	c #CACACA",
"Q	c #5D5D5D",
"R	c #202020",
"S	c #6E6E6E",
"T	c #181818",
"U	c #929292",
"V	c #7B7B7B",
"W	c #A5A5A5",
"X	c #7C7C7C",
"Y	c #C8C8C8",
"Z	c #F5F5F5",
"                    ",
"                    ",
".++@#$++%           ",
"&*==-;==>,          ",
" '==)!~=={          ",
" ]^==/(_==:         ",
"  -===<[==},|1111111",
"   2==3!4==567======",
"   89==0a_==bcdddddd",
"    e==7fg==}h      ",
"   fi==jk====lmnoooo",
"   p==q!r=====st====",
"  u==7vw==dx==y!zAAA",
" BC==DE==*FGH==I    ",
" J==K!L==M  N*==O   ",
"|==7PQ==R]   S==T#  ",
"UVVW#XVVY    ZtVVF  ",
"                    ",
"                    ",
"                    ",
"                    "};
