/* XPM */
static char * FontAwesome_f071_xpm[] = {
"20 21 2 1",
" 	c None",
".	c #000000",
"                    ",
"         ..         ",
"        ....        ",
"        ....        ",
"       ......       ",
"       ......       ",
"      ........      ",
"      ..    ..      ",
"     ...    ...     ",
"    .....  .....    ",
"    .....  .....    ",
"   ......  ......   ",
"   ..............   ",
"  ................  ",
"  .......  .......  ",
" ........  ........ ",
" ........  ........ ",
"....................",
"....................",
"                    ",
"                    "};
