/* XPM */
static char * FontAwesome_f27b_xpm[] = {
"20 21 99 2",
"  	c #FFFFFF",
". 	c #FBFBFB",
"+ 	c #D8D8D8",
"@ 	c #C4C4C4",
"# 	c #B8B8B8",
"$ 	c #C8C8C8",
"% 	c #E3E3E3",
"& 	c #EEEEEE",
"* 	c #979797",
"= 	c #3F3F3F",
"- 	c #0A0A0A",
"; 	c #000000",
"> 	c #1D1D1D",
", 	c #686868",
"' 	c #D0D0D0",
") 	c #8B8B8B",
"! 	c #0E0E0E",
"~ 	c #050505",
"{ 	c #595959",
"] 	c #989898",
"^ 	c #C3C3C3",
"/ 	c #D6D6D6",
"( 	c #585858",
"_ 	c #5E5E5E",
": 	c #EBEBEB",
"< 	c #EFEFEF",
"[ 	c #444444",
"} 	c #111111",
"| 	c #7D7D7D",
"1 	c #E7E7E7",
"2 	c #E6E6E6",
"3 	c #101010",
"4 	c #262626",
"5 	c #E0E0E0",
"6 	c #FCFCFC",
"7 	c #464646",
"8 	c #2F2F2F",
"9 	c #E1E1E1",
"0 	c #DFDFDF",
"a 	c #2D2D2D",
"b 	c #313131",
"c 	c #F8F8F8",
"d 	c #9D9D9D",
"e 	c #161616",
"f 	c #E4E4E4",
"g 	c #151515",
"h 	c #929292",
"i 	c #373737",
"j 	c #828282",
"k 	c #D2D2D2",
"l 	c #888888",
"m 	c #353535",
"n 	c #0C0C0C",
"o 	c #494949",
"p 	c #252525",
"q 	c #C7C7C7",
"r 	c #181818",
"s 	c #BBBBBB",
"t 	c #6E6E6E",
"u 	c #4C4C4C",
"v 	c #4A4A4A",
"w 	c #6F6F6F",
"x 	c #BCBCBC",
"y 	c #666666",
"z 	c #FEFEFE",
"A 	c #D5D5D5",
"B 	c #6B6B6B",
"C 	c #4B4B4B",
"D 	c #030303",
"E 	c #BABABA",
"F 	c #C5C5C5",
"G 	c #B7B7B7",
"H 	c #656565",
"I 	c #A1A1A1",
"J 	c #626262",
"K 	c #FAFAFA",
"L 	c #606060",
"M 	c #474747",
"N 	c #424242",
"O 	c #707070",
"P 	c #818181",
"Q 	c #696969",
"R 	c #454545",
"S 	c #202020",
"T 	c #ABABAB",
"U 	c #1E1E1E",
"V 	c #8C8C8C",
"W 	c #070707",
"X 	c #080808",
"Y 	c #0F0F0F",
"Z 	c #6A6A6A",
"` 	c #B5B5B5",
" .	c #919191",
"..	c #515151",
"+.	c #232323",
"@.	c #565656",
"#.	c #3C3C3C",
"$.	c #B4B4B4",
"%.	c #6D6D6D",
"                                        ",
"                                        ",
"                                        ",
"              . + @ # $ %               ",
"        & * = - ; ; ; ; ; > , '         ",
"    . ) ! ~ { ] ^ / / ^ ] ( ~ ; _ :     ",
"  < [ } | 1                 2 | 3 4 5   ",
"6 7 8 9                         0 a b c ",
"d e 2                             f g h ",
"i )     0 j k     k j 0   k j 0     l m ",
"n $     o ; p     p ; o   p ; o     q n ",
"r s     t ; u     v ; w   v ; w     x e ",
"o y     z A 6     6 A z   6 A z     B C ",
"s D E                             F ~ G ",
"z H - I z                       G 3 J   ",
"  K L ; M 1               z # N ; L K   ",
"      y ; 1   k O P l Q R > ; S T z     ",
"    K U M . V W X Y W e b Z ` 6         ",
"     .; ..+.; @.1                       ",
"  G D ; ; #.$.                          ",
"  %.v l 5                               "};
