/* XPM */
static char * FontAwesome_f18e_xpm[] = {
"18 21 2 1",
" 	c None",
".	c #000000",
"                  ",
"                  ",
"       ....       ",
"    .........     ",
"   ............   ",
"  ....      ....  ",
" ....        .... ",
" ...     .    ... ",
"...      ..   ... ",
"...  .......   ...",
"...  ........  ...",
"...  ........  ...",
"...      ...   ...",
"....     ..   ... ",
" ...     .    ... ",
" ....        ...  ",
"  .....    .....  ",
"   ............   ",
"     ........     ",
"                  ",
"                  "};
