/* XPM */
static char * FontAwesome_f1ec_xpm[] = {
"20 21 79 1",
" 	c #FEFEFE",
".	c #DCDCDC",
"+	c #DBDBDB",
"@	c #FAFAFA",
"#	c #FFFFFF",
"$	c #535353",
"%	c #000000",
"&	c #2C2C2C",
"*	c #FDFDFD",
"=	c #020202",
"-	c #737373",
";	c #B7B7B7",
">	c #8D8D8D",
",	c #DADADA",
"'	c #D7D7D7",
")	c #D6D6D6",
"!	c #565656",
"~	c #939393",
"{	c #6B6B6B",
"]	c #5A5A5A",
"^	c #E3E3E3",
"/	c #797979",
"(	c #545454",
"_	c #D5D5D5",
":	c #7A7A7A",
"<	c #757575",
"[	c #E5E5E5",
"}	c #747474",
"|	c #BCBCBC",
"1	c #C6C6C6",
"2	c #C5C5C5",
"3	c #E4E4E4",
"4	c #BBBBBB",
"5	c #E2E2E2",
"6	c #434343",
"7	c #C0C0C0",
"8	c #5D5D5D",
"9	c #3B3B3B",
"0	c #B2B2B2",
"a	c #3A3A3A",
"b	c #595959",
"c	c #C2C2C2",
"d	c #585858",
"e	c #2D2D2D",
"f	c #9B9B9B",
"g	c #414141",
"h	c #232323",
"i	c #424242",
"j	c #3D3D3D",
"k	c #9D9D9D",
"l	c #DFDFDF",
"m	c #C1C1C1",
"n	c #E1E1E1",
"o	c #FBFBFB",
"p	c #989898",
"q	c #707070",
"r	c #F2F2F2",
"s	c #6F6F6F",
"t	c #999999",
"u	c #0B0B0B",
"v	c #060606",
"w	c #090909",
"x	c #4F4F4F",
"y	c #111111",
"z	c #030303",
"A	c #A2A2A2",
"B	c #C9C9C9",
"C	c #A6A6A6",
"D	c #A5A5A5",
"E	c #CACACA",
"F	c #A1A1A1",
"G	c #A7A7A7",
"H	c #0D0D0D",
"I	c #505050",
"J	c #121212",
"K	c #0F0F0F",
"L	c #525252",
"M	c #909090",
"N	c #242424",
" .+++++++++++++++@##",
"$%%%%%%%%%%%%%%%%&*#",
"=-;;;;;;;;;;;;;;>%,#",
"%'###############%'#",
"%'###############%'#",
"%)##############*%'#",
"%!~~~~~~~~~~~~~~{%'#",
"%%%%%%%%%%%%%%%%%%'#",
"%]^/%(__$%:^]%<[}%'#",
"%|#^%1##2%3#4%5#5%'#",
"%678%900a%876%bcd%'#",
"%%%%%%%%%%%%%%%%%%'#",
"%efg%h>>h%ife%jkj%'#",
"%;#l%m##7%l#;%5#n%'#",
"%-op%qrrs%to-%###%'#",
"%%u%%%vv%%%u%%###%'#",
"%wxy%ziiz%yxw%###%'#",
"%A#B%C##D%E#F%###%'#",
"%A#E%G##C%E#A%1#1%'#",
"HwIJ%z66z%JIw%KLK%3#",
"MNhhhhhhhhhhhhhhhq##"};
