/* XPM */
static char * FontAwesome_f03c_xpm[] = {
"20 21 35 1",
" 	c #FFFFFF",
".	c #535353",
"+	c #434343",
"@	c #000000",
"#	c #060606",
"$	c #E8E8E8",
"%	c #DFDFDF",
"&	c #BEBEBE",
"*	c #AEAEAE",
"=	c #8F8F8F",
"-	c #9F9F9F",
";	c #8A8A8A",
">	c #232323",
",	c #8B8B8B",
"'	c #B5B5B5",
")	c #979797",
"!	c #A7A7A7",
"~	c #575757",
"{	c #E7E7E7",
"]	c #D7D7D7",
"^	c #E2E2E2",
"/	c #4F4F4F",
"(	c #F9F9F9",
"_	c #282828",
":	c #040404",
"<	c #4D4D4D",
"[	c #7B7B7B",
"}	c #F8F8F8",
"|	c #747474",
"1	c #4B4B4B",
"2	c #5B5B5B",
"3	c #2F2F2F",
"4	c #1F1F1F",
"5	c #131313",
"6	c #030303",
"                    ",
"                    ",
".++++++++++++++++++.",
"@@@@@@@@@@@@@@@@@@@@",
"#@@@@@@@@@@@@@@@@@@#",
"$%%%%%%%%%%%%%%%%%%$",
"&      *===========-",
"@;     >@@@@@@@@@@@@",
"@@;    >@@@@@@@@@@@@",
"@@@,   ')))))))))))!",
"@@@~   {]]]]]]]]]]]^",
"@@/(   _@@@@@@@@@@@:",
"@<(    >@@@@@@@@@@@@",
"[}     |111111111112",
"                    ",
"34444444444444444443",
"@@@@@@@@@@@@@@@@@@@@",
"56666666666666666665",
"                    ",
"                    ",
"                    "};
