/* XPM */
static char * FontAwesome_f059_xpm[] = {
"17 21 85 1",
" 	c #FFFFFF",
".	c #DBDBDB",
"+	c #8D8D8D",
"@	c #626262",
"#	c #4E4E4E",
"$	c #DCDCDC",
"%	c #E0E0E0",
"&	c #555555",
"*	c #000000",
"=	c #575757",
"-	c #E1E1E1",
";	c #C4C4C4",
">	c #141414",
",	c #C5C5C5",
"'	c #D8D8D8",
")	c #0F0F0F",
"!	c #4D4D4D",
"~	c #AEAEAE",
"{	c #D1D1D1",
"]	c #B4B4B4",
"^	c #5F5F5F",
"/	c #101010",
"(	c #DADADA",
"_	c #FEFEFE",
":	c #373737",
"<	c #8F8F8F",
"[	c #B2B2B2",
"}	c #010101",
"|	c #393939",
"1	c #434343",
"2	c #FBFBFB",
"3	c #D2D2D2",
"4	c #F9F9F9",
"5	c #686868",
"6	c #B5B5B5",
"7	c #5C5C5C",
"8	c #060606",
"9	c #989898",
"0	c #F1F1F1",
"a	c #343434",
"b	c #3E3E3E",
"c	c #ABABAB",
"d	c #5E5E5E",
"e	c #212121",
"f	c #040404",
"g	c #232323",
"h	c #080808",
"i	c #1A1A1A",
"j	c #C6C6C6",
"k	c #E7E7E7",
"l	c #242424",
"m	c #090909",
"n	c #BFBFBF",
"o	c #151515",
"p	c #2D2D2D",
"q	c #E5E5E5",
"r	c #0B0B0B",
"s	c #2E2E2E",
"t	c #727272",
"u	c #313131",
"v	c #474747",
"w	c #747474",
"x	c #EAEAEA",
"y	c #D3D3D3",
"z	c #606060",
"A	c #EBEBEB",
"B	c #636363",
"C	c #F3F3F3",
"D	c #2F2F2F",
"E	c #767676",
"F	c #939393",
"G	c #303030",
"H	c #F4F4F4",
"I	c #ECECEC",
"J	c #414141",
"K	c #424242",
"L	c #EDEDED",
"M	c #FCFCFC",
"N	c #9E9E9E",
"O	c #262626",
"P	c #9F9F9F",
"Q	c #D6D6D6",
"R	c #ACACAC",
"S	c #999999",
"T	c #D7D7D7",
"                 ",
"                 ",
"     .+@#@+$     ",
"   %&*******=-   ",
"  ;>*********>,  ",
" ')***!~{]^***/( ",
"_:***<     [}**|_",
"]***1  234  5***6",
"7***890a*b  c***d",
"e*****)*f+  9***g",
"h******ij  kl***m",
")******[  no****/",
"p******' qr*****s",
"t******uvu******w",
"{}*****x x*****}y",
" z*****A A*****B ",
" CD****EFE****GH ",
"  IJ*********KL  ",
"   MNO*****OPM   ",
"     _QRSRT_     ",
"                 "};
