/* XPM */
static char * python_xpm[] = {
"16 16 15 1",
" 	c None",
".	c #DD4C37",
"+	c #DE4B37",
"@	c #DE4C36",
"#	c #DD4C35",
"$	c #DF4C35",
"%	c #DE4D35",
"&	c #DE4C37",
"*	c #DF4C36",
"=	c #DE4B36",
"-	c #DE4C35",
";	c #DD4C36",
">	c #DE4D36",
",	c #DD4D36",
"'	c #DF4C37",
"       .+       ",
"      @@@#      ",
"      @@@@#     ",
"    @@ $%@@#    ",
"   @@@&  @@@&   ",
"  @@@@@  *@@@&  ",
" @@@@@@   @@@@= ",
"&@@@@@@ =@  @@@-",
"@@@@@@@ =@  -@@@",
" &@@@@@ =@;-@@- ",
"  &@@@@  @@@@-  ",
"   &@@>  >@@,   ",
"    &@@';@@,    ",
"     *@@@@@     ",
"      @@@>      ",
"       *;       "};
