/* XPM */
static char * github_octicons_f0c9_xpm[] = {
"21 20 41 1",
" 	c #FFFFFF",
".	c #D8D8D8",
"+	c #848484",
"@	c #7F7F7F",
"#	c #1F1F1F",
"$	c #000000",
"%	c #1D1D1D",
"&	c #FEFEFE",
"*	c #FBFBFB",
"=	c #5F5F5F",
"-	c #9F9F9F",
";	c #434343",
">	c #F4F4F4",
",	c #292929",
"'	c #D9D9D9",
")	c #F8F8F8",
"!	c #111111",
"~	c #3F3F3F",
"{	c #727272",
"]	c #3E3E3E",
"^	c #020202",
"/	c #6A6A6A",
"(	c #F6F6F6",
"_	c #717171",
":	c #050505",
"<	c #CBCBCB",
"[	c #939393",
"}	c #A2A2A2",
"|	c #616161",
"1	c #222222",
"2	c #F1F1F1",
"3	c #CCCCCC",
"4	c #060606",
"5	c #030303",
"6	c #575757",
"7	c #F0F0F0",
"8	c #999999",
"9	c #535353",
"0	c #040404",
"a	c #FCFCFC",
"b	c #707070",
"                     ",
"                     ",
"                     ",
".+@@@@@@@@@@@@@@@@+. ",
"#$$$$$$$$$$$$$$$$$$%&",
"$$$$$$$$$$$$$$$$$$$$*",
"$$@  =$$-  $$@  ;$$$*",
"$$@  >,=   $$@  ;$$$*",
"$$@   '>   $$@  ;$$$*",
"$$@  )  )  !~-  {]^$*",
"$$@  / (_  :<    [$$*",
"$$@  $}|~  $12  34$$*",
"$$@  $5$~  $$6&71$$$*",
"$$~@@$$$#@@$$$89$$$$*",
"0$$$$$$$$$$$$$^$$$$^a",
"{0$$$$$$$$$$$$$$$$5b ",
"                     ",
"                     ",
"                     ",
"                     "};
