/* XPM */
static char * github_octicons_f0c9_xpm[] = {
"21 20 2 1",
" 	c None",
".	c #000000",
"                     ",
"                     ",
"                     ",
"  ................   ",
".................... ",
".................... ",
"...  ...   ...  .... ",
"...   ..   ...  .... ",
"...        ...  .... ",
"...        ..   .... ",
"...  .  .  .      .. ",
"...  . ..  ..    ... ",
"...  ....  ...  .... ",
".............. ..... ",
".................... ",
".................... ",
"                     ",
"                     ",
"                     ",
"                     "};
