/* XPM */
static char * go_xpm[] = {
"16 16 59 1",
" 	c None",
".	c #65CDDB",
"+	c #5DBFCB",
"@	c #5FC3CF",
"#	c #63CAD7",
"$	c #62C8D5",
"%	c #5EC0CC",
"&	c #5CBDCA",
"*	c #65C4D0",
"=	c #AFD8DF",
"-	c #C4E2E8",
";	c #89D7E2",
">	c #6AD7E5",
",	c #72D1DE",
"'	c #C7E1E6",
")	c #E4F2F4",
"!	c #ADD7DD",
"~	c #60C4D1",
"{	c #5DBECA",
"]	c #50A6B1",
"^	c #5EC0CD",
"/	c #D0E7EB",
"(	c #F1F1F1",
"_	c #FFFFFF",
":	c #F6F8F9",
"<	c #67CFDC",
"[	c #C6DCE0",
"}	c #DDDDDD",
"|	c #84D3DE",
"1	c #55AFBB",
"2	c #B2B6B7",
"3	c #4B4B4B",
"4	c #86D5E1",
"5	c #B6C8CB",
"6	c #8BCFD9",
"7	c #66CFDD",
"8	c #5CBCC8",
"9	c #FBFBFB",
"0	c #CBDEE1",
"a	c #4EA1AC",
"b	c #7BACB3",
"c	c #E4E9EA",
"d	c #C7E3E7",
"e	c #61C7D4",
"f	c #70CDDA",
"g	c #7BD0DC",
"h	c #ABC9C2",
"i	c #876E4D",
"j	c #CAAC82",
"k	c #93C7C8",
"l	c #8EBEBE",
"m	c #89C7CB",
"n	c #57B3BF",
"o	c #64CBD8",
"p	c #85B9BB",
"q	c #7AC0C7",
"r	c #CAAB81",
"s	c #63C9D6",
"t	c #64CBD9",
"    .+.@@#$$    ",
"%&&*=-;>,')!$~% ",
"{]^/(_:<[}__|1> ",
"{{>23__453__677 ",
" 8>=9_0abc(d>e  ",
" ~>>fghijk>>>>e ",
" &>>>>ljjm>>>>n ",
" ~>>>>700>>>>>n ",
" o>>>>>>>>>>>>n ",
" n>>>>>>>>>>>>n ",
" p>>>>>>>>>>>>q ",
"rj>>>>>>>>>>>>jr",
" n>>>>>>>>>>>>& ",
" s>>>>>>>>>>>>& ",
" t>>>>>>>>>>>>& ",
" {>>>>>>>>>>>>& "};
