/* XPM */
static char * favicon_golang_xpm[] = {
"16 16 94 2",
"  	c None",
". 	c #3E616A",
"+ 	c #45727E",
"@ 	c #3A545B",
"# 	c #3A545C",
"$ 	c #579CAE",
"% 	c #579CAF",
"& 	c #5BA8BD",
"* 	c #4D8392",
"= 	c #3A5259",
"- 	c #3B565D",
"; 	c #3C5961",
"> 	c #5AA3B7",
", 	c #5CA6BB",
"' 	c #3E626B",
") 	c #90D3E7",
"! 	c #A9E6F8",
"~ 	c #90E3FC",
"{ 	c #77E1FD",
"] 	c #8EE3FC",
"^ 	c #B3E8F8",
"/ 	c #A6D8E7",
"( 	c #3F626B",
"_ 	c #59A0B4",
": 	c #5FAEC4",
"< 	c #3F636C",
"[ 	c #62B4CA",
"} 	c #6DCAE3",
"| 	c #ADE5F7",
"1 	c #EBF4F6",
"2 	c #F9FCFD",
"3 	c #EFFBFF",
"4 	c #A2E9FE",
"5 	c #94E6FD",
"6 	c #E1F2F7",
"7 	c #F7FAFA",
"8 	c #FAFEFF",
"9 	c #D4F1FB",
"0 	c #77CFE7",
"a 	c #64B8CF",
"b 	c #45707C",
"c 	c #78CEE6",
"d 	c #A7C4CD",
"e 	c #383838",
"f 	c #D6D6D6",
"g 	c #FFFFFF",
"h 	c #D4F4FF",
"i 	c #ACDBEA",
"j 	c #393939",
"k 	c #ABAAAA",
"l 	c #FBFBFB",
"m 	c #F8FDFF",
"n 	c #95D6E9",
"o 	c #487987",
"p 	c #406670",
"q 	c #7BD6EF",
"r 	c #A8C5CE",
"s 	c #D7D6D6",
"t 	c #FEFFFF",
"u 	c #D1EEF8",
"v 	c #A9D5E3",
"w 	c #ACABAB",
"x 	c #96DBEF",
"y 	c #416873",
"z 	c #74D9F5",
"A 	c #ADE9FB",
"B 	c #EBF4F7",
"C 	c #F9FCFC",
"D 	c #EDEDED",
"E 	c #6B6B6B",
"F 	c #DFE1E0",
"G 	c #F7F9FA",
"H 	c #7BDBF5",
"I 	c #72D9F5",
"J 	c #79E2FE",
"K 	c #96E7FE",
"L 	c #ACE7F9",
"M 	c #B9A7A0",
"N 	c #A17867",
"O 	c #9F7766",
"P 	c #BAA39A",
"Q 	c #B6E7F7",
"R 	c #AAEBFE",
"S 	c #82E3FE",
"T 	c #76E1FE",
"U 	c #76DFFB",
"V 	c #B9A7A1",
"W 	c #D0CBC9",
"X 	c #D5CECB",
"Y 	c #76DEFA",
"Z 	c #79DFFB",
"` 	c #BCE8F6",
" .	c #7BDFFB",
"..	c #75DEFB",
"          . . . . . .           ",
"+ @ #   . $ % & & % * .   = - + ",
"; > , ' ) ! ~ { { ] ^ / ( _ : < ",
". [ } | 1 2 3 4 5 6 7 8 9 0 a b ",
"  + c d e f g h i j k l m n o   ",
"  p q r e s t u v j w l m x p   ",
"  y z A B C D E j F G 8 h H y   ",
"  y I J K L M N O P Q R S I y   ",
"  y I T T U V W X V Y T T I y   ",
"  y I T T T Z ` `  .T T T I y   ",
"  y I T T T T ....T T T T I y   ",
"  y I T T T T T T T T T T I y   ",
"  y I T T T T T T T T T T I y   ",
"  y I T T T T T T T T T T I y   ",
"  y I T T T T T T T T T T I y   ",
"  y I T T T T T T T T T T I y   "};
