/* XPM */
static char * golang_xpm[] = {
"16 16 68 1",
" 	c None",
".	c #5DBFCB",
"+	c #65CDDB",
"@	c #5FC3CF",
"#	c #63CAD7",
"$	c #62C8D5",
"%	c #50A6B1",
"&	c #5CBDCA",
"*	c #57B3BF",
"=	c #65C4D0",
"-	c #AFD8DF",
";	c #C4E2E8",
">	c #89D7E2",
",	c #6AD7E5",
"'	c #72D1DE",
")	c #C7E1E6",
"!	c #E4F2F4",
"~	c #ADD7DD",
"{	c #60C4D1",
"]	c #5EC0CC",
"^	c #59B6C2",
"/	c #5EC0CD",
"(	c #D0E7EB",
"_	c #F1F1F1",
":	c #FFFFFF",
"<	c #F6F8F9",
"[	c #67CFDC",
"}	c #C6DCE0",
"|	c #DDDDDD",
"1	c #84D3DE",
"2	c #55AFBB",
"3	c #5DBECA",
"4	c #B2B6B7",
"5	c #A3A3A3",
"6	c #86D5E1",
"7	c #B6C8CB",
"8	c #B8B8B8",
"9	c #8BCFD9",
"0	c #66CFDD",
"a	c #5CBCC8",
"b	c #FBFBFB",
"c	c #CBDEE1",
"d	c #4EA1AC",
"e	c #7BACB3",
"f	c #E4E9EA",
"g	c #C7E3E7",
"h	c #70CDDA",
"i	c #7BD0DC",
"j	c #ABC9C2",
"k	c #B29774",
"l	c #CBB18C",
"m	c #93C7C8",
"n	c #61C7D4",
"o	c #8EBEBE",
"p	c #DACFC3",
"q	c #D6CFC2",
"r	c #89C7CB",
"s	c #B2CED3",
"t	c #ADD0D6",
"u	c #64CBD8",
"v	c #85B9BB",
"w	c #7AC0C7",
"x	c #D8B98E",
"y	c #B2C4B8",
"z	c #9FCAC8",
"A	c #D5B58B",
"B	c #63C9D6",
"C	c #64CBD9",
"     .+@@#$%    ",
" &*=-;>,')!~${] ",
"^%/(_:<[}|::12, ",
" 3,45::678::90* ",
" a,-b:cdef_g,,  ",
" {,,hijklm,,,,n ",
" &,,,,opqr,,,,* ",
" {,,,,0st,,,,,* ",
" u,,,,,,,,,,,,* ",
" *,,,,,,,,,,,,* ",
" v,,,,,,,,,,,,w ",
"xy,,,,,,,,,,,,zA",
" *,,,,,,,,,,,,& ",
" B,,,,,,,,,,,,& ",
" C,,,,,,,,,,,,& ",
" 3,,,,,,,,,,,,& "};
