/* XPM */
static char * e:\EmacsPortable_App\Data\src\mode_icons\icons\golden_xpm[] = {
"25 16 84 1",
" 	c None",
".	c #000000",
"+	c #010101",
"@	c #1B1B1B",
"#	c #505050",
"$	c #4F4F4F",
"%	c #1F1F1F",
"&	c #020202",
"*	c #1E1E1E",
"=	c #303030",
"-	c #404040",
";	c #434343",
">	c #323232",
",	c #141414",
"'	c #090909",
")	c #FFFFFF",
"!	c #B1B1B1",
"~	c #3A3A3A",
"{	c #272727",
"]	c #717171",
"^	c #B8B8B8",
"/	c #FCFCFC",
"(	c #F6F6F6",
"_	c #939393",
":	c #030303",
"<	c #595959",
"[	c #F3F3F3",
"}	c #171717",
"|	c #878787",
"1	c #101010",
"2	c #767676",
"3	c #F2F2F2",
"4	c #F7F7F7",
"5	c #585858",
"6	c #575757",
"7	c #6F6F6F",
"8	c #060606",
"9	c #333333",
"0	c #CBCBCB",
"a	c #646464",
"b	c #858585",
"c	c #414141",
"d	c #FAFAFA",
"e	c #343434",
"f	c #0D0D0D",
"g	c #ECECEC",
"h	c #959595",
"i	c #3E3E3E",
"j	c #373737",
"k	c #D3D3D3",
"l	c #F4F4F4",
"m	c #080808",
"n	c #FEFEFE",
"o	c #F1F1F1",
"p	c #111111",
"q	c #292929",
"r	c #8B8B8B",
"s	c #252525",
"t	c #464646",
"u	c #161616",
"v	c #6E6E6E",
"w	c #BBBBBB",
"x	c #0B0B0B",
"y	c #8D8D8D",
"z	c #131313",
"A	c #040404",
"B	c #C5C5C5",
"C	c #747474",
"D	c #CDCDCD",
"E	c #BABABA",
"F	c #E6E6E6",
"G	c #181818",
"H	c #808080",
"I	c #B5B5B5",
"J	c #5D5D5D",
"K	c #2B2B2B",
"L	c #E5E5E5",
"M	c #606060",
"N	c #0A0A0A",
"O	c #232323",
"P	c #0E0E0E",
"Q	c #0F0F0F",
"R	c #212121",
"S	c #1C1C1C",
".+++++++++++++++++++++++.",
"+@#####$%..&*=-;>,..*##'.",
"+-))))!~+{]^/))))(_>:<[}.",
"+-)))|1@23)))))))))45:6}.",
"+-))7890)))))))))))))a:'.",
"+-)b8c3))))))))))))))de..",
"+-!f>g))))))))))))))))h..",
"+ij}k)))))))))))))))))lm.",
"+}.2))))))))))))no)))))p.",
"+.q()))))))))))rs1t4)))u.",
"+.v)))))))))))wxe#.y)))z.",
"+AB)))))))))))C:D4#E))F8.",
"+Gn)))))))))))H.I)))))J..",
"+K))))))))))))0pcg))LM:A.",
"+NOOOOOOOOOOOOOP.QRSm.8A.",
"........................."};
