/* XPM */
static char * E:\EmacsPortable_App\Data\src\mode_icons\icons\golden_xpm[] = {
"25 16 2 1",
" 	c None",
".	c #000000",
".........................",
"..      ......  .....  ..",
".      ...         ...  .",
".     ..             .. .",
".    ..               ...",
".   ..                ...",
".  ..                  ..",
". ..                   ..",
"...                     .",
"...             ..      .",
"..             ....     .",
"..             .  .    ..",
"..             .       ..",
"..             ..     ...",
"..             ...  .....",
"........................."};
