/* XPM */
static char * haml_xpm[] = {
"16 16 77 1",
" 	c None",
".	c #6A674E",
"+	c #0E0E0D",
"@	c #6A664D",
"#	c #373528",
"$	c #050504",
"%	c #C0B88E",
"&	c #746F53",
"*	c #DBD29E",
"=	c #353326",
"-	c #BFB889",
";	c #474434",
">	c #ABA47A",
",	c #B8B084",
"'	c #B1AB84",
")	c #868060",
"!	c #A59E77",
"~	c #3E3C2D",
"{	c #A59D77",
"]	c #ECE2A9",
"^	c #A29C79",
"/	c #C3BA8B",
"(	c #F5EBB0",
"_	c #7B7659",
":	c #171717",
"<	c #605C45",
"[	c #E3DAA2",
"}	c #E0D7A5",
"|	c #A29C77",
"1	c #D0C795",
"2	c #F2E8AD",
"3	c #726D52",
"4	c #09090C",
"5	c #EFE6AF",
"6	c #8D8765",
"7	c #E9DFA7",
"8	c #EBE1A8",
"9	c #9E9772",
"0	c #0A0A0A",
"a	c #99926D",
"b	c #F1E7AD",
"c	c #F4E9AE",
"d	c #605D47",
"e	c #101010",
"f	c #020202",
"g	c #9E9771",
"h	c #D2CA9B",
"i	c #080808",
"j	c #CDC69A",
"k	c #AAA37A",
"l	c #E7DEA6",
"m	c #817C61",
"n	c #030405",
"o	c #060606",
"p	c #5D5943",
"q	c #EAE0A8",
"r	c #2D2B21",
"s	c #959595",
"t	c #919191",
"u	c #424242",
"v	c #6A664C",
"w	c #E4DBA4",
"x	c #3A392F",
"y	c #CACACA",
"z	c #B5B5B5",
"A	c #D0C794",
"B	c #DCD29D",
"C	c #B3AC82",
"D	c #E4DAA3",
"E	c #CBC291",
"F	c #9F9872",
"G	c #9A9371",
"H	c #E8DEA6",
"I	c #C7BE8E",
"J	c #817B5E",
"K	c #7B7558",
"L	c #5A5641",
"   .+           ",
"  @#$           ",
"  %&*      =-;  ",
"   >,'    )!~   ",
"    {]  ^/(_:   ",
"    <[}|1234    ",
"    567889 0    ",
"     abcd  ef   ",
"     g]h     i  ",
"    jklmn     o ",
"    p7qr   stu  ",
"    v(wx   yz   ",
"    ABC         ",
"    DEF         ",
"   GH7I         ",
"    JKL         "};
