/* XPM */
static char * C:\tmp\EmacsPortable_App\Data\src\mode_icons\icons\helm_xpm[] = {
"16 16 2 1",
" 	c None",
".	c #000000",
"       ..       ",
"       ..       ",
"  ..  ....  ..  ",
"  ............  ",
"   ...    ...   ",
"   ..      ..   ",
"  ..   ..   ..  ",
"....  ....  ....",
"....  ....  ....",
"  ..   ..   ..  ",
"   ..      ..   ",
"   ...    ...   ",
"  ............  ",
"  ..  ....  ..  ",
"       ..       ",
"       ..       "};
