/* XPM */
static char * hs_xpm[] = {
"16 16 100 2",
"  	c None",
". 	c #000000",
"+ 	c #363636",
"@ 	c #BCBCBC",
"# 	c #B4B4B4",
"$ 	c #B3B3B4",
"% 	c #B3B3B3",
"& 	c #414141",
"* 	c #B7B7B7",
"= 	c #F5F5F5",
"- 	c #F1F1F1",
"; 	c #F4F4F3",
"> 	c #969FCC",
", 	c #62814B",
"' 	c #4C6863",
") 	c #E3E5EA",
"! 	c #F2F2F2",
"~ 	c #9F9F9F",
"{ 	c #030303",
"] 	c #F1F0EE",
"^ 	c #F7F6F1",
"/ 	c #8C98B6",
"( 	c #79A100",
"_ 	c #527719",
": 	c #E4E6E5",
"< 	c #F4F3EF",
"[ 	c #EFEFEE",
"} 	c #EDEDED",
"| 	c #9C9C9C",
"1 	c #F6F6F3",
"2 	c #8E98C7",
"3 	c #7180A0",
"4 	c #506583",
"5 	c #79A000",
"6 	c #5C801E",
"7 	c #6B7C9A",
"8 	c #6C7BA1",
"9 	c #BEC2D8",
"0 	c #EEEEEE",
"a 	c #F9F8F7",
"b 	c #425A7C",
"c 	c #80A900",
"d 	c #7DA500",
"e 	c #789F00",
"f 	c #7AA200",
"g 	c #7CA400",
"h 	c #6E9600",
"i 	c #9FABAB",
"j 	c #F9F8F5",
"k 	c #4659A3",
"l 	c #4D6C42",
"m 	c #4F6E3E",
"n 	c #6A8F13",
"o 	c #4C6B44",
"p 	c #415F4C",
"q 	c #9AA4BF",
"r 	c #F3F2F0",
"s 	c #F2F0FA",
"t 	c #828EB9",
"u 	c #7BA300",
"v 	c #54781C",
"w 	c #DEDFEB",
"x 	c #F0EEF6",
"y 	c #F0EFEF",
"z 	c #7F89C0",
"A 	c #547526",
"B 	c #2E4E3D",
"C 	c #DEE0E6",
"D 	c #EEEEED",
"E 	c #F4F5F3",
"F 	c #B9B4CD",
"G 	c #B29BB5",
"H 	c #AF98B4",
"I 	c #977FB4",
"J 	c #9E87B3",
"K 	c #B19BB5",
"L 	c #B09BB5",
"M 	c #C5C1D4",
"N 	c #F8FCF9",
"O 	c #763F71",
"P 	c #9D000D",
"Q 	c #9A0013",
"R 	c #9B0014",
"S 	c #9B0013",
"T 	c #9A0012",
"U 	c #99000E",
"V 	c #8E668F",
"W 	c #F0F0EF",
"X 	c #F9FAF7",
"Y 	c #75689F",
"Z 	c #763061",
"` 	c #753264",
" .	c #723063",
"..	c #9184AF",
"+.	c #9B9B9B",
"@.	c #9E9E9E",
"#.	c #A4A5A1",
"$.	c #A4A8A5",
"%.	c #A2A3A0",
"&.	c #454545",
"                                ",
"    . . . . . . . . . . . . .   ",
"  . + @ # # $ % % # # # % & .   ",
"  . * = - ; > , ' ) - - ! ~ {   ",
"  . # - ] ^ / ( _ : < [ } | {   ",
"  . # 1 2 3 4 5 6 7 8 9 0 | {   ",
"  . # a b c d e f g h i 0 | {   ",
"  . # j k l m 5 n o p q 0 | {   ",
"  . # - r s t u v w x y } | {   ",
"  . # - 0 r z A B C [ D } | {   ",
"  . # E F G H I J K L M 0 | {   ",
"  . # N O P Q R S T U V W | {   ",
"  . % X Y Z ` ` ` `  ...W +.{   ",
"  . & @.#.$.$.$.$.$.$.%.+.&..   ",
"  . . { { { { { { { { { { .     ",
"                                "};
