/* XPM */
static char * html_xpm[] = {
"16 16 60 1",
" 	c None",
".	c #E44D26",
"+	c #EE6128",
"@	c #EB5B28",
"#	c #E44C25",
"$	c #F16528",
"%	c #F16529",
"&	c #EC5C28",
"*	c #E79E96",
"=	c #EBEBEB",
"-	c #FFFFFF",
";	c #F7B6A9",
">	c #E58276",
",	c #EAE2E1",
"'	c #E9D3D1",
")	c #FCE7E3",
"!	c #F49078",
"~	c #E95827",
"{	c #E58073",
"]	c #E8C0BD",
"^	c #E95727",
"/	c #E45330",
"(	c #E9D4D2",
"_	c #E7A49D",
":	c #F7B7AB",
"<	c #F16425",
"[	c #E75327",
"}	c #E75227",
"|	c #E68E81",
"1	c #E68F83",
"2	c #F5A38E",
"3	c #FDF1EF",
"4	c #FEF6F4",
"5	c #E54F26",
"6	c #E9C5C2",
"7	c #EAD7D6",
"8	c #FFFCFC",
"9	c #FCEAE8",
"0	c #E9CDCA",
"a	c #E69389",
"b	c #E45D43",
"c	c #F27247",
"d	c #F5A595",
"e	c #FCE6E1",
"f	c #F06329",
"g	c #EBEAE9",
"h	c #FFFDFD",
"i	c #FAD3CD",
"j	c #E44D25",
"k	c #E68E84",
"l	c #E8B5B0",
"m	c #FDECEA",
"n	c #F8C8C0",
"o	c #F5A391",
"p	c #F1672C",
"q	c #EE6028",
"r	c #EF6128",
"s	c #ED5E28",
"t	c #E95627",
"u	c #E55026",
" .............. ",
" .......+++++@. ",
" ...####$$$$%&. ",
" ..*====----;@. ",
" ..>=,''))))!~. ",
"  .{=]..%%%%%^. ",
"  ./=(__::::<[  ",
"  ..====----%}  ",
"  ..|1112234%5  ",
"  ..67..%%89%.  ",
"  ..0=abcd-ef.  ",
"  ..]==gh--i+.  ",
"  ..jkl7mnopq.  ",
"  ......%%%r^.  ",
"   .....stu..   ",
"      ....      "};
