/* XPM */
static char * html_xpm[] = {
"15 16 98 2",
"  	c None",
". 	c #E44D26",
"+ 	c #E34C25",
"@ 	c #E34B25",
"# 	c #EA5827",
"$ 	c #F06328",
"% 	c #E75227",
"& 	c #E45A36",
"* 	c #E45935",
"= 	c #EB6538",
"- 	c #F2713A",
"; 	c #F2723B",
"> 	c #F16428",
", 	c #E65226",
"' 	c #E3431A",
") 	c #EBF4F7",
"! 	c #EBF2F4",
"~ 	c #EAF2F3",
"{ 	c #F8FFFF",
"] 	c #FFFFFF",
"^ 	c #F05D1C",
"/ 	c #E44E26",
"( 	c #E3451C",
"_ 	c #EAE0DD",
": 	c #EBECED",
"< 	c #E9CBC3",
"[ 	c #E9C8BF",
"} 	c #F4D5CA",
"| 	c #FBDDD0",
"1 	c #FBD4C3",
"2 	c #F16021",
"3 	c #E3481F",
"4 	c #E9C7BE",
"5 	c #E4532D",
"6 	c #EA5420",
"7 	c #F06022",
"8 	c #F16529",
"9 	c #E34921",
"0 	c #E8BAAE",
"a 	c #EBEDED",
"b 	c #E8AE9F",
"c 	c #E79B88",
"d 	c #F1A88F",
"e 	c #F8B294",
"f 	c #F5966D",
"g 	c #F06226",
"h 	c #E34A23",
"i 	c #E8B1A3",
"j 	c #EBEDEE",
"k 	c #EAEDED",
"l 	c #F8FAFB",
"m 	c #FEFEFE",
"n 	c #F9C0A7",
"o 	c #EE5E26",
"p 	c #E56544",
"q 	c #E67E63",
"r 	c #E68268",
"s 	c #E6856C",
"t 	c #EF9272",
"u 	c #F69C76",
"v 	c #F9C4AD",
"w 	c #ED5D28",
"x 	c #E68167",
"y 	c #EAE1DE",
"z 	c #E7957F",
"A 	c #EA5927",
"B 	c #F7B193",
"C 	c #F69E78",
"D 	c #EB5C28",
"E 	c #E67D62",
"F 	c #EBEEEF",
"G 	c #E9C5BC",
"H 	c #E56F50",
"I 	c #E9511C",
"J 	c #F38556",
"K 	c #F59167",
"L 	c #E57153",
"M 	c #EBF6F8",
"N 	c #EBECEC",
"O 	c #EAEFF0",
"P 	c #F48656",
"Q 	c #E95627",
"R 	c #E56746",
"S 	c #E79681",
"T 	c #F8FCFD",
"U 	c #F7AC8C",
"V 	c #F37B47",
"W 	c #F06224",
"X 	c #E75426",
"Y 	c #E44C25",
"Z 	c #E94F1B",
"` 	c #F16528",
" .	c #EE6028",
"..	c #E54F26",
"+.	c #E95727",
"@.	c #EB5B27",
"#.	c #E75326",
"$.	c #E34C26",
". . . . . . . + @ @ @ @ @ + . ",
". . . . . . . # $ $ $ $ $ % . ",
"  . + & * * * = - - - ; > ,   ",
"  . ' ) ! ! ~ { ] ] ] ] ^ /   ",
"  . ( _ : < [ } | | | 1 2 +   ",
"  . 3 4 ! 5 3 6 7 7 7 7 8 @   ",
"  . 9 0 a b c d e e e f g @   ",
"  . h i j j k l ] ] m n o +   ",
"  . . p q r s t u v ] e w +   ",
"  . . x y z . A 8 B ] C D +   ",
"  . . E F G H I J | ] K # .   ",
"  . . L M N O { ] ] ] P Q .   ",
"    . 9 R S [ T | U V W X     ",
"    . . . Y 3 Z 7 ` 8  ...    ",
"    . . . . . +.@.#.$.+ $.    ",
"          . . + + .           "};
