/* XPM */
static char * IcoMoon_Free_ea12_xpm[] = {
"20 21 2 1",
" 	c None",
".	c #000000",
" ..... .....  ..... ",
" .   . .   .  .     ",
" .   . .   .  .     ",
" .   . .   .  .     ",
" ..... .....  .     ",
" .   . .   .  .     ",
" .   . .   .  .     ",
" .   . .   .  .     ",
" .   . .....  ..... ",
"                    ",
"                    ",
"             ...    ",
"            ...     ",
"           ...      ",
"    ..    ...       ",
"    ... ....        ",
"     ......         ",
"      ....          ",
"      ...           ",
"       .            ",
"                    "};
