/* XPM */
static char * IcoMoon_Free_eabf_xpm[] = {
"21 21 70 1",
" 	c #5B5B5B",
".	c #000000",
"+	c #484848",
"@	c #FFFFFF",
"#	c #1D1D1D",
"$	c #D4D4D4",
"%	c #D7D7D7",
"&	c #BFBFBF",
"*	c #F4F4F4",
"=	c #989898",
"-	c #E3E3E3",
";	c #F3F3F3",
">	c #2D2D2D",
",	c #080808",
"'	c #F2F2F2",
")	c #CCCCCC",
"!	c #F7F7F7",
"~	c #0E0E0E",
"{	c #F8F8F8",
"]	c #454545",
"^	c #060606",
"/	c #A3A3A3",
"(	c #111111",
"_	c #FDFDFD",
":	c #818181",
"<	c #020202",
"[	c #9E9E9E",
"}	c #525252",
"|	c #B0B0B0",
"1	c #A7A7A7",
"2	c #EBEBEB",
"3	c #D5D5D5",
"4	c #171717",
"5	c #181818",
"6	c #B9B9B9",
"7	c #040404",
"8	c #8D8D8D",
"9	c #272727",
"0	c #B3B3B3",
"a	c #EFEFEF",
"b	c #D8D8D8",
"c	c #F1F1F1",
"d	c #5D5D5D",
"e	c #B8B8B8",
"f	c #676767",
"g	c #A2A2A2",
"h	c #AAAAAA",
"i	c #FEFEFE",
"j	c #D1D1D1",
"k	c #6F6F6F",
"l	c #282828",
"m	c #0A0A0A",
"n	c #A6A6A6",
"o	c #696969",
"p	c #0C0C0C",
"q	c #9D9D9D",
"r	c #393939",
"s	c #ADADAD",
"t	c #424242",
"u	c #252525",
"v	c #7F7F7F",
"w	c #EDEDED",
"x	c #353535",
"y	c #4F4F4F",
"z	c #7A7A7A",
"A	c #E2E2E2",
"B	c #949494",
"C	c #7C7C7C",
"D	c #2B2B2B",
"E	c #F9F9F9",
" ..................+@",
"..........#$%%%%%%&.*",
"..........=@@@@@@@-.;",
"....>....,'@@@@)!@-.;",
"...~{....]@@@@@^/@-.;",
"...(_....:@@@@@<[@-.;",
"....}....|@@@@@12@-.;",
".........3@@@@@@@@-.;",
".........;@@@@@@@@-.;",
"........^@@@@@@@@@-.;",
".........456@@@@@@-.;",
"...........1@@@@@@-.;",
"..789......0@@@@)a-.;",
"..,bcd.....e@@2f.g-.;",
"...~hijklm.neop~qi-.;",
".....rs;@@_t.uvw@@-.;",
".......^xy9zAi@@@@-.;",
"...........B@@@@@@-.;",
"...........C@@@@@@-.;",
"r..................Di",
"Eb%%%%%%%%%%%%%%%%%!@"};
