/* XPM */
static char * IcoMoon_Free_eabd_xpm[] = {
"21 21 117 2",
"  	c #FFFFFF",
". 	c #FEFEFE",
"+ 	c #D5D5D5",
"@ 	c #ABABAB",
"# 	c #929292",
"$ 	c #8E8E8E",
"% 	c #A2A2A2",
"& 	c #CDCDCD",
"* 	c #FBFBFB",
"= 	c #919191",
"- 	c #1F1F1F",
"; 	c #000000",
"> 	c #242424",
", 	c #B4B4B4",
"' 	c #F9F9F9",
") 	c #4A4A4A",
"! 	c #939393",
"~ 	c #757575",
"{ 	c #010101",
"] 	c #BCBCBC",
"^ 	c #DDDDDD",
"/ 	c #040404",
"( 	c #2A2A2A",
"_ 	c #FDFDFD",
": 	c #7B7B7B",
"< 	c #C3C3C3",
"[ 	c #373737",
"} 	c #7E7E7E",
"| 	c #121212",
"1 	c #141414",
"2 	c #404040",
"3 	c #F4F4F4",
"4 	c #5F5F5F",
"5 	c #828282",
"6 	c #090909",
"7 	c #151515",
"8 	c #CACACA",
"9 	c #D2D2D2",
"0 	c #181818",
"a 	c #232323",
"b 	c #EEEEEE",
"c 	c #5C5C5C",
"d 	c #9F9F9F",
"e 	c #F2F2F2",
"f 	c #A4A4A4",
"g 	c #0A0A0A",
"h 	c #F3F3F3",
"i 	c #B6B6B6",
"j 	c #636363",
"k 	c #FAFAFA",
"l 	c #060606",
"m 	c #F1F1F1",
"n 	c #818181",
"o 	c #070707",
"p 	c #D8D8D8",
"q 	c #FCFCFC",
"r 	c #BEBEBE",
"s 	c #767676",
"t 	c #0E0E0E",
"u 	c #020202",
"v 	c #989898",
"w 	c #252525",
"x 	c #050505",
"y 	c #131313",
"z 	c #808080",
"A 	c #737373",
"B 	c #2D2D2D",
"C 	c #A8A8A8",
"D 	c #F8F8F8",
"E 	c #323232",
"F 	c #333333",
"G 	c #E7E7E7",
"H 	c #AAAAAA",
"I 	c #2B2B2B",
"J 	c #1D1D1D",
"K 	c #6A6A6A",
"L 	c #E9E9E9",
"M 	c #C4C4C4",
"N 	c #353535",
"O 	c #030303",
"P 	c #595959",
"Q 	c #0D0D0D",
"R 	c #898989",
"S 	c #9D9D9D",
"T 	c #949494",
"U 	c #6D6D6D",
"V 	c #565656",
"W 	c #A6A6A6",
"X 	c #D1D1D1",
"Y 	c #CFCFCF",
"Z 	c #7D7D7D",
"` 	c #515151",
" .	c #414141",
"..	c #505050",
"+.	c #DADADA",
"@.	c #292929",
"#.	c #8D8D8D",
"$.	c #E6E6E6",
"%.	c #616161",
"&.	c #4F4F4F",
"*.	c #2C2C2C",
"=.	c #C7C7C7",
"-.	c #1A1A1A",
";.	c #D7D7D7",
">.	c #878787",
",.	c #0C0C0C",
"'.	c #525252",
").	c #C8C8C8",
"!.	c #9E9E9E",
"~.	c #F0F0F0",
"{.	c #5B5B5B",
"].	c #3B3B3B",
"^.	c #ECECEC",
"/.	c #1C1C1C",
"(.	c #C5C5C5",
"_.	c #8F8F8F",
":.	c #C2C2C2",
"            . + @ # $ % & .               ",
"        * = - ; ; ; ; ; ; > ,             ",
"      ' ) ; ; ; ; ; ; ; ; ; ; !           ",
"      ~ ; ; ; ; ; ; ; ; ; ; ; { ]         ",
"    ^ / ; ; ; ; ; ; ; ; ; ; ; ; ( _       ",
"    : ; ; ; ; ; ; ; ; ; ; ; ; ; ; <       ",
"    [ ; ; ; ; ; ; ; ; ; ; ; ; ; ; }       ",
"    | ; ; ; ; ; ; ; ; 1 ; ; ; ; ; 2       ",
"  3 ; ; 4 5 6 ; ; 7 8   9 0 ; ; ; a       ",
"  b ; c     d ; ; % . e   f ; ; ; g       ",
"  h ; i 8 j k l ; m n o p e ; ; ; ; .     ",
"  q { r s ; $ t u v w ; ! _ x ; ; ; *     ",
"    y z ! ; 1 A ~ B ; ; C p ; ; ; ; D     ",
"    - g E F G     _ H B o I ; ; ; ; D     ",
"    J u K L           _ M N ; ; ; ; b     ",
"  k O P = Q P R S T U - V W ; ; ; ; X     ",
"  Y ; t M < Z `  ...K H +.@.; ; ; ; #.    ",
"  ! ; ; x s q       $.K g %.&.; ; ; *._   ",
"  ) ; > =.-.) & ;.>.,.'.).  !.; ; ; ; W   ",
"~.o ; {.  $.&.o { ].]       ^.O ; ; ; /.m ",
"+ A A (.      _ *             _.A A A A :."};
