/* XPM */
static char * IcoMoon_Free_eabd_xpm[] = {
"21 21 2 1",
" 	c None",
".	c #000000",
"                     ",
"      ........       ",
"    ...........      ",
"   .............     ",
"   ..............    ",
"  ...............    ",
"  ................   ",
"  ................   ",
"  ... ....   .....   ",
"  ..   ..     ....   ",
"  .  . ..  .  ....   ",
"  . .. .. ..  ....   ",
"  .. .......  ....   ",
"  ....     .......   ",
"  ...        .....   ",
"  .. ..   ... ....   ",
"  ..  .....  .....   ",
"  ....     ........  ",
" ... ..   ..   ....  ",
" ...  ....     ..... ",
" ..             .... "};
