/* XPM */
static char * IcoMoon_Free_ea12_xpm[] = {
"20 21 56 1",
" 	c #FFFFFF",
".	c #5C5C5C",
"+	c #000000",
"@	c #5B5B5B",
"#	c #3D3D3D",
"$	c #FAFAFA",
"%	c #F9F9F9",
"&	c #383838",
"*	c #3F3F3F",
"=	c #B5B5B5",
"-	c #D7D7D7",
";	c #D9D9D9",
">	c #D8D8D8",
",	c #E1E1E1",
"'	c #E3E3E3",
")	c #2C2C2C",
"!	c #FEFEFE",
"~	c #E8E8E8",
"{	c #3B3B3B",
"]	c #A5A5A5",
"^	c #B7B7B7",
"/	c #FBFBFB",
"(	c #707070",
"_	c #0F0F0F",
":	c #EFEFEF",
"<	c #E9E9E9",
"[	c #070707",
"}	c #B6B6B6",
"|	c #C6C6C6",
"1	c #A6A6A6",
"2	c #CACACA",
"3	c #1C1C1C",
"4	c #060606",
"5	c #B4B4B4",
"6	c #C2C2C2",
"7	c #C3C3C3",
"8	c #9D9D9D",
"9	c #B3B3B3",
"0	c #F6F6F6",
"a	c #2B2B2B",
"b	c #151515",
"c	c #686868",
"d	c #050505",
"e	c #B1B1B1",
"f	c #D2D2D2",
"g	c #080808",
"h	c #AFAFAF",
"i	c #949494",
"j	c #040404",
"k	c #ADADAD",
"l	c #4F4F4F",
"m	c #ABABAB",
"n	c #ECECEC",
"o	c #1F1F1F",
"p	c #A9A9A9",
"q	c #F2F2F2",
" .+++@ ++++#$%&+++* ",
" +=-=+ +=--+;>+---, ",
" +- -+ +-  +--+     ",
" +- -+ +-  +'-+     ",
" +++++ ++++)!-+     ",
" +=-=+ +=--+~-+     ",
" +- -+ +-  +--+     ",
" +- -+ +=--+>>+---, ",
" +- -+ ++++{%%&+++* ",
"                    ",
"              ]^    ",
"            /(+_:   ",
"           <*+[}    ",
"    |1    23+45     ",
"   6[47  8[+49      ",
"   0a+b;c++de       ",
"    fg+d++dh        ",
"     i+++jk         ",
"      l+jm          ",
"      nop           ",
"       q            "};
