/* XPM */
static char * js_xpm[] = {
"16 16 48 1",
" 	c None",
".	c #F7DF1E",
"+	c #74690E",
"@	c #837610",
"#	c #D4C01A",
"$	c #5F560C",
"%	c #494209",
"&	c #9C8D13",
"*	c #322D06",
"=	c #2B2605",
"-	c #1E1B04",
";	c #4A4209",
">	c #161403",
",	c #DFC91B",
"'	c #F6DE1E",
")	c #080701",
"!	c #59500B",
"~	c #F5DD1E",
"{	c #E9D31C",
"]	c #655B0C",
"^	c #000000",
"/	c #2C2705",
"(	c #A89714",
"_	c #272305",
":	c #948612",
"<	c #D1BD19",
"[	c #2E2906",
"}	c #4D4609",
"|	c #AC9C15",
"1	c #F2DB1D",
"2	c #F4DC1E",
"3	c #6D630D",
"4	c #0D0B02",
"5	c #4D4509",
"6	c #020200",
"7	c #827510",
"8	c #BFAC17",
"9	c #030300",
"0	c #50490A",
"a	c #786C0F",
"b	c #E8D21C",
"c	c #6F650E",
"d	c #484109",
"e	c #7B6F0F",
"f	c #EFD81D",
"g	c #BBA917",
"h	c #847710",
"i	c #F1DA1D",
"................",
"................",
"................",
"................",
"................",
"................",
"................",
".......+@.#$%&..",
".......*%.=-;>,.",
".......*%')!~{..",
".......*%.]^/(..",
".......*%.'&_^:.",
"....~<.[}'|12_%.",
"....3456789*09a.",
"....bcdef.g!%hi.",
"................"};
