/* XPM */
static char * Lua_Logo_16x16_xpm[] = {
"16 16 75 1",
" 	c None",
".	c #00005D",
"+	c #000073",
"@	c #00004F",
"#	c #00007A",
"$	c #00007E",
"%	c #000072",
"&	c #000049",
"*	c #000070",
"=	c #00007B",
"-	c #00007D",
";	c #020271",
">	c #010149",
",	c #000067",
"'	c #00005A",
")	c #00005C",
"!	c #00007C",
"~	c #292992",
"{	c #9393C8",
"]	c #8A8AC2",
"^	c #1E1E6B",
"/	c #040480",
"(	c #A0A0CE",
"_	c #FEFEFE",
":	c #FCFCFD",
"<	c #8787C1",
"[	c #010147",
"}	c #050580",
"|	c #A6A6D2",
"1	c #FDFDFE",
"2	c #8D8DC5",
"3	c #010170",
"4	c #2C2C94",
"5	c #0C0C84",
"6	c #313196",
"7	c #A3A3D0",
"8	c #9A9ACC",
"9	c #242490",
"0	c #6464B0",
"a	c #1C1C8B",
"b	c #252590",
"c	c #0A0A83",
"d	c #2D2D95",
"e	c #5151A6",
"f	c #1F1F8D",
"g	c #6464B1",
"h	c #1C1C8C",
"i	c #01017E",
"j	c #6363AF",
"k	c #6161AF",
"l	c #4949A2",
"m	c #6666B1",
"n	c #6060AE",
"o	c #6969B3",
"p	c #39399A",
"q	c #6B6BB3",
"r	c #333397",
"s	c #7171B7",
"t	c #6E6EB5",
"u	c #5E5EAD",
"v	c #6969B2",
"w	c #00006F",
"x	c #000047",
"y	c #383899",
"z	c #5656A9",
"A	c #43439F",
"B	c #3F3F9D",
"C	c #5454A8",
"D	c #38389A",
"E	c #4343A0",
"F	c #5151A7",
"G	c #4D4DA3",
"H	c #040448",
"I	c #000059",
"J	c #000045",
"                ",
"             .+@",
"             #$%",
"     &*=-=;> ,#'",
"    )!$$$~{]^   ",
"   &!$$$/(_:<[  ",
"   *$$$$}|_123  ",
"   =45$$$6789=  ",
"   !0a$bc9def!  ",
"   =ghijaklmn#  ",
"   *ophqrstuvw  ",
"   xyzABCDEFGH  ",
"    '!$$$$$!I   ",
"     xw=-=wJ    ",
"                ",
"                "};
