/* XPM */
static char * d:\EmacsPortable_App\Data\src\mode_icons\icons\msys_xpm[] = {
"16 16 127 2",
"  	c None",
". 	c #7A536A",
"+ 	c #4E92CF",
"@ 	c #A4BDD8",
"# 	c #89545B",
"$ 	c #536B9B",
"% 	c #5D9CD0",
"& 	c #9DC2E6",
"* 	c #676086",
"= 	c #3F89CC",
"- 	c #89C0E6",
"; 	c #987984",
"> 	c #6A4253",
", 	c #4585C7",
"' 	c #5DA5D9",
") 	c #A8B7D4",
"! 	c #7C3C4A",
"~ 	c #4B94D4",
"{ 	c #4D8ACA",
"] 	c #75B3DF",
"^ 	c #B4B0C4",
"/ 	c #5D82B5",
"( 	c #56A0D7",
"_ 	c #6FAFDE",
": 	c #B0BDD6",
"< 	c #657AA7",
"[ 	c #93B7DA",
"} 	c #6280BC",
"| 	c #7BA4D5",
"1 	c #C4DCF0",
"2 	c #7A556D",
"3 	c #69A9DE",
"4 	c #5E82C2",
"5 	c #8ABBE1",
"6 	c #BCC8DD",
"7 	c #66353E",
"8 	c #8BAFD8",
"9 	c #ABA3B5",
"0 	c #7875A0",
"a 	c #83A4D5",
"b 	c #D7F3FF",
"c 	c #622122",
"d 	c #778FB9",
"e 	c #AFBACF",
"f 	c #707BB0",
"g 	c #95BDE2",
"h 	c #D0E8F9",
"i 	c #9B89A3",
"j 	c #C2E1F9",
"k 	c #864145",
"l 	c #827091",
"m 	c #8FA6D7",
"n 	c #D9F0FD",
"o 	c #AB8893",
"p 	c #B8D7EF",
"q 	c #82444D",
"r 	c #7B85B1",
"s 	c #A0BFE3",
"t 	c #DCF2FD",
"u 	c #99606A",
"v 	c #B6D1EF",
"w 	c #C0A3AA",
"x 	c #8D5F73",
"y 	c #9DABDC",
"z 	c #D1E4F3",
"A 	c #D5E8F6",
"B 	c #C0A2AA",
"C 	c #868AB2",
"D 	c #B3C6E6",
"E 	c #E1F4FD",
"F 	c #B08D91",
"G 	c #ABA9C5",
"H 	c #DBE4EF",
"I 	c #724344",
"J 	c #773231",
"K 	c #A6A9D9",
"L 	c #D1E0F1",
"M 	c #E3ECF3",
"N 	c #784848",
"O 	c #9C86AA",
"P 	c #B2B6DF",
"Q 	c #E3F2FA",
"R 	c #DDD7D8",
"S 	c #937379",
"T 	c #ECF9FF",
"U 	c #C6AAAC",
"V 	c #A7829D",
"W 	c #D9E0F0",
"X 	c #DBD1D4",
"Y 	c #77363B",
"Z 	c #B6B6DC",
"` 	c #BA9AA6",
" .	c #EDEFF3",
"..	c #8C6D6E",
"+.	c #B6969A",
"@.	c #B69196",
"#.	c #5D2A2D",
"$.	c #D6CEDA",
"%.	c #84494C",
"&.	c #4A2424",
"*.	c #965253",
"=.	c #E9DEDF",
"-.	c #A57379",
";.	c #57191A",
">.	c #804446",
",.	c #A48B8F",
"'.	c #B39193",
").	c #7C3434",
"!.	c #E1D4D7",
"~.	c #A26F72",
"{.	c #531111",
"].	c #F4EEF1",
"^.	c #914142",
"/.	c #E4D7D9",
"(.	c #CFB1B6",
"_.	c #5C1E1E",
":.	c #9C5659",
"<.	c #BFA4A5",
"[.	c #B7888C",
"}.	c #C69FA4",
"|.	c #602F2F",
"1.	c #D6BDC1",
"2.	c #220000",
"3.	c #B79094",
"4.	c #BB8E93",
"5.	c #411D1D",
"6.	c #A97378",
"                                ",
"        . + @ #       $ % &     ",
"        * = - ;     > , ' )     ",
"      ! ~ { ] ^     / ( _ :     ",
"      < [ } | 1   2 3 4 5 6     ",
"    7 8 9 0 a b c d e f g h     ",
"    i j k l m n o p q r s t     ",
"  u v w   x y z A B   C D E F   ",
"  G H I   J K L M N   O P Q R   ",
"S T U       V W X     Y Z `  ...",
"+.@.        #.$.%.    &.*.=.-.  ",
"                ;.>.,.'.).!.~.  ",
"              {.].^./.(._.:.<.  ",
"                [.}.|.1.        ",
"              2.3.4.5.6.        ",
"                                "};
