/* XPM */
static char * org_xpm[] = {
"15 16 94 2",
"  	c None",
". 	c #3A332C",
"+ 	c #4D443B",
"@ 	c #51463C",
"# 	c #334A44",
"$ 	c #54796F",
"% 	c #837769",
"& 	c #426760",
"* 	c #714E3C",
"= 	c #835D48",
"- 	c #626F63",
"; 	c #6D3928",
"> 	c #98472E",
", 	c #6FA595",
"' 	c #7AB09E",
") 	c #649386",
"! 	c #6A998B",
"~ 	c #77AA98",
"{ 	c #49695E",
"] 	c #364D45",
"^ 	c #3E1F16",
"/ 	c #AD6954",
"( 	c #B26E59",
"_ 	c #A04E33",
": 	c #A14C31",
"< 	c #799684",
"[ 	c #77AA99",
"} 	c #75A796",
"| 	c #73A594",
"1 	c #628B7E",
"2 	c #B06B55",
"3 	c #B26E58",
"4 	c #A75A41",
"5 	c #A14D31",
"6 	c #815A45",
"7 	c #69503F",
"8 	c #73A999",
"9 	c #79AC9B",
"0 	c #78AB9A",
"a 	c #79AD9C",
"b 	c #7AAE9C",
"c 	c #70A091",
"d 	c #51776E",
"e 	c #3B564E",
"f 	c #7B4634",
"g 	c #B16D57",
"h 	c #AC634C",
"i 	c #A35338",
"j 	c #954D34",
"k 	c #6F9787",
"l 	c #709D8C",
"m 	c #5C8275",
"n 	c #46645A",
"o 	c #577D70",
"p 	c #854E3C",
"q 	c #AF6852",
"r 	c #A4553B",
"s 	c #9F4C31",
"t 	c #775B48",
"u 	c #75A392",
"v 	c #70A090",
"w 	c #52766A",
"x 	c #753D2A",
"y 	c #A14F34",
"z 	c #A04D32",
"A 	c #884A33",
"B 	c #739C8B",
"C 	c #6F9D8D",
"D 	c #75A797",
"E 	c #A24E33",
"F 	c #854E38",
"G 	c #758776",
"H 	c #76A392",
"I 	c #679384",
"J 	c #567B6F",
"K 	c #603323",
"L 	c #738D7B",
"M 	c #6E9989",
"N 	c #77AB9A",
"O 	c #5F887A",
"P 	c #5B8275",
"Q 	c #3C554D",
"R 	c #4C6D61",
"S 	c #73A595",
"T 	c #78AC9B",
"U 	c #6E9D8D",
"V 	c #6B998A",
"W 	c #5C8476",
"X 	c #5B8174",
"Y 	c #425E55",
"Z 	c #3E5950",
"` 	c #48665C",
" .	c #597F72",
"..	c #1F2C27",
"                    .         ",
"                    +         ",
"                  @           ",
"            #   $ %           ",
"            & * = -           ",
"        ; > , ' ) ! ~ { ]     ",
"  ^ / ( _ : < [ [ [ [ [ } | 1 ",
"  2 3 4 5 6 7 8 9 0 a b c d e ",
"f g h i j k l m n o           ",
"p q r s t u v w               ",
"x y z A B C D w               ",
"  E F G H [ 0 I J             ",
"  K L M N [ [ [ O P Q         ",
"    R S T T 0 U V W X         ",
"        Y Z         `  .      ",
"                        ..    "};
