/* XPM */
/* icon by Tina Russell, based on the work of Greg Newman and Christophe Bataillon */
static char * org_mode_xpm[] = {
"16 16 150 2",
"  	c None",
". 	c #554C41",
"+ 	c #494138",
"@ 	c #545249",
"# 	c #524A40",
"$ 	c #564C41",
"% 	c #394A4C",
"& 	c #565B53",
"* 	c #64574D",
"= 	c #31504B",
"- 	c #484138",
"; 	c #6B4737",
"> 	c #6F5D50",
", 	c #5D5147",
"' 	c #6D4133",
") 	c #5A776B",
"! 	c #5D7468",
"~ 	c #7C705E",
"{ 	c #788272",
"] 	c #688F81",
"^ 	c #486C61",
"/ 	c #744334",
"( 	c #874F3D",
"_ 	c #944D37",
": 	c #904932",
"< 	c #7A8A77",
"[ 	c #72B5A5",
"} 	c #6CA697",
"| 	c #447C6C",
"1 	c #6B9F8F",
"2 	c #709F8F",
"3 	c #638E80",
"4 	c #5E8679",
"5 	c #5E8578",
"6 	c #4E7065",
"7 	c #7F4D3D",
"8 	c #9D5E4A",
"9 	c #A96752",
"0 	c #AB5A40",
"a 	c #9C4930",
"b 	c #896953",
"c 	c #77AB9A",
"d 	c #6CA895",
"e 	c #689C89",
"f 	c #629A85",
"g 	c #7DB3A1",
"h 	c #7AAE9D",
"i 	c #71A293",
"j 	c #6E9D8E",
"k 	c #54796D",
"l 	c #6A3F33",
"m 	c #A05F4A",
"n 	c #B7735C",
"o 	c #B1654D",
"p 	c #A34C31",
"q 	c #924E35",
"r 	c #7A5743",
"s 	c #6C8B7B",
"t 	c #72A898",
"u 	c #78AC9A",
"v 	c #76A897",
"w 	c #72A292",
"x 	c #73A493",
"y 	c #659285",
"z 	c #557B71",
"A 	c #3A554D",
"B 	c #8A503D",
"C 	c #B4705A",
"D 	c #B26C55",
"E 	c #9B523B",
"F 	c #98452C",
"G 	c #7C7663",
"H 	c #6D9585",
"I 	c #628779",
"J 	c #5B8275",
"K 	c #5F8779",
"L 	c #5D8577",
"M 	c #415C53",
"N 	c #3E5850",
"O 	c #425F56",
"P 	c #354D46",
"Q 	c #8B523F",
"R 	c #B16C56",
"S 	c #A95A41",
"T 	c #984A31",
"U 	c #89523B",
"V 	c #718D7D",
"W 	c #75B0A0",
"X 	c #5D877A",
"Y 	c #446257",
"Z 	c #864B39",
"` 	c #A7583E",
" .	c #A54E32",
"..	c #954A31",
"+.	c #766956",
"@.	c #6E9282",
"#.	c #77A897",
"$.	c #5D8779",
"%.	c #425D54",
"&.	c #6F3927",
"*.	c #9F4B30",
"=.	c #96452C",
"-.	c #7C6450",
";.	c #6F8F7F",
">.	c #76A796",
",.	c #79AE9D",
"'.	c #689586",
").	c #517468",
"!.	c #415E54",
"~.	c #4E322C",
"{.	c #7B4A35",
"].	c #776452",
"^.	c #708575",
"/.	c #73AC9C",
"(.	c #78AB9B",
"_.	c #79AC9B",
":.	c #6E9E8D",
"<.	c #628D7E",
"[.	c #587D70",
"}.	c #435F56",
"|.	c #43433B",
"1.	c #5F8275",
"2.	c #74A190",
"3.	c #77A998",
"4.	c #79AD9B",
"5.	c #78AB9A",
"6.	c #71A393",
"7.	c #689587",
"8.	c #5F897B",
"9.	c #577E71",
"0.	c #436056",
"a.	c #395B54",
"b.	c #608B7D",
"c.	c #73A494",
"d.	c #6E9E8E",
"e.	c #669384",
"f.	c #628D7F",
"g.	c #5B8376",
"h.	c #587E72",
"i.	c #567B6E",
"j.	c #3E584F",
"k.	c #425950",
"l.	c #466258",
"m.	c #48675D",
"n.	c #4B6B61",
"o.	c #456259",
"p.	c #47645B",
"q.	c #48665D",
"r.	c #4B6A60",
"s.	c #49685E",
"                    . +         ",
"                  @ # $         ",
"                % & *           ",
"            = - ; > ,           ",
"          ' ) ! ~ { ] ^         ",
"    / ( _ : < [ } | 1 2 3 4 5 6 ",
"  7 8 9 0 a b c d e f g h i j k ",
"l m n o p q r s t u v w x y z A ",
"B C D E F G H I J K L M N O P   ",
"Q R S T U V W X Y               ",
"Z `  ...+.@.#.$.%.              ",
"&.*.=.-.;.>.,.'.).!.            ",
"~.{.].^./.(._.:.<.[.}.          ",
"  |.1.2.3.4.5.6.7.8.9.0.        ",
"    a.b.c.5.d.e.f.g.h.i.j.      ",
"      k.l.m.n.o.o.p.q.r.s.      "};
