/* XPM */
static char * php_xpm[] = {
"30 16 315 2",
"  	c None",
". 	c #D9D7E1",
"+ 	c #CAC9D8",
"@ 	c #B6B5CC",
"# 	c #A5A4C3",
"$ 	c #9697BA",
"% 	c #8C8DB4",
"& 	c #8283AE",
"* 	c #787BA8",
"= 	c #6D70A1",
"- 	c #606598",
"; 	c #5F6390",
"> 	c #636588",
", 	c #C7C5D6",
"' 	c #BFBED5",
") 	c #AAABCC",
"! 	c #9193C0",
"~ 	c #7E81B7",
"{ 	c #767AB4",
"] 	c #7478B3",
"^ 	c #8185BE",
"/ 	c #8488C0",
"( 	c #777BB5",
"_ 	c #777BB4",
": 	c #777BB3",
"< 	c #7579B1",
"[ 	c #7275A9",
"} 	c #6F709C",
"| 	c #6A6A89",
"1 	c #626175",
"2 	c #A8A6C2",
"3 	c #9F9FC3",
"4 	c #8789BB",
"5 	c #6E73B1",
"6 	c #7075B1",
"7 	c #7379B2",
"8 	c #7377B3",
"9 	c #8387BD",
"0 	c #636474",
"a 	c #595965",
"b 	c #898CBC",
"c 	c #7479B4",
"d 	c #787CB7",
"e 	c #787CB9",
"f 	c #7376A9",
"g 	c #656788",
"h 	c #545463",
"i 	c #9090B6",
"j 	c #8083B6",
"k 	c #7176B2",
"l 	c #7578B4",
"m 	c #787CB5",
"n 	c #797DB5",
"o 	c #7A7DB6",
"p 	c #7B7FB8",
"q 	c #757AB7",
"r 	c #9193BF",
"s 	c #070705",
"t 	c #1F1F1E",
"u 	c #878BBD",
"v 	c #797DB7",
"w 	c #797DB6",
"x 	c #7B80BA",
"y 	c #7D82C0",
"z 	c #7174A7",
"A 	c #50526A",
"B 	c #2D2E36",
"C 	c #7A7DA5",
"D 	c #8182B0",
"E 	c #757AB3",
"F 	c #7579B5",
"G 	c #7D80B1",
"H 	c #6C6D86",
"I 	c #57596B",
"J 	c #58596C",
"K 	c #6A6C86",
"L 	c #8185B8",
"M 	c #7F82A3",
"N 	c #060607",
"O 	c #28282A",
"P 	c #5C5E70",
"Q 	c #5B5C70",
"R 	c #6E718E",
"S 	c #8083B5",
"T 	c #7A7DA1",
"U 	c #5A5B6D",
"V 	c #57596C",
"W 	c #57586A",
"X 	c #606177",
"Y 	c #787B9F",
"Z 	c #7F83BD",
"` 	c #7B7FBB",
" .	c #4D4F6E",
"..	c #13141B",
"+.	c #7679A9",
"@.	c #767AB5",
"#.	c #7579B3",
"$.	c #74769C",
"%.	c #21211E",
"&.	c #10100C",
"*.	c #333334",
"=.	c #232221",
"-.	c #080803",
";.	c #5F606D",
">.	c #6F7082",
",.	c #040405",
"'.	c #212123",
").	c #2D2E2F",
"!.	c #191916",
"~.	c #0E0D0B",
"{.	c #6C6D7E",
"].	c #5A5B6A",
"^.	c #010000",
"/.	c #272727",
"(.	c #2F2F30",
"_.	c #0F0F0B",
":.	c #232321",
"<.	c #747798",
"[.	c #7C80BA",
"}.	c #7E83C1",
"|.	c #383A55",
"1.	c #64699A",
"2.	c #7679B2",
"3.	c #767AB3",
"4.	c #7D82BB",
"5.	c #686A89",
"6.	c #0D0C08",
"7.	c #4E4F5F",
"8.	c #8F92C1",
"9.	c #8487AD",
"0.	c #1D1E24",
"a.	c #1C1C1A",
"b.	c #4D4D4E",
"c.	c #010100",
"d.	c #7D7F97",
"e.	c #8487BA",
"f.	c #646579",
"g.	c #54545A",
"h.	c #43434C",
"i.	c #1A1B20",
"j.	c #8C90C0",
"k.	c #56576A",
"l.	c #000000",
"m.	c #565769",
"n.	c #7A7EB5",
"o.	c #7B80BB",
"p.	c #7276AD",
"q.	c #14151F",
"r.	c #64699D",
"s.	c #7E82B9",
"t.	c #5B5D73",
"u.	c #0E0E0A",
"v.	c #666887",
"w.	c #878BD1",
"x.	c #8F93C5",
"y.	c #25252D",
"z.	c #272726",
"A.	c #12110F",
"B.	c #8A8DB8",
"C.	c #7E83C4",
"D.	c #626479",
"E.	c #050505",
"F.	c #63646E",
"G.	c #2F2F31",
"H.	c #2F303B",
"I.	c #8C90C7",
"J.	c #8A8FD2",
"K.	c #62647C",
"L.	c #060501",
"M.	c #5A5B70",
"N.	c #7B7EB6",
"O.	c #7F83C0",
"P.	c #2D2F45",
"Q.	c #65699C",
"R.	c #787CB6",
"S.	c #777BB6",
"T.	c #7E81B5",
"U.	c #464755",
"V.	c #141313",
"W.	c #6C6D88",
"X.	c #8487B4",
"Y.	c #56576C",
"Z.	c #060606",
"`.	c #5B5B5C",
" +	c #8385B9",
".+	c #8387BF",
"++	c #45464F",
"@+	c #0A0A0B",
"#+	c #767783",
"$+	c #111211",
"%+	c #3F3F4A",
"&+	c #8B8EB7",
"*+	c #717496",
"=+	c #24252B",
"-+	c #1A1916",
";+	c #75789A",
">+	c #7A7EB8",
",+	c #7E84C0",
"'+	c #2F3047",
")+	c #636593",
"!+	c #7579B2",
"~+	c #797DB8",
"{+	c #7D80AF",
"]+	c #36363E",
"^+	c #232323",
"/+	c #262627",
"(+	c #181713",
"_+	c #454650",
":+	c #818292",
"<+	c #0A0A07",
"[+	c #4B4B53",
"}+	c #8287C0",
"|+	c #8387B9",
"1+	c #2C2C29",
"2+	c #171717",
"3+	c #7F808C",
"4+	c #141414",
"5+	c #2C2C2E",
"6+	c #696A82",
"7+	c #7E82B7",
"8+	c #767AB2",
"9+	c #171722",
"0+	c #6B6F9F",
"a+	c #7A7EB9",
"b+	c #7377A0",
"c+	c #202020",
"d+	c #202025",
"e+	c #616276",
"f+	c #5E5F77",
"g+	c #686A87",
"h+	c #8084B3",
"i+	c #8486AF",
"j+	c #63657E",
"k+	c #797B9F",
"l+	c #797EB9",
"m+	c #8185B7",
"n+	c #6C6E86",
"o+	c #71738D",
"p+	c #5F606E",
"q+	c #070707",
"r+	c #4F505E",
"s+	c #61627C",
"t+	c #76789D",
"u+	c #7F83B8",
"v+	c #8386C6",
"w+	c #3F405E",
"x+	c #64678F",
"y+	c #6D70A2",
"z+	c #7D81BC",
"A+	c #6D708F",
"B+	c #050500",
"C+	c #444653",
"D+	c #8C90C5",
"E+	c #7D81BB",
"F+	c #787CB4",
"G+	c #7D81B9",
"H+	c #7A7EB7",
"I+	c #7C80B8",
"J+	c #3B3C3E",
"K+	c #111113",
"L+	c #8082A8",
"M+	c #8185C1",
"N+	c #7B7FB9",
"O+	c #8084C2",
"P+	c #484B6E",
"Q+	c #13141D",
"R+	c #64668F",
"S+	c #6E719E",
"T+	c #7B7DA1",
"U+	c #5D5E6F",
"V+	c #77799B",
"W+	c #7C81BA",
"X+	c #7579B4",
"Y+	c #7D81B4",
"Z+	c #616379",
"`+	c #8185B6",
" @	c #7478B5",
".@	c #8084C3",
"+@	c #7073A9",
"@@	c #393A56",
"#@	c #151620",
"$@	c #6A6C94",
"%@	c #7375A5",
"&@	c #787BB2",
"*@	c #777CB6",
"=@	c #767BB4",
"-@	c #7C80B9",
";@	c #7A7FBC",
">@	c #7C80BD",
",@	c #7175A9",
"'@	c #4D4F70",
")@	c #21222F",
"!@	c #65678D",
"~@	c #696D97",
"{@	c #6F72A2",
"]@	c #7477AD",
"^@	c #777AB3",
"/@	c #787CB8",
"(@	c #787DB9",
"_@	c #777BB7",
":@	c #62658B",
"<@	c #4B4D64",
"[@	c #2F313A",
"}@	c #666785",
"|@	c #676888",
"1@	c #696B8D",
"2@	c #6C6D91",
"3@	c #6C6D92",
"4@	c #6D6E92",
"5@	c #6B6D8F",
"6@	c #696A8B",
"7@	c #656682",
"8@	c #5E5F75",
"9@	c #555463",
"0@	c #484750",
"                  . + @ # $ % & * = - ; >                   ",
"            , ' ) ! ~ { ] ^ / ( { _ : < [ } | 1             ",
"        2 3 4 ] 5 6 7 8 9 0 a b c { { ( d e d f g h         ",
"      i j k l m n o p q r s t u v p ( m o w w x y z A B     ",
"  C D E F G H I I J K L M N O P Q R S T U V W X Y Z `  ...  ",
"  +.@.#.x $.%.&.*.=.-.;.>.,.'.).!.~.{.].^./.(._.:.<.[.}.|.  ",
"1.2._ 3.4.5.6.7.8.9.0.a.b.c.d.e.f.^.g.h.i.M j.k.l.m.n.o.p.q.",
"r.m 3.{ s.t.u.v.w.x.y.t z.A.B.C.D.E.F.G.H.I.J.K.L.M.N.{ O.P.",
"Q.R.3.S.T.U.V.W.X.Y.Z.`.V.G. +.+++@+#+$+%+&+*+=+-+;+>+{ ,+'+",
")+!+( ~+{+]+c.^+/+(+_+:+<+[+}+|+1+2+3+l.4+5+a.z.6+7+_ >+8+9+",
"  0+d a+b+c+d+e+f+g+h+i+j+k+l+m+n+o+p+q+r+K.s+t+u+_ R.v+w+  ",
"  x+y+z+A+B+C+D+[.E+v F+G+H+3._ I+u J+K+L+M+G+N+{ ` O+P+Q+  ",
"    R+S+T+U+V+W+X+{ 3.3.{ { : 3.{ Y+>.Z+`+ @3.~+.@+@@@#@    ",
"        $@%@&@*@d ( ( _ 3.3.3.3.3.=@p -@~+;@>@,@'@)@        ",
"            !@~@{@]@^@( d /@e (@(@/@_@{ z :@<@[@            ",
"                  }@|@1@2@3@4@5@6@7@8@9@0@                  "};
