/* XPM */
static char * d:\EmacsPortable_App\Data\src\mode_icons\icons\powershell_xpm[] = {
"16 16 178 2",
"  	c None",
". 	c #13B5D8",
"+ 	c #13B6D9",
"@ 	c #14B6D9",
"# 	c #12B4D7",
"$ 	c #13B2D5",
"% 	c #12B1D3",
"& 	c #13AFD2",
"* 	c #14ADD0",
"= 	c #14ABCE",
"- 	c #14A9CC",
"; 	c #14A8CA",
"> 	c #14A6C8",
", 	c #14A4C5",
"' 	c #12BFE3",
") 	c #A2E6F5",
"! 	c #52CAE3",
"~ 	c #10B8DC",
"{ 	c #13B6DA",
"] 	c #14B4D7",
"^ 	c #14B1D4",
"/ 	c #14AFD2",
"( 	c #14ADCF",
"_ 	c #14AACD",
": 	c #14A6C7",
"< 	c #13BEE2",
"[ 	c #12BDE1",
"} 	c #9BDDEC",
"| 	c #FFFEFE",
"1 	c #21B8D9",
"2 	c #13B4D7",
"3 	c #14B2D5",
"4 	c #14A9CB",
"5 	c #14A2C4",
"6 	c #13B3D6",
"7 	c #13BBDF",
"8 	c #0AB5D9",
"9 	c #CDEBF2",
"0 	c #C3E8F1",
"a 	c #0DAFD3",
"b 	c #14B0D3",
"c 	c #14AED0",
"d 	c #14A7C9",
"e 	c #14A4C6",
"f 	c #14A1C2",
"g 	c #13B7DB",
"h 	c #13BADE",
"i 	c #12B8DB",
"j 	c #1BB2D4",
"k 	c #F2F8FA",
"l 	c #83D0E3",
"m 	c #12AED1",
"n 	c #14ACCE",
"o 	c #14A5C7",
"p 	c #13A3C4",
"q 	c #159FC0",
"r 	c #13B8DB",
"s 	c #13B5D9",
"t 	c #11B4D7",
"u 	c #6DC9DE",
"v 	c #F4FAFC",
"w 	c #2BAFCC",
"x 	c #14AACC",
"y 	c #13A3C5",
"z 	c #12BBDF",
"A 	c #13B9DC",
"B 	c #12B6DA",
"C 	c #0EB0D4",
"D 	c #C4EAF3",
"E 	c #E6F2F6",
"F 	c #1CA1C0",
"G 	c #14A1C3",
"H 	c #159FC1",
"I 	c #13B9DD",
"J 	c #12B7DA",
"K 	c #23B7D8",
"L 	c #C8ECF4",
"M 	c #D7ECF2",
"N 	c #33A7C3",
"O 	c #13AACD",
"P 	c #13A4C6",
"Q 	c #14A2C3",
"R 	c #159DBF",
"S 	c #13ADCF",
"T 	c #1AB5D7",
"U 	c #C6EAF4",
"V 	c #CFE5EB",
"W 	c #25A7C5",
"X 	c #05A4C8",
"Y 	c #08A3C6",
"Z 	c #09A0C4",
"` 	c #14A3C4",
" .	c #15A0C2",
"..	c #149EBF",
"+.	c #159BBC",
"@.	c #16B4D7",
"#.	c #DCF1F7",
"$.	c #CDE9F1",
"%.	c #1BA3C2",
"&.	c #56C4DD",
"*.	c #CDEFF7",
"=.	c #C9ECF6",
"-.	c #B1E2EE",
";.	c #14A0C2",
">.	c #149EC0",
",.	c #159CBE",
"'.	c #159ABB",
").	c #13B1D4",
"!.	c #17B2D5",
"~.	c #9DCFDC",
"{.	c #1FA7C6",
"].	c #12ABCD",
"^.	c #3DB7D3",
"/.	c #80C6D7",
"(.	c #7EC4D7",
"_.	c #70BDD0",
":.	c #149FC1",
"<.	c #159DBE",
"[.	c #159ABC",
"}.	c #1599BA",
"|.	c #16B5D7",
"1.	c #16B2D5",
"2.	c #16AFD2",
"3.	c #16ABCD",
"4.	c #16A9CA",
"5.	c #15A6C8",
"6.	c #15A4C6",
"7.	c #15A2C3",
"8.	c #16A0C1",
"9.	c #169EBE",
"0.	c #169BBC",
"a.	c #1699B9",
"b.	c #AEC2C5",
"c.	c #AABFC2",
"d.	c #A9BEC0",
"e.	c #A7BCBE",
"f.	c #A8BDC0",
"g.	c #A6BBBE",
"h.	c #A5BABD",
"i.	c #A3B8BB",
"j.	c #AABDC0",
"k.	c #9FB5B7",
"l.	c #9DB3B5",
"m.	c #99AEB1",
"n.	c #B9CED1",
"o.	c #B5C9CC",
"p.	c #B4C8CB",
"q.	c #B3C7CA",
"r.	c #637A7E",
"s.	c #5F7679",
"t.	c #5F7579",
"u.	c #5E7579",
"v.	c #6E8387",
"w.	c #A7BBBF",
"x.	c #5C7377",
"y.	c #A5B8BA",
"z.	c #B8CDD0",
"A.	c #B6CACD",
"B.	c #9EB4B7",
"C.	c #9CB3B6",
"D.	c #9AB1B4",
"E.	c #99AFB3",
"F.	c #9DB2B5",
"G.	c #8EA4A8",
"H.	c #94ACAF",
"I.	c #91A9AD",
"J.	c #92A6A8",
"K.	c #A3B6B8",
"L.	c #A0B4B6",
"M.	c #9FB2B5",
"N.	c #9DB1B3",
"O.	c #9CAFB1",
"P.	c #9AAEB0",
"Q.	c #99ACAF",
"R.	c #96AAAC",
"S.	c #90A4A6",
"T.	c #94A9AA",
"U.	c #93A7AA",
"      . + @ # $ % & * = - ; > , ",
"      ' ' ) ! ~ { ] ^ / ( _ ; : ",
"      < [ } | 1 2 3 / ( _ 4 > 5 ",
"    6 < 7 8 9 0 a b c = 4 d e f ",
"    g 7 h i j k l m n 4 ; o p q ",
"    [ h r s t u v w x ; o y f   ",
"    z A B ] C D E F ; > e G H   ",
"    I J 2 K L M N O d P Q H R   ",
"  S i . T U V W X Y Z `  ...+.  ",
"  & s @.#.$.%.&.*.=.-.;.>.,.'.  ",
"  ).] !.~.{.].^./.(._.:.<.[.}.  ",
"  |.1.2.( 3.4.5.6.7.8.9.0.a.    ",
"  b.c.d.e.c.f.g.h.i.j.k.l.m.    ",
"  n.o.p.q.r.s.t.u.v.w.x.x.m.    ",
"y.z.A.p.q.B.C.D.E.F.G.H.I.J.    ",
"  K.L.M.N.N.O.P.Q.R.S.T.U.      "};
