/* XPM */
static char * python_xpm[] = {
"16 16 154 2",
"  	c None",
". 	c #4D8CBE",
"+ 	c #4787B8",
"@ 	c #4483B5",
"# 	c #417FB1",
"$ 	c #3E7BAD",
"% 	c #3B77A8",
"& 	c #508FBE",
"* 	c #BBD3E5",
"= 	c #73A2C7",
"- 	c #3F7CAE",
"; 	c #3C79A9",
"> 	c #3975A6",
", 	c #3672A2",
"' 	c #4B8ABA",
") 	c #A2C1DA",
"! 	c #6698C0",
"~ 	c #3F7DAE",
"{ 	c #3C79AA",
"] 	c #3976A5",
"^ 	c #3772A2",
"/ 	c #346E9E",
"( 	c #4686B7",
"_ 	c #4A85B5",
": 	c #4782B3",
"< 	c #3D7BAC",
"[ 	c #3A76A7",
"} 	c #3773A3",
"| 	c #346F9E",
"1 	c #326C9B",
"2 	c #4B8BBE",
"3 	c #4888BA",
"4 	c #4585B7",
"5 	c #4381B3",
"6 	c #407DAF",
"7 	c #3D7AAB",
"8 	c #3873A3",
"9 	c #35709F",
"0 	c #286499",
"a 	c #FFF46F",
"b 	c #FFE872",
"c 	c #FFE66E",
"d 	c #4B8CBE",
"e 	c #4889BB",
"f 	c #4382B3",
"g 	c #417FB0",
"h 	c #3873A4",
"i 	c #326C9C",
"j 	c #306998",
"k 	c #276499",
"l 	c #FFF26E",
"m 	c #FFE56D",
"n 	c #FFE366",
"o 	c #FFE162",
"p 	c #4888BC",
"q 	c #4685B8",
"r 	c #4482B4",
"s 	c #407FB1",
"t 	c #3E7BAC",
"u 	c #3B77A9",
"v 	c #3974A4",
"w 	c #3571A1",
"x 	c #336D9D",
"y 	c #306A99",
"z 	c #2F6897",
"A 	c #1F5F9B",
"B 	c #FFEA68",
"C 	c #FFE265",
"D 	c #FFE05E",
"E 	c #FFDE58",
"F 	c #4687B9",
"G 	c #3E7CAD",
"H 	c #3B78A8",
"I 	c #3472A6",
"J 	c #2C6BA3",
"K 	c #2A689F",
"L 	c #26649B",
"M 	c #25629A",
"N 	c #1D5E9C",
"O 	c #DCCE6E",
"P 	c #FEE162",
"Q 	c #FFDF5C",
"R 	c #FFDD56",
"S 	c #FFDB50",
"T 	c #427FB2",
"U 	c #3F7CAD",
"V 	c #3C78A9",
"W 	c #4B80A2",
"X 	c #FFF86B",
"Y 	c #FFF06F",
"Z 	c #FFF070",
"` 	c #FFEF6E",
" .	c #FFEC67",
"..	c #FFE762",
"+.	c #FEE060",
"@.	c #FFDE5A",
"#.	c #FFDD53",
"$.	c #FFDA4D",
"%.	c #FFD848",
"&.	c #4280B1",
"*.	c #3C7AAA",
"=.	c #3372A8",
"-.	c #FFF36D",
";.	c #FFE873",
">.	c #FFE772",
",.	c #FFE66F",
"'.	c #FFE469",
").	c #FFE263",
"!.	c #FFDF5D",
"~.	c #FFDE57",
"{.	c #FFDC51",
"].	c #FFD94B",
"^.	c #FFD745",
"/.	c #FFD540",
"(.	c #296AA7",
"_.	c #FFED70",
":.	c #FFE367",
"<.	c #FFE161",
"[.	c #FFDF5B",
"}.	c #FFDD55",
"|.	c #FFDA4F",
"1.	c #FFD849",
"2.	c #FFD743",
"3.	c #FFD43D",
"4.	c #FFD43A",
"5.	c #3B77A7",
"6.	c #2566A4",
"7.	c #FFEC6D",
"8.	c #FFE46A",
"9.	c #FFE264",
"0.	c #FFDC52",
"a.	c #FFD94C",
"b.	c #FFD846",
"c.	c #FFD43B",
"d.	c #FFD33A",
"e.	c #FEE368",
"f.	c #FFE262",
"g.	c #FFD641",
"h.	c #FFD43C",
"i.	c #FFE15F",
"j.	c #FFDE59",
"k.	c #FFDC53",
"l.	c #FFD847",
"m.	c #FFDA58",
"n.	c #FFE58C",
"o.	c #FFD33E",
"p.	c #FFD53F",
"q.	c #FFDF73",
"r.	c #FFF6D7",
"s.	c #FFD645",
"t.	c #FFD94A",
"u.	c #FFD643",
"v.	c #FFD33B",
"w.	c #FFD542",
"          . + @ # $ %           ",
"        & * = # - ; > ,         ",
"        ' ) ! ~ { ] ^ /         ",
"        ( _ : < [ } | 1         ",
"  2 3 4 5 6 7 [ 8 9 1 0 a b c   ",
"d e ( f g < % h 9 i j k l m n o ",
"p q r s t u v w x y z A B C D E ",
"F @ g G H I J K L M N O P Q R S ",
"@ T U V W X Y Z `  ...+.@.#.$.%.",
"&.~ *.=.-.;.>.,.'.).!.~.{.].^./.",
"U 7 [ (._.b m :.<.[.}.|.1.2.3.4.",
"  5.} 6.7.8.9.D E 0.a.b./.c.d.  ",
"        e.f.Q R $.%.g.h.        ",
"        i.j.k.$.l.m.n.o.        ",
"        R {.].^.p.q.r.s.        ",
"          t.u.3.v.c.w.          "};
