/* XPM */
static char * rails_xpm[] = {
"14 16 181 2",
"  	c None",
". 	c #90152D",
"+ 	c #99172E",
"@ 	c #A12737",
"# 	c #B4534B",
"$ 	c #B4544B",
"% 	c #B04B40",
"& 	c #B04B43",
"* 	c #B2524F",
"= 	c #B25251",
"- 	c #AE4B44",
"; 	c #A8403F",
"> 	c #A72333",
", 	c #A42032",
"' 	c #9D1F31",
") 	c #B7343D",
"! 	c #C0584C",
"~ 	c #C96F60",
"{ 	c #E8C4BB",
"] 	c #D79685",
"^ 	c #E1B4A5",
"/ 	c #ECD0C1",
"( 	c #D59684",
"_ 	c #C5786C",
": 	c #B33438",
"< 	c #9B1E31",
"[ 	c #AB2435",
"} 	c #B6323B",
"| 	c #C0594E",
"1 	c #C05749",
"2 	c #DA9E91",
"3 	c #F2E1D1",
"4 	c #FDFAF8",
"5 	c #FDF9F8",
"6 	c #F0D9D3",
"7 	c #F3E2DE",
"8 	c #C77371",
"9 	c #9C2132",
"0 	c #B52637",
"a 	c #B32B35",
"b 	c #DDA7A4",
"c 	c #CC7F79",
"d 	c #EFDAC1",
"e 	c #E9CCAF",
"f 	c #D59C84",
"g 	c #BB6161",
"h 	c #D89A94",
"i 	c #D79188",
"j 	c #BD5C51",
"k 	c #B02536",
"l 	c #B42E39",
"m 	c #B1353B",
"n 	c #B2373E",
"o 	c #F7EDE1",
"p 	c #F1DECD",
"q 	c #EFDAC5",
"r 	c #BE5C58",
"s 	c #A31E24",
"t 	c #A52927",
"u 	c #D8A475",
"v 	c #C7755A",
"w 	c #A82434",
"x 	c #B93544",
"y 	c #BD5257",
"z 	c #E6BDBF",
"A 	c #F9F2EA",
"B 	c #F6EBDF",
"C 	c #E2B7AE",
"D 	c #A9262D",
"E 	c #A72029",
"F 	c #A11621",
"G 	c #D0926D",
"H 	c #CA815D",
"I 	c #921F30",
"J 	c #C04D57",
"K 	c #D59294",
"L 	c #FEFDFD",
"M 	c #FEFCFB",
"N 	c #FCFAF6",
"O 	c #CC7B7B",
"P 	c #B7484C",
"Q 	c #AA272E",
"R 	c #A8222A",
"S 	c #B8504B",
"T 	c #CB7F62",
"U 	c #8B1C2F",
"V 	c #AD383C",
"W 	c #D48D8E",
"X 	c #FFFFFF",
"Y 	c #D69396",
"Z 	c #B43B42",
"` 	c #AE2D34",
" .	c #AB2930",
"..	c #AB2C30",
"+.	c #CB7D5E",
"@.	c #931E30",
"#.	c #A1212E",
"$.	c #EBC8C6",
"%.	c #D08588",
"&.	c #BB4B50",
"*.	c #B1343A",
"=.	c #AF2E35",
"-.	c #BB5849",
";.	c #C87B5B",
">.	c #B24554",
",.	c #CEA5AC",
"'.	c #F0DEDF",
").	c #DDA7A8",
"!.	c #B4393C",
"~.	c #B4393E",
"{.	c #B2353B",
"].	c #BE6B53",
"^.	c #BC6450",
"/.	c #8D2030",
"(.	c #931B2D",
"_.	c #E2D9DC",
":.	c #F1DADA",
"<.	c #DFAAA9",
"[.	c #B63D3E",
"}.	c #B64042",
"|.	c #B53B40",
"1.	c #AE2636",
"2.	c #8B2332",
"3.	c #8E2233",
"4.	c #B88891",
"5.	c #C57F8A",
"6.	c #D49BA3",
"7.	c #E1B2B1",
"8.	c #E4B5B3",
"9.	c #B4373D",
"0.	c #B32A39",
"a.	c #B32336",
"b.	c #B42335",
"c.	c #A21F32",
"d.	c #87202F",
"e.	c #C3868F",
"f.	c #B65C68",
"g.	c #B53646",
"h.	c #CD828D",
"i.	c #9A1C2C",
"j.	c #B9535E",
"k.	c #CA6875",
"l.	c #B01C2E",
"m.	c #C96571",
"n.	c #D07D88",
"o.	c #C5717C",
"p.	c #861E2D",
"q.	c #E8CDD0",
"r.	c #E6C1C5",
"s.	c #D68A93",
"t.	c #E2A9B0",
"u.	c #A3525B",
"v.	c #C2898F",
"w.	c #DFBBBF",
"x.	c #A60616",
"y.	c #EAC4C8",
"z.	c #E1B1B7",
"A.	c #A7192A",
"B.	c #8C1F30",
"C.	c #DFC5C9",
"D.	c #D6979E",
"E.	c #D58891",
"F.	c #D3A4A9",
"G.	c #AB4D57",
"H.	c #C4838A",
"I.	c #DAB3B7",
"J.	c #DEA9AF",
"K.	c #DB969E",
"L.	c #EBCACD",
"M.	c #AF2032",
"N.	c #921B2E",
"O.	c #801226",
"P.	c #8E1327",
"Q.	c #8C0D1E",
"R.	c #8B0C1C",
"S.	c #8C0E20",
"T.	c #890818",
"U.	c #880616",
"V.	c #9C1125",
"W.	c #A11228",
"X.	c #93142D",
"  . + @ # $ % & * = - ; >   ",
"  , ' ) ! ~ { ] ^ / ( _ :   ",
"  < [ } | 1 2 3 4 5 6 7 8   ",
"  9 0 a b c d e f g h i j   ",
"  k l m n o p q r s t u v   ",
"  w x y z A B C D E F G H   ",
"  I J K L M N O P Q R S T   ",
"  U V W X X X Y Z `  ...+.  ",
"  @.#.$.X X X %.&.*.=.-.;.  ",
"  >.,.'.X X X ).!.~.{.].^.  ",
"  /.(._.X X X :.<.[.}.|.1.  ",
"  2.3.4.5.6.7.8.9.0.a.b.c.  ",
"  d.e.f.g.h.i.j.k.l.m.n.o.  ",
"  p.q.r.s.t.u.v.w.x.y.z.A.  ",
"  B.C.D.E.F.G.H.I.J.K.L.M.  ",
"  N.O.P.Q.R.S.R.T.U.V.W.X.  "};
