/* XPM */
static char * react_xpm[] = {
"16 16 2 1",
" 	c None",
".	c #61DAFB",
"                ",
"    ..   ...    ",
"   .  ....  .   ",
"   .   ..   .   ",
"   .  ....  .   ",
"   ..........   ",
" .....    ..... ",
".   .  ..  .   .",
".   .  ..  .   .",
" .....    ..... ",
"   ..........   ",
"   .  ....  .   ",
"   .   ..   .   ",
"   .  ....  .   ",
"    ...  ...    ",
"                "};
