/* XPM */
static char * react_xpm[] = {
"16 16 7 1",
" 	c None",
".	c #4B4B4B",
"+	c #282828",
"@	c #61DAFB",
"#	c #006482",
"$	c #006783",
"%	c #006784",
" .++++++++++++. ",
".+++@@++++@@+++.",
"+++@+#@++@#+@+++",
"+++@++#@@#++@+++",
"+++@++@@@@++@+++",
"++$@@@%++%@@@$++",
"+@@@@%++++%@@@@+",
"@++$@++@@++@$++@",
"@++$@++@@++@$++@",
"+@@@@%++++%@@@@+",
"++$@@@%++%@@@$++",
"+++@+#@@@@#+@+++",
"+++@++#@@#++@+++",
"+++@++@++@++@+++",
".+++@@++++@@+++.",
" .++++++++++++. "};
