/* XPM */
static char * react_xpm[] = {
"16 16 11 1",
" 	c None",
".	c #484848",
"+	c #000000",
"@	c #61DAFB",
"#	c #000203",
"$	c #006482",
"%	c #041419",
"&	c #006783",
"*	c #006784",
"=	c #000101",
"-	c #000407",
" .++++++++++++. ",
".+++@@+++#@@+++.",
"+++@+$@%%@$+@+++",
"+++@++$@@$++@+++",
"+++@++@@@@++@+++",
"++&@@@*==*@@@&++",
"+@@@@*++++*@@@@+",
"@-+&@++@@++@&+-@",
"@-+&@++@@++@&+-@",
"+@@@@*++++*@@@@+",
"++&@@@*++*@@@&++",
"+++@+$@@@@$+@+++",
"+++@++$@@$++@+++",
"+++@++@%%@++@+++",
".+++@@=+++@@+++.",
" .++++++++++++. "};
