/* XPM */
static char * ruby_xpm[] = {
"16 16 212 2",
"  	c None",
". 	c #E57E74",
"+ 	c #EA8D82",
"@ 	c #E38A82",
"# 	c #CA271A",
"$ 	c #BB0F02",
"% 	c #A10D04",
"& 	c #8C1009",
"* 	c #E6B5AE",
"= 	c #C5392E",
"- 	c #BF0D00",
"; 	c #C70C00",
"> 	c #CF0D00",
", 	c #EEA197",
"' 	c #C96963",
") 	c #A20700",
"! 	c #990F07",
"~ 	c #8B130B",
"{ 	c #7E190F",
"] 	c #D28076",
"^ 	c #AD0B00",
"/ 	c #B10900",
"( 	c #BA1501",
"_ 	c #C21903",
": 	c #C70F00",
"< 	c #E98A7A",
"[ 	c #EEAD9D",
"} 	c #B3291B",
"| 	c #9A0F09",
"1 	c #93120C",
"2 	c #87130C",
"3 	c #CA6E63",
"4 	c #A60400",
"5 	c #AD1100",
"6 	c #B01401",
"7 	c #B31301",
"8 	c #B91401",
"9 	c #C31F0B",
"0 	c #D75440",
"a 	c #CD2B12",
"b 	c #C92713",
"c 	c #AB180B",
"d 	c #88130C",
"e 	c #7E130B",
"f 	c #CE8276",
"g 	c #A10500",
"h 	c #A91400",
"i 	c #AC1501",
"j 	c #AE1401",
"k 	c #B00800",
"l 	c #CA4D3F",
"m 	c #C73D2E",
"n 	c #B61100",
"o 	c #B51505",
"p 	c #B41404",
"q 	c #9D1106",
"r 	c #820E09",
"s 	c #9A0C00",
"t 	c #A31300",
"u 	c #A71501",
"v 	c #A91501",
"w 	c #AB1501",
"x 	c #AC0E00",
"y 	c #B62718",
"z 	c #E0ABA7",
"A 	c #A81509",
"B 	c #A60C00",
"C 	c #A10D01",
"D 	c #9A0D02",
"E 	c #910F04",
"F 	c #8F0603",
"G 	c #A03C32",
"H 	c #8E0600",
"I 	c #9E1501",
"J 	c #A41601",
"K 	c #A71601",
"L 	c #A71100",
"M 	c #AB150A",
"N 	c #E19C8F",
"O 	c #F0C0B3",
"P 	c #A11408",
"Q 	c #9F0900",
"R 	c #9E0D02",
"S 	c #930D04",
"T 	c #880E06",
"U 	c #940100",
"V 	c #8D0B00",
"W 	c #860C00",
"X 	c #931101",
"Y 	c #A10F00",
"Z 	c #A81C0D",
"` 	c #D06A58",
" .	c #E37357",
"..	c #DD5D3F",
"+.	c #AA1F0F",
"@.	c #940A00",
"#.	c #940E04",
"$.	c #900F05",
"%.	c #8F0904",
"&.	c #990000",
"*.	c #EDBDB7",
"=.	c #B8210F",
"-.	c #8F1003",
";.	c #850A00",
">.	c #8C0200",
",.	c #A83224",
"'.	c #CC6255",
").	c #CA3524",
"!.	c #C32412",
"~.	c #C52615",
"{.	c #AA170B",
"].	c #8F0C03",
"^.	c #8B0F06",
"/.	c #871008",
"(.	c #950301",
"_.	c #9A0000",
":.	c #F0B2A7",
"<.	c #DC7266",
"[.	c #B92716",
"}.	c #951E14",
"|.	c #B7736E",
"1.	c #D18179",
"2.	c #B91A11",
"3.	c #B50F02",
"4.	c #B51306",
"5.	c #B51206",
"6.	c #AA1206",
"7.	c #8C0E06",
"8.	c #870F08",
"9.	c #891207",
"0.	c #980702",
"a.	c #A30402",
"b.	c #DA462F",
"c.	c #F4CFC9",
"d.	c #EEB5AA",
"e.	c #F0C1B5",
"f.	c #F3C5BB",
"g.	c #A71A13",
"h.	c #9D0700",
"i.	c #A40F03",
"j.	c #A70E02",
"k.	c #AB0E01",
"l.	c #A90E01",
"m.	c #8A0F07",
"n.	c #881108",
"o.	c #8B1205",
"p.	c #9E0E06",
"q.	c #B81507",
"r.	c #CE5748",
"s.	c #ED8A6E",
"t.	c #EB7656",
"u.	c #CF442F",
"v.	c #9E0703",
"w.	c #9D0C01",
"x.	c #980D02",
"y.	c #930D03",
"z.	c #980D03",
"A.	c #8E0F06",
"B.	c #8A1206",
"C.	c #891104",
"D.	c #A01308",
"E.	c #A20F08",
"F.	c #AF140B",
"G.	c #DB3B21",
"H.	c #DD391F",
"I.	c #9C0A04",
"J.	c #9B0C01",
"K.	c #990D02",
"L.	c #910D04",
"M.	c #870D05",
"N.	c #940C07",
"O.	c #AC0E09",
"P.	c #951207",
"Q.	c #830F02",
"R.	c #9D1508",
"S.	c #9E1108",
"T.	c #A00E09",
"U.	c #BB1B0F",
"V.	c #C41E12",
"W.	c #A80E0B",
"X.	c #9C0C03",
"Y.	c #960C00",
"Z.	c #A30D08",
"`.	c #BA110C",
" +	c #C41711",
".+	c #C81C13",
"++	c #9C1508",
"@+	c #921304",
"#+	c #9C1109",
"$+	c #98140D",
"%+	c #9E120B",
"&+	c #AC0808",
"*+	c #A30D0A",
"=+	c #920C00",
"-+	c #8E0E04",
";+	c #9E0F08",
">+	c #AF130C",
",+	c #B7170E",
"'+	c #C21C12",
")+	c #D22317",
"!+	c #DA291C",
"~+	c #AE2212",
"{+	c #97170C",
"]+	c #8F190F",
"^+	c #A20B0A",
"/+	c #A10D07",
"(+	c #9A0D04",
"_+	c #981108",
":+	c #9B120A",
"<+	c #9F140B",
"[+	c #A2150A",
"}+	c #A7170C",
"                . + @ # $ % &   ",
"          * = - ; > , ' ) ! ~ { ",
"        ] ^ / ( _ : < [ } | 1 2 ",
"      3 4 5 6 7 8 9 0 a b c d e ",
"    f g h i j 6 k l m n o p q r ",
"    s t u v w x y z A B C D E F ",
"  G H I J K L M N O P Q R S T U ",
"  V W X I Y Z `  ...+.@.#.$.%.&.",
"*.=.-.;.>.,.'.).!.~.{.].^./.(._.",
":.<.[.}.|.1.2.3.4.5.6.7.8.9.0.a.",
"b.c.d.e.f.g.h.i.j.k.l.m.n.o.p.  ",
"q.r.s.t.u.v.w.x.S y.z.A.B.C.D.  ",
"E.F.G.H.2.I.J.K.L.M.N.O.P.Q.R.  ",
"S.T.U.V.W.X.Y.y.L.Z.`. +.+++@+  ",
"#+$+%+&+*+J.=+-+;+>+,+'+)+!+~+  ",
"  {+]+^+/+(+_+:+<+[+}+          "};
