/* XPM */
static char * rust_xpm[] = {
"16 16 40 1",
" 	c None",
".	c #D1D1D1",
"+	c #A2A2A2",
"@	c #000000",
"#	c #818181",
"$	c #7C7C7C",
"%	c #A0A0A0",
"&	c #D9D9D9",
"*	c #505050",
"=	c #DDDDDD",
"-	c #FFFFFF",
";	c #FCFCFC",
">	c #383838",
",	c #E2E2E2",
"'	c #616161",
")	c #6F6F6F",
"!	c #EFEFEF",
"~	c #6E6E6E",
"{	c #B1B1B1",
"]	c #AAAAAA",
"^	c #868686",
"/	c #5A5A5A",
"(	c #CBCBCB",
"_	c #B8B8B8",
":	c #DBDBDB",
"<	c #E3E3E3",
"[	c #E7E7E7",
"}	c #9B9B9B",
"|	c #B6B6B6",
"1	c #A3A3A3",
"2	c #F6F6F6",
"3	c #636363",
"4	c #C5C5C5",
"5	c #8B8B8B",
"6	c #F8F8F8",
"7	c #BBBBBB",
"8	c #BABABA",
"9	c #C6C6C6",
"0	c #BFBFBF",
"a	c #717171",
"    ..+@@+..    ",
"  ..@@@#$@@@..  ",
" .@@@%&++&%@@@. ",
" .@*=--;---=>@. ",
".@*@@@@@@@$,=@@.",
".@')@@*$)@@*!~@.",
"*@{.@@]--^@/(_@*",
"@@:-@@@@@@><-.@@",
"*@[-@@)]}@@|-{@*",
"1@](@@^(23@*4{@1",
".@*@@@@@[]@@*{@.",
" ]@5|4((26475@] ",
" .@@8.----90@@. ",
"  4@@a$]]$)@@.  ",
"  ..@@@@@@@@..  ",
"    ..1@@1..    "};
