/* XPM */
static char * favicon_rustlang_xpm[] = {
"16 16 44 1",
" 	c None",
".	c #666565",
"+	c #000000",
"@	c #030000",
"#	c #FEFEFE",
"$	c #010000",
"%	c #868686",
"&	c #FFFFFF",
"*	c #787878",
"=	c #878686",
"-	c #2C2A2A",
";	c #7F7F7F",
">	c #808080",
",	c #3B3838",
"'	c #140F0F",
")	c #130E0E",
"!	c #3C3939",
"~	c #7F7D7D",
"{	c #EBEAEA",
"]	c #8B8B8B",
"^	c #636262",
"/	c #9D9C9C",
"(	c #0C0808",
"_	c #676666",
":	c #080202",
"<	c #C1C1C1",
"[	c #C7C7C7",
"}	c #1E1B1B",
"|	c #0D0909",
"1	c #EEEEEE",
"2	c #050000",
"3	c #E7E5E5",
"4	c #F2F2F2",
"5	c #605F5F",
"6	c #BFBFBF",
"7	c #F3F3F3",
"8	c #969696",
"9	c #717070",
"0	c #E4E3E3",
"a	c #151111",
"b	c #232020",
"c	c #D1CFCF",
"d	c #F7F6F6",
"e	c #797878",
"      .++.      ",
"    ++@##@++    ",
"  ++$%&**&=+++  ",
"  +-&&&&&&&&-+  ",
" +$;>>>>>>>&&++ ",
".$,>')''''+>&!$.",
"+#.&~+{&&{+]&.#+",
"+^/&;+())(_&&/^+",
"+:&&;+/<[}|&&1@+",
"+2345+67&8+90a++",
" +++$$$b&c$$+++ ",
" ++#d&&&&&&d#++ ",
"  +^/&&&&&&/^+  ",
"  +#*#&&&&#e#+  ",
"   .++2::2++.   ",
"      ++++      "};
