/* XPM */
static char * rust_xpm[] = {
"16 16 38 1",
" 	c None",
".	c #555555",
"+	c #8B8B8B",
"@	c #000000",
"#	c #535353",
"$	c #090909",
"%	c #545454",
"&	c #8C8C8C",
"*	c #525252",
"=	c #CCCCCC",
"-	c #DDDDDD",
";	c #FFFFFF",
">	c #FCFCFC",
",	c #8A8A8A",
"'	c #030303",
")	c #7C7C7C",
"!	c #E2E2E2",
"~	c #515151",
"{	c #505050",
"]	c #EFEFEF",
"^	c #B6B6B6",
"/	c #5A5A5A",
"(	c #F8F8F8",
"_	c #8D8D8D",
":	c #383838",
"<	c #CDCDCD",
"[	c #6F6F6F",
"}	c #CBCBCB",
"|	c #9B9B9B",
"1	c #868686",
"2	c #F6F6F6",
"3	c #636363",
"4	c #E7E7E7",
"5	c #CACACA",
"6	c #C5C5C5",
"7	c #BBBBBB",
"8	c #FEFEFE",
"9	c #B9B9B9",
"    ..+@@+..    ",
"  +#@@@$$@@@%&  ",
" +@@*&====&*@@& ",
" .@&-;;>;;;-,@% ",
".'*@@@@@@@)!=~@.",
".@&=@@#++@@{]&@.",
"+@;=@@^;;^@/(=@_",
"@@;=@@@@@@:;;<@@",
"'@;=@@[}|@@^;=@@",
"+@;=@@1}23@{(=@_",
".@&@@@@@4^@@{&@.",
".'*5}6}}2(67+~@.",
" .@_8;;;;(((9@~ ",
" &@@*&}==}&*@@& ",
"  &%@@@@@@@@%&  ",
"    ..+@@+..    "};
