/* XPM */
static char * rust_xpm[] = {
"16 16 37 1",
" 	c None",
".	c #555555",
"+	c #8B8B8B",
"@	c #000000",
"#	c #535353",
"$	c #545454",
"%	c #8C8C8C",
"&	c #525252",
"*	c #CCCCCC",
"=	c #DDDDDD",
"-	c #FFFFFF",
";	c #FCFCFC",
">	c #8A8A8A",
",	c #030303",
"'	c #7C7C7C",
")	c #E2E2E2",
"!	c #515151",
"~	c #505050",
"{	c #EFEFEF",
"]	c #B6B6B6",
"^	c #5A5A5A",
"/	c #F8F8F8",
"(	c #8D8D8D",
"_	c #383838",
":	c #CDCDCD",
"<	c #6F6F6F",
"[	c #CBCBCB",
"}	c #9B9B9B",
"|	c #868686",
"1	c #F6F6F6",
"2	c #636363",
"3	c #E7E7E7",
"4	c #CACACA",
"5	c #C5C5C5",
"6	c #BBBBBB",
"7	c #FEFEFE",
"8	c #B9B9B9",
"    ..+@@+..    ",
"  +#@@@++@@@$%  ",
" +@@&%****%&@@% ",
" .@%=--;---=>@$ ",
".,&@@@@@@@')*!@.",
".@%*@@#++@@~{%@.",
"+@-*@@]--]@^/*@(",
"@@-*@@@@@@_--:@@",
",@-*@@<[}@@]-*@@",
"+@-*@@|[12@~/*@(",
".@%@@@@@3]@@~%@.",
".,&4[5[[1/56+!@.",
" .@(7----///8@! ",
" %@@&%[**[%&@@% ",
"  %$@@@@@@@@$%  ",
"      +@@+..    "};
