/* XPM */
static char * E:\EmacsPortable_App\Data\src\mode_icons\icons\sas_xpm[] = {
"15 16 87 1",
" 	c None",
".	c #6095CB",
"+	c #72A1D1",
"@	c #4A85C4",
"#	c #3F7EC1",
"$	c #4784C3",
"%	c #6497CC",
"&	c #88AFD8",
"*	c #6C9CCF",
"=	c #387ABF",
"-	c #3679BF",
";	c #3A7BC0",
">	c #3B7CC0",
",	c #377ABE",
"'	c #3C7DC0",
")	c #4381C2",
"!	c #3C7CC0",
"~	c #6196CC",
"{	c #3578BE",
"]	c #3A7CC0",
"^	c #4280C2",
"/	c #77A4D2",
"(	c #AAC6E4",
"_	c #78A5D3",
":	c #6F9FD0",
"<	c #4985C4",
"[	c #BAD1E9",
"}	c #407FC1",
"|	c #3E7EC1",
"1	c #A9C5E3",
"2	c #8CB2DA",
"3	c #82ABD6",
"4	c #4483C2",
"5	c #3F7EC0",
"6	c #3276BE",
"7	c #4684C3",
"8	c #85ADD8",
"9	c #76A3D2",
"0	c #3C7DC1",
"a	c #A9C6E2",
"b	c #81AAD6",
"c	c #3D7DC0",
"d	c #397BC0",
"e	c #3D7DC1",
"f	c #5D93CA",
"g	c #568FC9",
"h	c #3D7EC1",
"i	c #5A91CA",
"j	c #4D88C6",
"k	c #4080C1",
"l	c #6B9CCF",
"m	c #5D93CB",
"n	c #528BC7",
"o	c #568EC8",
"p	c #377ABF",
"q	c #689ACE",
"r	c #6799CE",
"s	c #4784C4",
"t	c #6296CC",
"u	c #568EC9",
"v	c #4482C3",
"w	c #4482C2",
"x	c #6195CC",
"y	c #3175BD",
"z	c #77A4D3",
"A	c #4D88C5",
"B	c #5890C9",
"C	c #578FC9",
"D	c #3477BD",
"E	c #5F94CB",
"F	c #4F89C6",
"G	c #6D9DD0",
"H	c #89B0D9",
"I	c #6D9ED0",
"J	c #568FC8",
"K	c #4A86C4",
"L	c #75A3D2",
"M	c #3F7FC1",
"N	c #4281C2",
"O	c #5C92CA",
"P	c #2D73BB",
"Q	c #558EC8",
"R	c #558DC7",
"S	c #5E93CB",
"T	c #5A90CA",
"U	c #6E9FD0",
"V	c #6E9ED0",
"    .+@#$%&    ",
"  *=-;>,')'!~  ",
" %{>]^/     (_ ",
":{>><[         ",
"}>>|1  23      ",
"4]>5   '678    ",
"9';0a  bcdef   ",
" gh'i    j>kl  ",
"  m)=n    op^q ",
"   r>p)    s=>t",
"    uv=w   x=y:",
"     zAB   C=DE",
"          F{]=G",
" H      IJ{p]K ",
"  LvM,NO{P}QR  ",
"    SlF$TUV    "};
