/* XPM */
static char * sass_xpm[] = {
"16 16 88 1",
" 	c None",
".	c #CD669A",
"+	c #CD659A",
"@	c #CD6599",
"#	c #CC6499",
"$	c #CB6096",
"%	c #D06FA0",
"&	c #D57FAB",
"*	c #D682AC",
"=	c #D275A4",
"-	c #CA5E94",
";	c #D379A7",
">	c #EABCD3",
",	c #F6E3EC",
"'	c #F3DBE7",
")	c #F0D2E1",
"!	c #F5DFEA",
"~	c #E4ABC8",
"{	c #CB5E95",
"]	c #E4ACC8",
"^	c #FEF9FB",
"/	c #EDC8DA",
"(	c #D681AD",
"_	c #D06E9F",
":	c #D173A3",
"<	c #F8EAF1",
"[	c #D47BA9",
"}	c #CC6398",
"|	c #CD679B",
"1	c #EEC9DB",
"2	c #FAEFF5",
"3	c #D786B0",
"4	c #CC6298",
"5	c #F7E5EE",
"6	c #D47AA7",
"7	c #CB6197",
"8	c #EBC2D7",
"9	c #F8E9F1",
"0	c #D172A2",
"a	c #CB5F96",
"b	c #CF6A9D",
"c	c #E9BAD1",
"d	c #EDC7DB",
"e	c #CB5F95",
"f	c #FFFDFE",
"g	c #DA8BB2",
"h	c #D681AC",
"i	c #DB91B6",
"j	c #D887B0",
"k	c #E2A7C6",
"l	c #F0D0E0",
"m	c #E8B7D0",
"n	c #CF6B9E",
"o	c #FEFAFC",
"p	c #DA8CB4",
"q	c #D888B1",
"r	c #E1A3C2",
"s	c #DD95B9",
"t	c #D276A5",
"u	c #CE689C",
"v	c #CC6297",
"w	c #DA8EB4",
"x	c #F9EAF1",
"y	c #D47CA8",
"z	c #D683AD",
"A	c #EECADC",
"B	c #DE9ABC",
"C	c #DA8DB4",
"D	c #DA8EB5",
"E	c #D173A2",
"F	c #F8E9F0",
"G	c #DC93B8",
"H	c #E1A3C3",
"I	c #CE699C",
"J	c #F4DEEA",
"K	c #D886AF",
"L	c #EECBDC",
"M	c #D784AE",
"N	c #E9BDD3",
"O	c #EBBFD5",
"P	c #D47BA8",
"Q	c #CA5E95",
"R	c #E3A7C5",
"S	c #F2D4E3",
"T	c #EEC9DC",
"U	c #DB8FB5",
"V	c #CE6A9D",
"W	c #D681AB",
"     ....+@     ",
"   ...#$%&*=-   ",
"  ...$;>,')!~{  ",
" ...@]^/(%_:<[} ",
" ..|1234+.+}56# ",
"..7890a}#7bcde..",
".#;fgehijklmn@..",
".@nop7|qrstu....",
"..vwxy+#4#......",
"...7zABCDE#.....",
"...+.>FsGH=.....",
" .+IJKL0+M*.... ",
" .aNO6A%|P%.... ",
"  QRSTU..#@...  ",
"   VW:#......   ",
"     +.....     "};
