/* XPM */
static char * scheme_xpm[] = {
"13 16 3 1",
" 	c None",
".	c #7d7d7d",
"+	c #000000",
"  ....       ",
" .+++.       ",
".+..++.      ",
".+. .+.      ",
" .  .+.      ",
"    .+.      ",
"    .++.     ",
"   .+++.     ",
"   .+++.     ",
"  .++++.     ",
"  .++.++.    ",
"  .++..+.    ",
" .++. .+.  . ",
" .++. .++..+.",
".++.   .+++. ",
" ..     ...  "};
