/* XPM */
static char * slim_xpm[] = {
"16 16 144 2",
"  	c None",
". 	c #6B6B66",
"+ 	c #767772",
"@ 	c #60615C",
"# 	c #242621",
"$ 	c #62635D",
"% 	c #C4C6C2",
"& 	c #C7C9C6",
"* 	c #C4C6C3",
"= 	c #ADAEAB",
"- 	c #949590",
"; 	c #A8A89F",
"> 	c #C1C4C0",
", 	c #CFD0CE",
"' 	c #E5E6E4",
") 	c #CACCC9",
"! 	c #A8AAA7",
"~ 	c #BBBCB7",
"{ 	c #74746F",
"] 	c #494A48",
"^ 	c #3A3A3A",
"/ 	c #93958C",
"( 	c #C6C9C6",
"_ 	c #D8D9D6",
": 	c #E7E8E4",
"< 	c #DFE1DD",
"[ 	c #D4D6D3",
"} 	c #C7C9C7",
"| 	c #A5A6A0",
"1 	c #393939",
"2 	c #353635",
"3 	c #5B5C58",
"4 	c #3B3C3A",
"5 	c #383838",
"6 	c #878880",
"7 	c #CCCECC",
"8 	c #D6D8D5",
"9 	c #D5D4D1",
"0 	c #D1CFCC",
"a 	c #D0D2CF",
"b 	c #C6C8C6",
"c 	c #3B3B39",
"d 	c #3D3D3C",
"e 	c #6F7069",
"f 	c #9C9F99",
"g 	c #C9CAC8",
"h 	c #CACAC6",
"i 	c #CBCAC8",
"j 	c #BCBFBC",
"k 	c #B8BAB5",
"l 	c #767672",
"m 	c #3D3D3D",
"n 	c #3C3D3C",
"o 	c #3B3B3B",
"p 	c #7D7E77",
"q 	c #B0B2AE",
"r 	c #BABCB9",
"s 	c #C2C3C0",
"t 	c #C5C7C2",
"u 	c #7F807A",
"v 	c #3C3C3C",
"w 	c #3F403F",
"x 	c #363636",
"y 	c #666664",
"z 	c #A2A29F",
"A 	c #9B9B98",
"B 	c #60615F",
"C 	c #3E3E3E",
"D 	c #3E3E3D",
"E 	c #444444",
"F 	c #4B4B4B",
"G 	c #4D4D4E",
"H 	c #525252",
"I 	c #373737",
"J 	c #3F3F3F",
"K 	c #474747",
"L 	c #A1A1A1",
"M 	c #8A8A8A",
"N 	c #404040",
"O 	c #787777",
"P 	c #646464",
"Q 	c #383938",
"R 	c #4C4C4B",
"S 	c #434343",
"T 	c #424242",
"U 	c #B5B6B5",
"V 	c #7D7D7C",
"W 	c #848384",
"X 	c #B9B9B8",
"Y 	c #727372",
"Z 	c #A3A4A4",
"` 	c #7F7F7E",
" .	c #A0A0A0",
"..	c #393938",
"+.	c #9F9F9F",
"@.	c #454645",
"#.	c #808080",
"$.	c #8C8D8C",
"%.	c #858585",
"&.	c #2B2B2B",
"*.	c #BABABA",
"=.	c #2D2D2C",
"-.	c #585858",
";.	c #5C5C5C",
">.	c #424241",
",.	c #3D3E3D",
"'.	c #575757",
").	c #414141",
"!.	c #727272",
"~.	c #6B6B6A",
"{.	c #807F7F",
"].	c #8D8F8E",
"^.	c #7B7B7B",
"/.	c #2F2F2F",
"(.	c #B5B5B4",
"_.	c #5A5A5A",
":.	c #434342",
"<.	c #363635",
"[.	c #757574",
"}.	c #737473",
"|.	c #545454",
"1.	c #595958",
"2.	c #515151",
"3.	c #686867",
"4.	c #343434",
"5.	c #454545",
"6.	c #898A85",
"7.	c #6D6D6B",
"8.	c #494947",
"9.	c #40403F",
"0.	c #414241",
"a.	c #444443",
"b.	c #484847",
"c.	c #6A6B67",
"d.	c #95948F",
"e.	c #C0C0B9",
"f.	c #B4B4AC",
"g.	c #ACACA6",
"h.	c #AAAAA4",
"i.	c #A8A9A4",
"j.	c #ACADA7",
"k.	c #AFB0AA",
"l.	c #B7B8B1",
"m.	c #BFC0B9",
"            . + @ #             ",
"          $ % & * = -           ",
"        ; > , ' ' ) ! ~         ",
"  { ] ^ / ( _ : < [ } | 1 2 3   ",
"  4 5 1 6 7 8 9 0 a b - 5 1 c   ",
"  d 1 1 e f g h i j k l 1 1 m   ",
"  n ^ ^ o p q r s t u v 1 ^ w   ",
"  d 5 5 5 x y z A B x 5 1 5 C   ",
"  D 1 E F o G H I 1 ^ ^ ^ ^ J   ",
"  m K L M N O P Q R 5 S T 5 J   ",
"  d ^ U N J V W X Y Z `  .S C   ",
"  D 5 ..+.@.#.$.%.&.*.=.-.;.>.  ",
"  ,.'.).!.~.{.].^./.(.&._._.:.  ",
"  <.o [.}.5 |.1.2.x 3.4.5.E d   ",
"  6.7.8.:.9.D n D J 0.a.b.c.d.  ",
"      e.f.g.h.i.h.j.k.l.m.      "};
