/* XPM */
static char * smartparens_xpm[] = {
"16 16 10 1",
" 	c None",
".	c #225A9B",
"+	c #215A9B",
"@	c #23599C",
"#	c #225A9C",
"$	c #235A9B",
"%	c #22599B",
"&	c #235B9B",
"*	c #23599B",
"=	c #21599B",
"                ",
"                ",
"     ..  +.     ",
"    @.#   ..    ",
"    ..    ..    ",
"    ..     .+   ",
"   ..$     ..   ",
"   ..+     ..   ",
"   %.+     ..   ",
"   ..&     ..   ",
"    ..     ..   ",
"    ..    #.    ",
"    +.*   ..    ",
"     ..  =.     ",
"                ",
"                "};
