/* XPM */
static char * spacemacs_xpm[] = {
"16 16 161 2",
"  	c None",
". 	c #EEEEEC",
"+ 	c #EBE9E9",
"@ 	c #E8E4E5",
"# 	c #DBD7E0",
"$ 	c #B3A8CB",
"% 	c #A79BC5",
"& 	c #A393C1",
"* 	c #9B8BB9",
"= 	c #9283B0",
"- 	c #877AA7",
"; 	c #AFA6CC",
"> 	c #B4ADD0",
", 	c #C5C0D7",
"' 	c #DCD5DB",
") 	c #BEB5D0",
"! 	c #A99DC6",
"~ 	c #A293C0",
"{ 	c #B8ACC8",
"] 	c #9385B0",
"^ 	c #8275A1",
"/ 	c #ADA4CB",
"( 	c #B5AFD2",
"_ 	c #BAB7D7",
": 	c #BCBAD9",
"< 	c #BCB9D8",
"[ 	c #D0C9D6",
"} 	c #BFB5CF",
"| 	c #A699C4",
"1 	c #AC9EC3",
"2 	c #D7C6D5",
"3 	c #81719E",
"4 	c #7B6E9A",
"5 	c #B6ADCF",
"6 	c #B6AEC7",
"7 	c #B9B5D7",
"8 	c #C0C0DD",
"9 	c #B9B5D6",
"0 	c #C7BDD1",
"a 	c #BCAFCB",
"b 	c #A090BE",
"c 	c #E7DCE1",
"d 	c #8876A2",
"e 	c #7B6D9A",
"f 	c #726590",
"g 	c #A89CC6",
"h 	c #9F92AF",
"i 	c #DEDCE2",
"j 	c #CDCDE1",
"k 	c #C0C0DC",
"l 	c #B9B6D7",
"m 	c #B1AACF",
"n 	c #C5BACF",
"o 	c #AFA0C4",
"p 	c #E1D8DD",
"q 	c #B4A4C1",
"r 	c #7E709C",
"s 	c #726591",
"t 	c #9385AF",
"u 	c #9687A1",
"v 	c #E5E5E7",
"w 	c #E6E6E9",
"x 	c #D1CFE0",
"y 	c #BFB9D6",
"z 	c #AFA6CD",
"A 	c #A99CC5",
"B 	c #C4B7CB",
"C 	c #DFD9DD",
"D 	c #D6C6D4",
"E 	c #7D6F9B",
"F 	c #716490",
"G 	c #9989B8",
"H 	c #A394C1",
"I 	c #A79BC4",
"J 	c #523667",
"K 	c #705B88",
"L 	c #CAC7DC",
"M 	c #E3E1E7",
"N 	c #EAE8E6",
"O 	c #E3DDDF",
"P 	c #D7CED7",
"Q 	c #D0C5D0",
"R 	c #EAE3E1",
"S 	c #EBDFE2",
"T 	c #7A6D99",
"U 	c #6F628E",
"V 	c #635982",
"W 	c #9485B2",
"X 	c #9C8DBA",
"Y 	c #A495C2",
"Z 	c #6F5787",
"` 	c #583C6D",
" .	c #A194BD",
"..	c #ADA3CB",
"+.	c #BDB4D2",
"@.	c #D8D3DC",
"#.	c #E6E0DF",
"$.	c #E3DBDA",
"%.	c #E0D5D5",
"&.	c #F2EAE7",
"*.	c #83769E",
"=.	c #6C5F8B",
"-.	c #615681",
";.	c #8D7CAB",
">.	c #9C8CBA",
",.	c #8773A3",
"'.	c #664C7C",
").	c #806B9A",
"!.	c #A597C3",
"~.	c #9E8EBC",
"{.	c #AA9EC0",
"].	c #CDC4CF",
"^.	c #E2D9D8",
"/.	c #E7DEDC",
"(.	c #AB9CB6",
"_.	c #685B87",
":.	c #8B7DA9",
"<.	c #8D7CAA",
"[.	c #705687",
"}.	c #755A8B",
"|.	c #9889B5",
"1.	c #9989B7",
"2.	c #8E7FAC",
"3.	c #8778A5",
"4.	c #968AAC",
"5.	c #D3C8CE",
"6.	c #B2A7BA",
"7.	c #625681",
"8.	c #8173A0",
"9.	c #8779A6",
"0.	c #8B7BA8",
"a.	c #755E8E",
"b.	c #776190",
"c.	c #8674A1",
"d.	c #8A7BA8",
"e.	c #8476A3",
"f.	c #766995",
"g.	c #726690",
"h.	c #877C9A",
"i.	c #7E719D",
"j.	c #786492",
"k.	c #786593",
"l.	c #7B6997",
"m.	c #8274A1",
"n.	c #7F719C",
"o.	c #746793",
"p.	c #6E618C",
"q.	c #665A85",
"r.	c #796D98",
"s.	c #756591",
"t.	c #766692",
"u.	c #786A97",
"v.	c #70638F",
"w.	c #6B5E89",
"x.	c #645883",
"y.	c #6C608B",
"z.	c #706590",
"A.	c #6D608B",
"B.	c #6C5F89",
"C.	c #695C87",
"D.	c #625682",
"    . .                         ",
"  .   + @ # $ % & * = -         ",
"      ; > , ' ) ! ~ { ] ^       ",
"    / ( _ : < [ } | 1 2 3 4     ",
"  5 6 7 8 8 8 9 0 a b c d e f   ",
"  g h i j k 8 l m n o p q r s   ",
"  | t u v w x y z A B C D E F   ",
"G H I J K L M N O P Q R S T U V ",
"W X Y Z `  ...+.@.#.$.%.&.*.=.-.",
";.W >.,.'.).!.H ~.{.].^./.(._.  ",
"  :.= <.[.}.|.1.W 2.3.4.5.6.7.  ",
"  8.9.0.a.b.c.2.d.e.r f.g.h.7.  ",
"    E i.j.k.l.m.n.T o.p.q.7.    ",
"      r.s.s.t.u.4 v.w.x.-.      ",
"        y.z.A.B.C.x.7.7.        ",
"            D.7.7.D.            "};
