/* XPM */
static char * svg_xpm[] = {
"16 16 52 1",
" 	c None",
".	c #000000",
"+	c #160F05",
"@	c #DD9933",
"#	c #DB9833",
"$	c #130C04",
"%	c #38270D",
"&	c #2B1E0A",
"*	c #FFB13B",
"=	c #33230C",
"-	c #2D1F0A",
";	c #36250C",
">	c #3A280D",
",	c #F9AD3A",
"'	c #1B1306",
")	c #ECA437",
"!	c #E8A136",
"~	c #1F1607",
"{	c #FAAE3A",
"]	c #FEB03B",
"^	c #35250C",
"/	c #2F210B",
"(	c #BC822B",
"_	c #090602",
":	c #EAA236",
"<	c #E6A035",
"[	c #0A0702",
"}	c #BF852C",
"|	c #1E1507",
"1	c #C1862D",
"2	c #EFA637",
"3	c #BE842C",
"4	c #1D1407",
"5	c #130D04",
"6	c #34240C",
"7	c #0C0803",
"8	c #010100",
"9	c #DE9A33",
"0	c #EEA537",
"a	c #F3A938",
"b	c #F2A838",
"c	c #E09B34",
"d	c #F0A738",
"e	c #DC9933",
"f	c #140E05",
"g	c #C2872D",
"h	c #1C1306",
"i	c #2A1D0A",
"j	c #3B290E",
"k	c #201607",
"l	c #FBAE3A",
"m	c #140D04",
"       ..       ",
"      +@#$      ",
"  .%&.%**=.-;.  ",
"  >*,'.)!.~{]^  ",
"  /{*(_:<[}*,&  ",
"  .|1*(2)}*34.  ",
" 56.71****}[.^$ ",
"89*20a****b02*#.",
"8c*20b****b0d*e.",
" +;.[}****(_.%f ",
"  .4}*}2)g*(h.  ",
"  /{*}[:<7g*,i  ",
"  j*,h.)!.kl*;  ",
"  .>-.%**=./%.  ",
"      +c9m      ",
"       8.       "};
