/* XPM */
static char * term_xpm[] = {
"16 16 60 1",
" 	c None",
".	c #090909",
"+	c #080808",
"@	c #070707",
"#	c #616161",
"$	c #6B6B6B",
"%	c #6C6C6C",
"&	c #6D6D6D",
"*	c #6E6E6E",
"=	c #626262",
"-	c #3E3E3E",
";	c #303030",
">	c #404040",
",	c #313131",
"'	c #323232",
")	c #3F3F3F",
"!	c #3A3A3A",
"~	c #515151",
"{	c #D3D3D3",
"]	c #828282",
"^	c #2D2D2D",
"/	c #2F2F2F",
"(	c #2C2C2C",
"_	c #060606",
":	c #363636",
"<	c #D8D8D8",
"[	c #3B3B3B",
"}	c #262626",
"|	c #2B2B2B",
"1	c #2A2A2A",
"2	c #393939",
"3	c #A9A9A9",
"4	c #BEBEBE",
"5	c #252525",
"6	c #292929",
"7	c #282828",
"8	c #373737",
"9	c #494949",
"0	c #B4B4B4",
"a	c #474747",
"b	c #222222",
"c	c #272727",
"d	c #343434",
"e	c #2E2E2E",
"f	c #1C1C1C",
"g	c #171717",
"h	c #5B5B5B",
"i	c #8A8A8A",
"j	c #242424",
"k	c #050505",
"l	c #202020",
"m	c #1D1D1D",
"n	c #1F1F1F",
"o	c #1B1B1B",
"p	c #191919",
"q	c #232323",
"r	c #212121",
"s	c #1E1E1E",
"t	c #040404",
"u	c #353535",
"                ",
"  .++++++++++.  ",
" @#$%&&***&%$=@ ",
" @-;>,''''',;)@ ",
" @!~{]^////^(!@ ",
" _:]<[}||||112@ ",
" _'-3456666678_ ",
" _/90abccccccd_ ",
" _efgfhiij555'_ ",
" k/lmnoppmqbb/k ",
" k^lrrnnnnrrl^k ",
" k|nnnnnnnnnn|k ",
" k6mmmssssmmm6k ",
" t/dduuuuuuud/t ",
"  tkkkkkkkkkkt  ",
"                "};
