/* XPM */
static char *xml[] = {
/* columns rows colors chars-per-pixel */
"16 16 69 1 ",
"  c #CE392C",
". c #CE392D",
"X c #CE3A2E",
"o c #D2382B",
"O c #D1382C",
"+ c #D1392C",
"@ c #D4392C",
"# c #D7392C",
"$ c #D9392D",
"% c #D93A2D",
"& c #DB3A2D",
"* c #DE3B2E",
"= c #DF3B2E",
"- c #C73D31",
"; c #CC3D31",
": c #CE3C30",
"> c #CF3D31",
", c #D33D31",
"< c #D23F33",
"1 c #DD3D30",
"2 c #E03B2E",
"3 c #E03C2E",
"4 c #E13C2E",
"5 c #E23C2E",
"6 c #E33C2E",
"7 c #E73D2F",
"8 c #E83D2F",
"9 c #E93E30",
"0 c #CF4337",
"q c #CE453A",
"w c #D14135",
"e c #D94337",
"r c #D04338",
"t c #D1493E",
"y c #D64B3F",
"u c #D84B40",
"i c #D84E43",
"p c #D84F44",
"a c #D9584D",
"s c #DC6056",
"d c #D9655C",
"f c #DD6E65",
"g c #E2756C",
"h c #EB8D86",
"j c #EB8E86",
"k c #E99189",
"l c #EC9088",
"z c #ED9189",
"x c #ED9D96",
"c c #EF9D96",
"v c #EF9F98",
"b c #F0A6A0",
"n c #F3ABA5",
"m c #F3ACA6",
"M c #F3ADA7",
"N c #F7C4C0",
"B c #FAE2E0",
"V c #F9E4E2",
"C c #FCEDEB",
"Z c #FCEDEC",
"A c #FDF2F1",
"S c #FDF5F4",
"D c #FCF6F5",
"F c #FCFBFB",
"G c #FEFAFA",
"H c #FDFCFC",
"J c #FEFDFD",
"K c #FEFEFE",
"L c #FFFFFF",
/* pixels */
"LLLLLLLLLLLLLLLL",
"LLLLLLLLLLLLLLLL",
"LLLLLLLLLVDLLLLL",
"LLLLLLLLs7,LLLLL",
"LLLLLLLJo9XLLLLL",
"LLLAp<Sm891yBLLL",
"LCi*99Z09=294uBL",
"k*99&aH#9>d$995g",
"t992zLl99lLn399;",
"N.899,:9%Fw899+M",
"LLc 8969rG29OjLL",
"LLLLve98nKfhLLLL",
"LLLLL-9@JLLLLLLL",
"LLLLLxqbLLLLLLLL",
"LLLLLLLLLLLLLLLL",
"LLLLLLLLLLLLLLLL"
};
