/* XPM */
static char * yaml_xpm[] = {
"45 16 238 2",
"  	c None",
". 	c #F19932",
"+ 	c #F2962B",
"@ 	c #F2982E",
"# 	c #F4B264",
"$ 	c #F19427",
"% 	c #F29528",
"& 	c #F1A750",
"* 	c #F2972D",
"= 	c #F19C39",
"- 	c #F2972B",
"; 	c #F2AE5D",
"> 	c #F29628",
", 	c #F39424",
"' 	c #EEA044",
") 	c #F08E1B",
"! 	c #F18F1C",
"~ 	c #F09020",
"{ 	c #F5B66B",
"] 	c #F29629",
"^ 	c #EF8D19",
"/ 	c #ED8F1F",
"( 	c #EDA651",
"_ 	c #F09D3B",
": 	c #F2911E",
"< 	c #F2901D",
"[ 	c #EF8F1D",
"} 	c #F1972D",
"| 	c #F19B38",
"1 	c #F2901C",
"2 	c #F08F1F",
"3 	c #F09F3E",
"4 	c #F1BD7E",
"5 	c #EE9225",
"6 	c #F28B13",
"7 	c #E99531",
"8 	c #E88715",
"9 	c #EE8B15",
"0 	c #EF901C",
"a 	c #F5B366",
"b 	c #F29627",
"c 	c #EC8A16",
"d 	c #E2871A",
"e 	c #E29944",
"f 	c #F0A043",
"g 	c #F19120",
"h 	c #F08F1B",
"i 	c #EF8D17",
"j 	c #EA8A18",
"k 	c #EA932B",
"l 	c #F09731",
"m 	c #EF8E1A",
"n 	c #EF8D18",
"o 	c #F08F1A",
"p 	c #EF9D3B",
"q 	c #F1B977",
"r 	c #F29424",
"s 	c #F18F1B",
"t 	c #ED8B16",
"u 	c #E98D1F",
"v 	c #E99F48",
"w 	c #EF8810",
"x 	c #E3912F",
"y 	c #ED8B14",
"z 	c #EF901D",
"A 	c #F5B162",
"B 	c #F39528",
"C 	c #DF851A",
"D 	c #DA9543",
"E 	c #EFA144",
"F 	c #F1911F",
"G 	c #EF8C17",
"H 	c #EE8B14",
"I 	c #EE8A13",
"J 	c #E78918",
"K 	c #E7922B",
"L 	c #EF972F",
"M 	c #F0901D",
"N 	c #F2B673",
"O 	c #F39529",
"P 	c #F08E1A",
"Q 	c #ED8A15",
"R 	c #E98813",
"S 	c #E58B1F",
"T 	c #E89C43",
"U 	c #EE880F",
"V 	c #E3902D",
"W 	c #E88714",
"X 	c #EF9121",
"Y 	c #F2A142",
"Z 	c #F39629",
"` 	c #DF8419",
" .	c #F0A144",
"..	c #E98917",
"+.	c #E0861B",
"@.	c #E88E22",
"#.	c #ED8C16",
"$.	c #E88918",
"%.	c #E8922B",
"&.	c #EF972E",
"*.	c #E18921",
"=.	c #E4881B",
"-.	c #ED8A14",
";.	c #EF9120",
">.	c #F0A449",
",.	c #F3972C",
"'.	c #EE8C19",
").	c #DD8013",
"!.	c #E38F2B",
"~.	c #E88C1F",
"{.	c #E79D44",
"].	c #E29030",
"^.	c #ED8B15",
"/.	c #EF8E19",
"(.	c #F08F1C",
"_.	c #E88816",
":.	c #DF8316",
"<.	c #EFA043",
"[.	c #F2911F",
"}.	c #EB8A17",
"|.	c #D77E15",
"1.	c #E99938",
"2.	c #EE8F1B",
"3.	c #EF972D",
"4.	c #D59342",
"5.	c #E58616",
"6.	c #EE8C17",
"7.	c #EB8A18",
"8.	c #D77B10",
"9.	c #D68C37",
"0.	c #EC8C18",
"a.	c #EB8D1F",
"b.	c #E69D44",
"c.	c #EF901E",
"d.	c #E58614",
"e.	c #DD8014",
"f.	c #F3911E",
"g.	c #ED8B17",
"h.	c #D87E15",
"i.	c #ED9C3C",
"j.	c #E78716",
"k.	c #D59648",
"l.	c #DE8923",
"m.	c #E48515",
"n.	c #E18315",
"o.	c #D37B12",
"p.	c #D58C34",
"q.	c #EF8F1E",
"r.	c #EC8F1F",
"s.	c #E69C43",
"t.	c #F39220",
"u.	c #E68715",
"v.	c #DD8115",
"w.	c #ED9F43",
"x.	c #F3911F",
"y.	c #EE8C18",
"z.	c #D87F15",
"A.	c #CE7917",
"B.	c #EE9D3D",
"C.	c #D69548",
"D.	c #DB8824",
"E.	c #D27A14",
"F.	c #D4882F",
"G.	c #EF8F20",
"H.	c #F39425",
"I.	c #ED8B18",
"J.	c #EFA045",
"K.	c #F2901E",
"L.	c #EE8D18",
"M.	c #EF9E3E",
"N.	c #D69549",
"O.	c #F39526",
"P.	c #EE8C1A",
"Q.	c #E08416",
"R.	c #DB9746",
"S.	c #EEA34A",
"T.	c #D97F15",
"U.	c #CD7917",
"V.	c #EF962D",
"W.	c #E69C44",
"X.	c #F08B11",
"Y.	c #E99530",
"Z.	c #F29526",
"`.	c #E08315",
" +	c #DB933D",
".+	c #ED8C18",
"++	c #D98015",
"@+	c #EF9E3F",
"#+	c #E88917",
"$+	c #E6902A",
"%+	c #EE952C",
"&+	c #E68816",
"*+	c #F08C16",
"=+	c #EF8E1B",
"-+	c #ED9022",
";+	c #EC9226",
">+	c #F09428",
",+	c #EF9428",
"'+	c #ED9227",
")+	c #ED9226",
"!+	c #ED8F21",
"~+	c #E68716",
"{+	c #D57E18",
"]+	c #D08936",
"^+	c #E98A18",
"/+	c #D27B16",
"(+	c #ED9D3C",
"_+	c #E58819",
":+	c #D67F18",
"<+	c #D78827",
"[+	c #E18C2A",
"}+	c #D88017",
"|+	c #D39449",
"1+	c #E7891A",
"2+	c #DA841F",
"3+	c #DE9742",
"4+	c #E48310",
"5+	c #E18414",
"6+	c #E48614",
"7+	c #E78817",
"8+	c #E78818",
"9+	c #E2861B",
"0+	c #E48718",
"a+	c #D07B17",
"b+	c #CE842C",
"c+	c #DC861E",
"d+	c #CF7917",
"e+	c #D57F1B",
"f+	c #CF7C1B",
"g+	c #D08228",
"h+	c #CE7B1A",
"i+	c #DA831C",
"j+	c #CF7F1F",
"k+	c #CE7812",
"l+	c #CD7916",
"m+	c #CE7916",
"n+	c #D27B15",
"o+	c #D38321",
"                                                                                          ",
"                                                                                          ",
". + @                 # $ % &     * +   = -                 ; > .   , '                   ",
"  ) ! ~             { ] ^ / ( _ : < [ } | 1 2 3           4 $ 1 5 ( 6 7                   ",
"    8 9 0         a b c d e f g h i j k l m n o p       q r s t u v w x                   ",
"      8 y z     A B c C D E F G H I J K L i H H M     N O P Q R S T U V                   ",
"        W 9 X Y Z c `    .: ..+.@.#.$.%.&.t *.=.-.;.>.,.'.).!.W ~.{.U ].                  ",
"          ^./.(._.:.  <.[.}.|.  1.2.j %.3._.4.  5.6.s 7.8.9.  0.a.b.U ].                  ",
"          c.n d.e.  <.f.g.h.    i.c.j %.3.j.k.  l.m.n.o.p.    q.r.s.U ].                  ",
"          t.u.v.  w.x.y.z.A.    B.c.j %.3.j.C.    D.E.F.      G.r.s.U ].                  ",
"        H.I.:.  J.K.L.z.A.      M.c.j %.3.j.N.                G.r.s.U ].                  ",
"      O.P.Q.R.S.f.n T.U.        M.c.j %.V.j.N.                G.r.W.X.Y.                  ",
"    Z.I.`. +  F .+++U.          @+z #+$+%+&+N.                q.a.W.*+=+-+;+>+,+'+)+;+    ",
"  !+~+{+]+  ^+m./+A.            (+_+:+<+[+}+|+                1+2+3+4+5+6+7+8+8+J 8+j.9+  ",
"  0+a+b+  c+|.d+A.                e+f+  g+h+                  i+j+  k+l+l+m+m+m+m+m+m+n+o+",
"                                                                                          "};
