/* XPM */
static char * yas_xpm[] = {
"16 16 58 1",
" 	c #FFFFFF",
".	c #DDDDDD",
"+	c #A6A6A6",
"@	c #A0A09F",
"#	c #B5B5B5",
"$	c #FEFEFE",
"%	c #BFBFBF",
"&	c #474746",
"*	c #8C8C8B",
"=	c #929292",
"-	c #575756",
";	c #B6B6B6",
">	c #535352",
",	c #7A7A7A",
"'	c #717171",
")	c #999998",
"!	c #353534",
"~	c #626261",
"{	c #333332",
"]	c #424241",
"^	c #858584",
"/	c #3D3D3C",
"(	c #373736",
"_	c #8A8A8A",
":	c #7E7E7E",
"<	c #F2F2F2",
"[	c #ADADAD",
"}	c #696969",
"|	c #363635",
"1	c #B0B0AF",
"2	c #4F4F4E",
"3	c #7D7D7C",
"4	c #9D9D9C",
"5	c #C1C1C1",
"6	c #555554",
"7	c #ADADAC",
"8	c #616161",
"9	c #636362",
"0	c #F5F5F5",
"a	c #393938",
"b	c #646463",
"c	c #CDCDCC",
"d	c #7C7C7B",
"e	c #545453",
"f	c #F3F3F3",
"g	c #AEAEAE",
"h	c #3E3E3D",
"i	c #F4F4F4",
"j	c #8D8D8C",
"k	c #A5A5A4",
"l	c #848483",
"m	c #FDFDFD",
"n	c #D0D0D0",
"o	c #464645",
"p	c #DFDFDF",
"q	c #7D7D7D",
"r	c #343433",
"s	c #C1C1C0",
" .+@@@@@@@@@@#$ ",
"%&*==========-; ",
">,==========')) ",
"!*==========~)) ",
"{]^=========~)) ",
"{,/{{{{{{{{{{() ",
"{            _: ",
"{      <[@@@@}|1",
"{     <23====456",
"{     7389    0a",
"{     [39b    c6",
"{     <2d@@@@@e1",
"{      fg====~: ",
"hi           jk ",
"3lf        mnop ",
"<qh{{{{{{{{res  "};
